<?xml version="1.0" encoding="UTF-8" standalone="no"?>
<!DOCTYPE svg PUBLIC "-//W3C//DTD SVG 1.1//EN" "http://www.w3.org/Graphics/SVG/1.1/DTD/svg11.dtd">
<svg version="1.1" xmlns="http://www.w3.org/2000/svg" xmlns:xlink="http://www.w3.org/1999/xlink" preserveAspectRatio="xMidYMid meet" viewBox="0 0 3000 2000" width="3000" height="2000"><defs><path d="M870.45 725.04L637.1 957.53L616.34 959.36L582.36 969.56L538.95 979.5L497.43 990.62L452.13 1006.96L403.06 1021.6L367.19 1023.43L327.57 1028.93L305.85 1045.4L284.14 1065.54L262.42 1085.68L235.07 1095.93L197.27 1089.34L165.24 1071.03L153.84 1038.08L161.46 1006.96L197.27 984.99L252.06 990.62L295.47 990.62L316.23 975.84L312.46 955.7L314.35 922.75L327.57 895.29L359.65 869.66L401.17 853.18L471 834.88L544.72 816.57L609.86 801.06L667.3 785.45L703.16 765.31L723.92 737.88L774.89 723.21L810.75 686.6L899.46 653.63L870.45 725.04Z" id="dENlEeN7w"></path><path d="M811.37 555.92L791.87 549.05L749.81 538.48L712.87 527.2L668.75 517.96L627.71 513.86L591.81 514.88L564 523.09L541.53 534.38L512.8 542.59L483.05 549.05L433.8 546.69L405.08 544.64L368.69 538.48L340.44 532.33L315.82 526.17L297.35 521.04L263.49 509.99L236.82 499.49L197.83 487.18L160.89 475.9L131.14 458.45L100.36 431.86L75.72 407.16L53.16 365.09L36.66 325.08L23.41 289.17L17.13 252.23L17.13 222.48L28.54 197.49L58.29 180.41L95.25 172.21L131.14 168.1L225.53 168.1L277.85 168.1L315.82 168.1L355.83 169.13L393.79 173.23L420.47 177.96L466.34 188.62L500.49 208.12L524.94 225.56L544.47 249.15L569.23 272.75L590.78 295.15L594.88 318.92L596.94 357.91L635.92 392.8L684.14 421.52L728.26 451.4L814.44 473.84L811.37 555.92Z" id="j1IJ12Tmbb"></path><path d="M1501.5 966.97L1501.5 1814.17L964.92 1827.34L916.64 1827.34L876.5 1862.46L876.5 1915.14L534.74 1853.68L495.23 1436.66L517.18 1397.16L583.02 1340.09L534.74 1230.35L534.74 1129.39L543.52 1032.81L564 980.14L578.63 918.68L626.92 861.55L784.95 747.49L820.07 725.54L828.84 681.64L811.29 571.9L798.38 510.44L815.68 444.6L855.18 392.8L912.25 369.97L1501.5 966.97Z" id="a1vqZx7iDH"></path><path d="M646.67 1056.86L667.42 1129.84L684.72 1183.46L817.91 1482.69L831.74 1506.08L966.99 1623.27L980.67 1640.44L993.69 1652.02L1013.22 1653.08L1301.73 1690.97L1390.15 1706.76L1403.84 1701.4L1408.28 1686.87L1333.66 1502.51L1307.32 1441.05L1267.13 1419.1L1074.67 1348.87L973.7 1291.8L855.18 1174.05L657.65 997.7L646.67 1056.86Z" id="a6Ck9heFO"></path><path d="M1501.5 997.7L1465.35 980.14L1423.38 939.68L903.47 365.58L954.63 330.47L1061.5 314.68L1276.59 611.41L1364.38 637.74L1501.5 646.52L1501.5 997.7Z" id="b8XQ4x4Ox"></path><path d="M1501.5 655.3L1434.62 655.3L1267.13 627.18L1189 532.39L1110.88 427.04L1032.75 314.68L1048.33 269.01L1110.88 225.11L1189 190L1267.13 168.05L1359.99 158.43L1501.5 158.43L1501.5 655.3Z" id="aIy8nbGb9"></path><path d="M506.08 431.86L467.85 450.52L407.75 453.46L329.63 453.46L264.91 438.76L200.2 409.35L134.31 371.11L85.49 300.52L73.73 259.35L95.25 236.55L179.61 236.55L235.49 236.55L314.91 250.52L361.96 265.23L446.81 282.88L479.61 300.52L511.96 326.99L524.94 371.11L506.08 431.86Z" id="a5MaU43akL"></path><path d="M2129.55 725.04L2362.9 957.53L2383.66 959.36L2417.64 969.56L2461.05 979.5L2502.57 990.62L2547.87 1006.96L2596.94 1021.6L2632.81 1023.43L2672.43 1028.93L2694.15 1045.4L2715.86 1065.54L2737.58 1085.68L2764.93 1095.93L2802.73 1089.34L2834.76 1071.03L2846.16 1038.08L2838.54 1006.96L2802.73 984.99L2747.94 990.62L2704.53 990.62L2683.77 975.84L2687.54 955.7L2685.65 922.75L2672.43 895.29L2640.35 869.66L2598.83 853.18L2529 834.88L2455.28 816.57L2390.14 801.06L2332.7 785.45L2296.84 765.31L2276.08 737.88L2225.11 723.21L2189.25 686.6L2100.54 653.63L2129.55 725.04Z" id="c24PmI2XlX"></path><path d="M2188.63 555.92L2208.13 549.05L2250.19 538.48L2287.13 527.2L2331.25 517.96L2372.29 513.86L2408.19 514.88L2436 523.09L2458.47 534.38L2487.2 542.59L2516.95 549.05L2566.2 546.69L2594.92 544.64L2631.31 538.48L2659.56 532.33L2684.18 526.17L2702.65 521.04L2736.51 509.99L2763.18 499.49L2802.17 487.18L2839.11 475.9L2868.86 458.45L2899.64 431.86L2924.28 407.16L2946.84 365.09L2963.34 325.08L2976.59 289.17L2982.88 252.23L2982.88 222.48L2971.46 197.49L2941.71 180.41L2904.75 172.21L2868.86 168.1L2774.47 168.1L2722.15 168.1L2684.18 168.1L2644.17 169.13L2606.21 173.23L2579.53 177.96L2533.66 188.62L2499.51 208.12L2475.06 225.56L2455.53 249.15L2430.77 272.75L2409.22 295.15L2405.12 318.92L2403.06 357.91L2364.08 392.8L2315.86 421.52L2271.74 451.4L2185.56 473.84L2188.63 555.92Z" id="b1fzmp3ZaK"></path><path d="M1498.5 966.97L1498.5 1814.17L2035.08 1827.34L2083.36 1827.34L2123.5 1862.46L2123.5 1915.14L2465.26 1853.68L2504.77 1436.66L2482.82 1397.16L2416.98 1340.09L2465.26 1230.35L2465.26 1129.39L2456.48 1032.81L2436 980.14L2421.37 918.68L2373.08 861.55L2215.05 747.49L2179.93 725.54L2171.16 681.64L2188.71 571.9L2201.63 510.44L2184.32 444.6L2144.82 392.8L2087.75 369.97L1498.5 966.97Z" id="bJC5Ur71M"></path><path d="M2353.33 1056.86L2332.58 1129.84L2315.28 1183.46L2182.09 1482.69L2168.26 1506.08L2033.01 1623.27L2019.33 1640.44L2006.31 1652.02L1986.78 1653.08L1698.27 1690.97L1609.85 1706.76L1596.16 1701.4L1591.72 1686.87L1666.34 1502.51L1692.68 1441.05L1732.88 1419.1L1925.33 1348.87L2026.3 1291.8L2144.82 1174.05L2342.35 997.7L2353.33 1056.86Z" id="e3C9ikzA1e"></path><path d="M1498.5 997.7L1534.65 980.14L1576.63 939.68L2096.53 365.58L2045.38 330.47L1938.5 314.68L1723.41 611.41L1635.62 637.74L1498.5 646.52L1498.5 997.7Z" id="a3OIooSCb"></path><path d="M1498.5 655.3L1565.38 655.3L1732.88 627.18L1811 532.39L1889.13 427.04L1967.25 314.68L1951.67 269.01L1889.13 225.11L1811 190L1732.88 168.05L1640.01 158.43L1498.5 158.43L1498.5 655.3Z" id="h1yVqG86mo"></path><path d="M2493.92 431.86L2532.15 450.52L2592.25 453.46L2670.38 453.46L2735.09 438.76L2799.8 409.35L2865.69 371.11L2914.51 300.52L2926.27 259.35L2904.75 236.55L2820.39 236.55L2764.51 236.55L2685.09 250.52L2638.04 265.23L2553.19 282.88L2520.39 300.52L2488.04 326.99L2475.06 371.11L2493.92 431.86Z" id="a29KvOlbW"></path></defs><g><g><g><g><use xlink:href="#dENlEeN7w" opacity="1" fill="#73757b" fill-opacity="1"></use></g><g><use xlink:href="#j1IJ12Tmbb" opacity="1" fill="#4d4e54" fill-opacity="1"></use></g><g><use xlink:href="#a1vqZx7iDH" opacity="1" fill="#202026" fill-opacity="1"></use></g><g><use xlink:href="#a6Ck9heFO" opacity="1" fill="#d19b20" fill-opacity="1"></use></g><g><use xlink:href="#b8XQ4x4Ox" opacity="1" fill="#6e6f7d" fill-opacity="1"></use></g><g><use xlink:href="#aIy8nbGb9" opacity="1" fill="#cacbde" fill-opacity="1"></use></g><g><use xlink:href="#a5MaU43akL" opacity="1" fill="#93d4e9" fill-opacity="1"></use></g><g><use xlink:href="#c24PmI2XlX" opacity="1" fill="#73757b" fill-opacity="1"></use></g><g><use xlink:href="#b1fzmp3ZaK" opacity="1" fill="#4d4e54" fill-opacity="1"></use></g><g><use xlink:href="#bJC5Ur71M" opacity="1" fill="#202026" fill-opacity="1"></use></g><g><use xlink:href="#e3C9ikzA1e" opacity="1" fill="#d19b20" fill-opacity="1"></use></g><g><use xlink:href="#a3OIooSCb" opacity="1" fill="#6e6f7d" fill-opacity="1"></use></g><g><use xlink:href="#h1yVqG86mo" opacity="1" fill="#cacbde" fill-opacity="1"></use></g><g><use xlink:href="#a29KvOlbW" opacity="1" fill="#93d4e9" fill-opacity="1"></use></g></g></g></g></svg>