<?xml version="1.0" encoding="UTF-8" standalone="no"?>
<!DOCTYPE svg PUBLIC "-//W3C//DTD SVG 1.1//EN" "http://www.w3.org/Graphics/SVG/1.1/DTD/svg11.dtd">
<svg version="1.1" xmlns="http://www.w3.org/2000/svg" xmlns:xlink="http://www.w3.org/1999/xlink" preserveAspectRatio="xMidYMid meet" viewBox="0 0 165 205" width="165" height="205"><defs><path d="M120.74 35.6L119.11 31.02L117.48 27.61L115.84 24.83L114.21 22.47L112.58 20.42L110.95 18.62L109.31 17.01L107.68 15.57L106.05 14.28L104.42 13.12L102.78 12.07L101.15 11.14L99.52 10.3L97.89 9.55L96.25 8.89L94.62 8.32L92.99 7.82L91.35 7.4L89.72 7.05L88.09 6.77L86.46 6.57L84.82 6.43L83.19 6.36L81.56 6.36L79.93 6.43L78.29 6.57L76.66 6.77L75.03 7.05L73.4 7.4L71.76 7.82L70.13 8.32L68.5 8.89L66.86 9.55L65.23 10.3L63.6 11.14L61.97 12.07L60.33 13.12L58.7 14.28L57.07 15.57L55.44 17.01L53.8 18.62L52.17 20.42L50.54 22.47L48.91 24.83L47.27 27.61L45.64 31.02L44.01 35.6L42.37 45.49L42.37 45.49L122.38 45.49L122.38 45.49L120.74 35.6Z" id="a32cOSL1x"></path><path d="M120.74 35.6L119.11 31.02L117.48 27.61L115.84 24.83L114.21 22.47L112.58 20.42L110.95 18.62L109.31 17.01L107.68 15.57L106.05 14.28L104.42 13.12L102.78 12.07L101.15 11.14L99.52 10.3L97.89 9.55L96.25 8.89L94.62 8.32L92.99 7.82L91.35 7.4L89.72 7.05L88.09 6.77L86.46 6.57L84.82 6.43L83.19 6.36L81.56 6.36L79.93 6.43L78.29 6.57L76.66 6.77L75.03 7.05L73.4 7.4L71.76 7.82L70.13 8.32L68.5 8.89L66.86 9.55L65.23 10.3L63.6 11.14L61.97 12.07L60.33 13.12L58.7 14.28L57.07 15.57L55.44 17.01L53.8 18.62L52.17 20.42L50.54 22.47L48.91 24.83L47.27 27.61L45.64 31.02L44.01 35.6L42.37 45.49L42.37 45.49L122.38 45.49L122.38 45.49L120.74 35.6Z" id="a2zIVOvSff"></path><path d="M161.08 69.98C161.08 71.38 161.08 68.58 161.08 69.98C161.08 73.84 157.95 76.97 154.09 76.97C124 76.97 40.75 76.97 10.66 76.97C6.8 76.97 3.67 73.84 3.67 69.98C3.67 68.58 3.67 71.38 3.67 69.98C3.67 66.12 6.8 62.99 10.66 62.99C40.75 62.99 124 62.99 154.09 62.99C157.95 62.99 161.08 66.12 161.08 69.98Z" id="fx0sE8AJk"></path><path d="M161.08 69.98C161.08 71.38 161.08 68.58 161.08 69.98C161.08 73.84 157.95 76.97 154.09 76.97C124 76.97 40.75 76.97 10.66 76.97C6.8 76.97 3.67 73.84 3.67 69.98C3.67 68.58 3.67 71.38 3.67 69.98C3.67 66.12 6.8 62.99 10.66 62.99C40.75 62.99 124 62.99 154.09 62.99C157.95 62.99 161.08 66.12 161.08 69.98Z" id="bwiq3iYpH"></path><path d="M65.71 39.31C61.11 39.31 57.38 35.15 57.38 30.01C57.38 24.88 61.11 20.71 65.71 20.71C70.31 20.71 74.04 24.88 74.04 30.01C74.04 35.15 70.31 39.31 65.71 39.31Z" id="g9H8XqGhA"></path><path d="M65.71 39.31C61.11 39.31 57.38 35.15 57.38 30.01C57.38 24.88 61.11 20.71 65.71 20.71C70.31 20.71 74.04 24.88 74.04 30.01C74.04 35.15 70.31 39.31 65.71 39.31Z" id="b1sEZGgkWb"></path><path d="M99.04 39.31C94.44 39.31 90.71 35.15 90.71 30.01C90.71 24.88 94.44 20.71 99.04 20.71C103.64 20.71 107.37 24.88 107.37 30.01C107.37 35.15 103.64 39.31 99.04 39.31Z" id="ij42TpwuQ"></path><path d="M99.04 39.31C94.44 39.31 90.71 35.15 90.71 30.01C90.71 24.88 94.44 20.71 99.04 20.71C103.64 20.71 107.37 24.88 107.37 30.01C107.37 35.15 103.64 39.31 99.04 39.31Z" id="axlOQChP"></path><path d="M100.15 78.97L100.15 199.89L64.6 199.89L64.6 78.97L100.15 78.97Z" id="c2G07wKpiy"></path><path d="M100.15 78.97L100.15 199.89L64.6 199.89L64.6 78.97L100.15 78.97Z" id="dKV58BrNi"></path></defs><g><g><g><use xlink:href="#a32cOSL1x" opacity="1" fill="#060606" fill-opacity="1"></use><g><use xlink:href="#a32cOSL1x" opacity="1" fill-opacity="0" stroke="#000000" stroke-width="1" stroke-opacity="0"></use></g></g><g><use xlink:href="#a2zIVOvSff" opacity="1" fill="#000000" fill-opacity="0"></use><g><use xlink:href="#a2zIVOvSff" opacity="1" fill-opacity="0" stroke="#060606" stroke-width="5" stroke-opacity="1"></use></g></g><g><use xlink:href="#fx0sE8AJk" opacity="1" fill="#32b3c0" fill-opacity="1"></use><g><use xlink:href="#fx0sE8AJk" opacity="1" fill-opacity="0" stroke="#000000" stroke-width="1" stroke-opacity="0"></use></g></g><g><use xlink:href="#bwiq3iYpH" opacity="1" fill="#000000" fill-opacity="0"></use><g><use xlink:href="#bwiq3iYpH" opacity="1" fill-opacity="0" stroke="#32b3c0" stroke-width="1" stroke-opacity="1"></use></g></g><g><use xlink:href="#g9H8XqGhA" opacity="1" fill="#32b3c0" fill-opacity="1"></use><g><use xlink:href="#g9H8XqGhA" opacity="1" fill-opacity="0" stroke="#000000" stroke-width="1" stroke-opacity="0"></use></g></g><g><use xlink:href="#b1sEZGgkWb" opacity="1" fill="#000000" fill-opacity="0"></use><g><use xlink:href="#b1sEZGgkWb" opacity="1" fill-opacity="0" stroke="#32b3c0" stroke-width="1" stroke-opacity="1"></use></g></g><g><use xlink:href="#ij42TpwuQ" opacity="1" fill="#32b3c0" fill-opacity="1"></use><g><use xlink:href="#ij42TpwuQ" opacity="1" fill-opacity="0" stroke="#000000" stroke-width="1" stroke-opacity="0"></use></g></g><g><use xlink:href="#axlOQChP" opacity="1" fill="#000000" fill-opacity="0"></use><g><use xlink:href="#axlOQChP" opacity="1" fill-opacity="0" stroke="#32b3c0" stroke-width="1" stroke-opacity="1"></use></g></g><g><use xlink:href="#c2G07wKpiy" opacity="1" fill="#060606" fill-opacity="1"></use><g><use xlink:href="#c2G07wKpiy" opacity="1" fill-opacity="0" stroke="#000000" stroke-width="1" stroke-opacity="0"></use></g></g><g><use xlink:href="#dKV58BrNi" opacity="1" fill="#000000" fill-opacity="0"></use><g><use xlink:href="#dKV58BrNi" opacity="1" fill-opacity="0" stroke="#060606" stroke-width="1" stroke-opacity="1"></use></g></g></g></g></svg>