<?xml version="1.0" encoding="UTF-8" standalone="no"?>
<!DOCTYPE svg PUBLIC "-//W3C//DTD SVG 1.1//EN" "http://www.w3.org/Graphics/SVG/1.1/DTD/svg11.dtd">
<svg version="1.1" xmlns="http://www.w3.org/2000/svg" xmlns:xlink="http://www.w3.org/1999/xlink" preserveAspectRatio="xMidYMid meet" viewBox="0 0 320 330" width="320" height="330"><defs><path d="M304.89 162.36L88.65 162.36L88.65 320.47L304.89 320.47L304.89 162.36Z" id="a6IYmnCl3"></path><path d="M7.07 143.08L87.68 162.8L87.68 320.57L7.07 300.85L7.07 143.08Z" id="aSwDZ4IZ1"></path><path d="M90.1 85.77L90.1 85.77L89.84 83.88L89.56 82L89.26 80.14L88.93 78.29L88.58 76.45L88.21 74.62L87.81 72.81L87.38 71L86.93 69.21L86.46 67.43L85.97 65.66L85.46 63.91L84.92 62.16L84.36 60.42L83.77 58.7L83.17 56.99L82.54 55.29L81.9 53.6L81.22 51.92L80.53 50.25L79.82 48.6L79.08 46.95L78.32 45.32L77.54 43.69L76.74 42.08L75.92 40.47L75.08 38.88L74.21 37.3L73.33 35.73L72.42 34.17L71.49 32.62L70.53 31.09L69.56 29.56L68.56 28.05L67.54 26.54L66.5 25.05L65.44 23.57L64.36 22.1L63.25 20.64L62.12 19.2L60.96 17.76L59.78 16.34L58.58 14.92L57.36 13.53L56.11 12.14L54.83 10.76L53.54 9.4L52.21 8.05L50.87 6.71L50.87 6.71L266.7 6.71L266.7 6.71L268.05 8.05L269.37 9.4L270.67 10.77L271.94 12.14L273.19 13.53L274.41 14.93L275.61 16.34L276.79 17.76L277.94 19.2L279.07 20.64L280.18 22.11L281.26 23.57L282.32 25.06L283.36 26.55L284.38 28.05L285.38 29.57L286.35 31.09L287.3 32.63L288.23 34.18L289.14 35.74L290.02 37.31L290.89 38.89L291.73 40.48L292.55 42.08L293.35 43.69L294.13 45.32L294.88 46.95L295.62 48.6L296.33 50.26L297.02 51.93L297.69 53.6L298.34 55.29L298.96 56.99L299.56 58.71L300.15 60.43L300.7 62.16L301.24 63.91L301.75 65.67L302.24 67.43L302.71 69.21L303.16 71.01L303.58 72.81L303.98 74.62L304.35 76.45L304.7 78.29L305.03 80.14L305.33 82L305.61 83.88L305.86 85.77L305.86 85.77L305.86 164.83L90.1 164.83L90.1 85.77Z" id="bcSEvGdF3"></path><path d="M5.86 68.08L8.91 54.44L11.37 47.62L15.66 38.21L19.5 30.84L26.31 21.63L31.63 16.11L37.77 9.97L43.9 6.71L50.04 6.71L54.96 9.97L60.41 15.49L65.39 22.86L71.53 30.84L76.44 40.8L80.86 50.49L84.43 61.26L87.68 74.89L89.34 84.87L90.57 163.53L5.86 143.08L5.86 68.08Z" id="a2j90ges4t"></path><path d="M263.09 204.44L264.95 320.35L304.22 320.35L304.22 165.3L89.34 163.53L87.68 320.35L129.86 320.35L128.59 205.82L263.09 204.44Z" id="d2olCQTgy"></path><path d="M94.5 6.71L102.84 14.88L112.67 30.84L121.77 50.49L126.17 71.36L128.59 91.01L128.59 151.79L268 153.02L267.38 81.71L264.95 68.08L258.13 50.49L248.97 33.99L240.98 20.35L229.32 6.71L266.77 6.71L275.98 17.34L285.41 27.17L295.63 47.62L302.38 68.08L305.86 83.03L305.86 163.53L89.95 162.23L89.34 91.01L87.68 71.36L80.86 51.72L71.53 32.07L61.71 17.34L46.77 5.06L94.5 6.71Z" id="c4aMnI1eaL"></path><path d="M240.37 20.35L108.13 21.63" id="bcOZohNrt"></path><path d="M252.54 40.8L119.08 42.12" id="f1AUjVQKYP"></path><path d="M262.21 61.26L123.83 62.54" id="d7OpRg4uK"></path><path d="M267.41 83.78L126.57 85.07" id="a9OWmgdXG"></path><path d="M268.19 105.24L128.59 106.52" id="bbMhAEFYo"></path><path d="M268.19 128.16L128.59 129.44" id="a3WvlGvBdS"></path><path d="M174.93 163.53L176.77 196L179.02 207.66L185.84 215.03L193.96 218.08L204.4 218.08L215.45 213.8L221.59 209.51L224.04 200.91L222.81 163.53L180.45 163.53L174.93 163.53Z" id="f17hkAzrIf"></path><path d="M201.38 177.17C203.92 177.17 205.99 179.23 205.99 181.78C205.99 185.65 205.99 192.64 205.99 196.5C205.99 199.05 203.92 201.11 201.38 201.11C200.46 201.11 202.3 201.11 201.38 201.11C198.83 201.11 196.77 199.05 196.77 196.5C196.77 192.64 196.77 185.65 196.77 181.78C196.77 179.23 198.83 177.17 201.38 177.17C202.3 177.17 200.46 177.17 201.38 177.17Z" id="c1Cw7HyVxr"></path></defs><g><g><g><g><use xlink:href="#a6IYmnCl3" opacity="1" fill="#b97034" fill-opacity="1"></use><g><use xlink:href="#a6IYmnCl3" opacity="1" fill-opacity="0" stroke="#282727" stroke-width="3" stroke-opacity="1"></use></g></g><g><use xlink:href="#aSwDZ4IZ1" opacity="1" fill="#b97034" fill-opacity="1"></use><g><use xlink:href="#aSwDZ4IZ1" opacity="1" fill-opacity="0" stroke="#282727" stroke-width="3" stroke-opacity="1"></use></g></g><g><use xlink:href="#bcSEvGdF3" opacity="1" fill="#b97034" fill-opacity="1"></use><g><use xlink:href="#bcSEvGdF3" opacity="1" fill-opacity="0" stroke="#282727" stroke-width="3" stroke-opacity="1"></use></g></g><g><use xlink:href="#a2j90ges4t" opacity="1" fill="#b97034" fill-opacity="1"></use><g><use xlink:href="#a2j90ges4t" opacity="1" fill-opacity="0" stroke="#000000" stroke-width="3" stroke-opacity="1"></use></g></g><g><use xlink:href="#d2olCQTgy" opacity="1" fill="#945624" fill-opacity="1"></use><g><use xlink:href="#d2olCQTgy" opacity="1" fill-opacity="0" stroke="#000000" stroke-width="3" stroke-opacity="1"></use></g></g><g><use xlink:href="#c4aMnI1eaL" opacity="1" fill="#945624" fill-opacity="1"></use><g><use xlink:href="#c4aMnI1eaL" opacity="1" fill-opacity="0" stroke="#000000" stroke-width="3" stroke-opacity="1"></use></g></g><g><g><use xlink:href="#bcOZohNrt" opacity="1" fill-opacity="0" stroke="#000000" stroke-width="3" stroke-opacity="1"></use></g></g><g><g><use xlink:href="#f1AUjVQKYP" opacity="1" fill-opacity="0" stroke="#000000" stroke-width="3" stroke-opacity="1"></use></g></g><g><g><use xlink:href="#d7OpRg4uK" opacity="1" fill-opacity="0" stroke="#000000" stroke-width="3" stroke-opacity="1"></use></g></g><g><g><use xlink:href="#a9OWmgdXG" opacity="1" fill-opacity="0" stroke="#000000" stroke-width="3" stroke-opacity="1"></use></g></g><g><g><use xlink:href="#bbMhAEFYo" opacity="1" fill-opacity="0" stroke="#000000" stroke-width="3" stroke-opacity="1"></use></g></g><g><g><use xlink:href="#a3WvlGvBdS" opacity="1" fill-opacity="0" stroke="#000000" stroke-width="3" stroke-opacity="1"></use></g></g><g><use xlink:href="#f17hkAzrIf" opacity="1" fill="#824a1d" fill-opacity="1"></use><g><use xlink:href="#f17hkAzrIf" opacity="1" fill-opacity="0" stroke="#000000" stroke-width="3" stroke-opacity="1"></use></g></g><g><use xlink:href="#c1Cw7HyVxr" opacity="1" fill="#000000" fill-opacity="1"></use><g><use xlink:href="#c1Cw7HyVxr" opacity="1" fill-opacity="0" stroke="#000000" stroke-width="3" stroke-opacity="1"></use></g></g></g></g></g></svg>