<?xml version="1.0" encoding="UTF-8" standalone="no"?>
<svg
   xmlns:dc="http://purl.org/dc/elements/1.1/"
   xmlns:cc="http://creativecommons.org/ns#"
   xmlns:rdf="http://www.w3.org/1999/02/22-rdf-syntax-ns#"
   xmlns:svg="http://www.w3.org/2000/svg"
   xmlns="http://www.w3.org/2000/svg"
   viewBox="0 0 646.66669 630.66669"
   height="630.66669"
   width="646.66669"
   xml:space="preserve"
   id="svg2"
   version="1.1"><metadata
     id="metadata8"><rdf:RDF><cc:Work
         rdf:about=""><dc:format>image/svg+xml</dc:format><dc:type
           rdf:resource="http://purl.org/dc/dcmitype/StillImage" /></cc:Work></rdf:RDF></metadata><defs
     id="defs6"><clipPath
       id="clipPath20"
       clipPathUnits="userSpaceOnUse"><path
         id="path18"
         d="M 0,0 H 485 V 473 H 0 Z" /></clipPath></defs><g
     transform="matrix(1.3333333,0,0,-1.3333333,0,630.66667)"
     id="g10"><g
       id="g12" /><g
       id="g14"><g
         clip-path="url(#clipPath20)"
         id="g16"><path
           id="path22"
           style="fill:#ffffff;fill-opacity:1;fill-rule:nonzero;stroke:none"
           d="M 0,473 H 485 V 0 H 0 Z" /></g></g><g
       id="g24"><g
         transform="translate(258.6285,-266)"
         id="g26"><text
           id="text30"
           style="font-variant:normal;font-weight:normal;font-size:188px;font-family:AmericanTypewriter;-inkscape-font-specification:AmericanTypewriter;writing-mode:lr-tb;fill:#000000;fill-opacity:1;fill-rule:nonzero;stroke:none"
           transform="matrix(1,0,0,-1,0,473)"><tspan
             id="tspan28"
             y="0"
             x="0">#</tspan></text>
</g><path
         id="path32"
         style="fill:#ff0000;fill-opacity:1;fill-rule:nonzero;stroke:none"
         d="m 241,276.375 c 0,-43.1488 15.4241,-80.833 37.5,-91.6202 l -10e-5,6.2499 L 291,175.5 278.4999,166.0047 v 6.25 c -22.0759,10.7872 -37.5,48.4714 -37.5,91.6202 z" /><path
         id="path34"
         style="fill:#cd0000;fill-opacity:1;fill-rule:nonzero;stroke:none"
         d="m 291,358.5 c -26.3323,0 -48.1516,-38.6501 -49.8908,-88.375 -1.8239,52.1458 19.0344,97.2165 46.5883,100.6683 1.0993,0.1377 2.2008,0.2066 3.3025,0.2066 z" /><g
         transform="matrix(7.874016e-5,0,0,-7.874016e-5,241,371)"
         id="g36"><path
           id="path38"
           style="fill:none;stroke:#c00000;stroke-width:50800;stroke-linecap:butt;stroke-linejoin:miter;stroke-miterlimit:8;stroke-dasharray:none;stroke-opacity:1"
           d="m 0,1201737 c 0,547991 195885.9,1026580 476250.2,1163578 l -0.9,-79375 158750.7,196910 -158750.7,120591 v -79375 C 195884.9,2387068 -0.9389385,1908479 -0.9389385,1360488 L 0,1201737 C 0,538036.1 284299.2,0 635000,0 V 158750.2 C 300580.4,158750.2 23475.06,649605.9 1386.641,1281113" /></g><path
         id="path40"
         style="fill:#0070c0;fill-opacity:1;fill-rule:nonzero;stroke:none"
         d="m 389,272.625 c 0,43.1488 -15.4241,80.833 -37.5,91.6202 l 10e-5,-6.2499 L 339,373.5 l 12.5001,9.4953 v -6.25 c 22.0759,-10.7872 37.5,-48.4714 37.5,-91.6202 z" /><path
         id="path42"
         style="fill:#005a9a;fill-opacity:1;fill-rule:nonzero;stroke:none"
         d="m 339,190.5 c 26.3323,0 48.1516,38.6501 49.8908,88.375 1.8239,-52.1458 -19.0344,-97.2165 -46.5883,-100.6683 -1.0993,-0.1377 -2.2008,-0.2066 -3.3025,-0.2066 z" /><g
         transform="matrix(-7.874016e-5,0,0,7.874016e-5,389,178)"
         id="g44"><path
           id="path46"
           style="fill:none;stroke:#002060;stroke-width:50800;stroke-linecap:butt;stroke-linejoin:miter;stroke-miterlimit:8;stroke-dasharray:none;stroke-opacity:1"
           d="m 0,1201737 c 0,547991 195885.9,1026580 476250.2,1163578 l -0.9,-79375 158750.7,196910 -158750.7,120591 v -79375 C 195884.9,2387068 -0.9389385,1908479 -0.9389385,1360488 L 0,1201737 C 0,538036.1 284299.2,0 635000,0 V 158750.2 C 300580.4,158750.2 23475.06,649605.9 1386.641,1281113" /></g><g
         transform="translate(135.1458,-280)"
         id="g48"><text
           id="text52"
           style="font-variant:normal;font-weight:normal;font-size:225px;font-family:AmericanTypewriter;-inkscape-font-specification:AmericanTypewriter;writing-mode:lr-tb;fill:#000000;fill-opacity:1;fill-rule:nonzero;stroke:none"
           transform="matrix(1,0,0,-1,0,473)"><tspan
             id="tspan50"
             y="0"
             x="0">f</tspan></text>
</g></g></g></svg>