<?xml version="1.0" encoding="UTF-8" standalone="no"?>
<!DOCTYPE svg PUBLIC "-//W3C//DTD SVG 1.1//EN" "http://www.w3.org/Graphics/SVG/1.1/DTD/svg11.dtd">
<svg version="1.1" xmlns="http://www.w3.org/2000/svg" xmlns:xlink="http://www.w3.org/1999/xlink" preserveAspectRatio="xMidYMid meet" viewBox="0 0 1050 2000" width="1050" height="2000"><defs><path d="M512.97 1975.67L501.1 1974.84L489.37 1973.76L477.78 1972.45L466.32 1970.91L454.99 1969.14L443.79 1967.16L432.72 1964.96L421.76 1962.56L410.93 1959.95L400.21 1957.15L389.61 1954.14L379.12 1950.94L368.75 1947.55L358.48 1943.97L348.33 1940.21L338.28 1936.26L328.34 1932.12L318.51 1927.81L308.78 1923.31L299.16 1918.63L289.64 1913.78L280.22 1908.74L270.91 1903.53L261.7 1898.14L252.6 1892.58L243.6 1886.84L234.71 1880.91L225.92 1874.81L217.23 1868.53L208.65 1862.07L200.18 1855.43L191.82 1848.61L183.56 1841.59L175.41 1834.4L167.37 1827.01L159.45 1819.43L151.63 1811.66L143.94 1803.69L136.36 1795.52L128.9 1787.15L121.56 1778.57L114.35 1769.77L107.26 1760.76L100.3 1751.53L93.48 1742.06L86.8 1732.36L80.26 1722.42L73.86 1712.22L73.86 1712.22L73.86 1712.22L70.68 1704.75L67.63 1697.26L64.7 1689.77L61.89 1682.26L59.19 1674.75L56.61 1667.24L54.16 1659.71L51.81 1652.18L49.58 1644.63L47.46 1637.09L45.45 1629.53L43.55 1621.97L41.76 1614.39L40.08 1606.82L38.51 1599.23L37.05 1591.64L35.69 1584.04L34.45 1576.43L33.3 1568.82L32.27 1561.2L31.33 1553.57L30.51 1545.93L29.79 1538.29L29.17 1530.64L28.66 1522.99L28.25 1515.32L27.95 1507.65L27.75 1499.98L27.66 1492.29L27.68 1484.6L27.8 1476.9L28.02 1469.2L28.36 1461.48L28.8 1453.76L29.34 1446.04L30 1438.3L30.76 1430.56L31.64 1422.81L32.62 1415.06L33.72 1407.29L34.93 1399.52L36.25 1391.74L37.69 1383.96L39.24 1376.16L40.91 1368.36L42.7 1360.55L44.61 1352.73L46.64 1344.91L48.8 1337.07L48.8 1337.07L48.8 1337.07L50.2 1330.26L51.71 1323.53L53.32 1316.86L55.04 1310.26L56.85 1303.72L58.75 1297.25L60.76 1290.85L62.86 1284.5L65.05 1278.22L67.33 1272.01L69.71 1265.85L72.17 1259.75L74.73 1253.71L77.37 1247.73L80.1 1241.81L82.92 1235.95L85.82 1230.15L88.81 1224.4L91.88 1218.71L95.04 1213.08L98.29 1207.5L101.61 1201.98L105.03 1196.52L108.52 1191.11L112.1 1185.76L115.77 1180.47L119.52 1175.23L123.35 1170.05L127.27 1164.92L131.27 1159.85L135.35 1154.84L139.53 1149.89L143.78 1144.99L148.13 1140.15L152.56 1135.37L157.08 1130.64L161.68 1125.98L166.38 1121.38L171.17 1116.83L176.04 1112.35L181.01 1107.93L186.07 1103.57L191.23 1099.27L196.48 1095.04L201.83 1090.87L207.28 1086.77L212.83 1082.74L218.48 1078.78L224.24 1074.88L224.24 1074.88L236.77 1086.41L236.77 1086.41L242.54 1084.63L248.32 1082.87L254.1 1081.13L259.89 1079.42L265.68 1077.72L271.48 1076.04L277.28 1074.39L283.08 1072.76L288.89 1071.14L294.7 1069.55L300.52 1067.98L306.35 1066.43L312.17 1064.9L318.01 1063.39L323.84 1061.91L329.68 1060.44L335.53 1058.99L341.38 1057.57L347.24 1056.17L353.09 1054.78L358.96 1053.42L364.83 1052.08L370.7 1050.76L376.58 1049.46L382.46 1048.18L388.35 1046.92L394.24 1045.69L400.13 1044.47L406.03 1043.27L411.94 1042.1L417.85 1040.95L423.76 1039.81L429.68 1038.7L435.6 1037.61L441.53 1036.54L447.46 1035.49L453.4 1034.46L459.34 1033.45L465.28 1032.46L471.23 1031.5L477.19 1030.55L483.15 1029.63L489.11 1028.73L495.08 1027.84L501.05 1026.98L507.03 1026.14L513.01 1025.32L519 1024.52L524.99 1023.75L524.99 1023.75L524.99 1023.75L530.98 1024.52L536.97 1025.32L542.95 1026.14L548.93 1026.98L554.9 1027.84L560.87 1028.73L566.83 1029.63L572.79 1030.55L578.74 1031.5L584.69 1032.46L590.64 1033.45L596.58 1034.46L602.52 1035.49L608.45 1036.54L614.38 1037.61L620.3 1038.7L626.22 1039.81L632.13 1040.95L638.04 1042.1L643.94 1043.27L649.85 1044.47L655.74 1045.69L661.63 1046.92L667.52 1048.18L673.4 1049.46L679.28 1050.76L685.15 1052.08L691.02 1053.42L696.88 1054.78L702.74 1056.17L708.6 1057.57L714.45 1058.99L720.29 1060.44L726.13 1061.91L731.97 1063.39L737.8 1064.9L743.63 1066.43L749.45 1067.98L755.27 1069.55L761.09 1071.14L766.9 1072.76L772.7 1074.39L778.5 1076.04L784.3 1077.72L790.09 1079.42L795.88 1081.13L801.66 1082.87L807.44 1084.63L813.21 1086.41L813.21 1086.41L825.74 1074.88L825.74 1074.88L831.5 1078.78L837.15 1082.74L842.7 1086.77L848.15 1090.87L853.5 1095.04L858.75 1099.27L863.9 1103.57L868.97 1107.93L873.94 1112.35L878.81 1116.83L883.6 1121.38L888.29 1125.98L892.9 1130.64L897.42 1135.37L901.85 1140.15L906.19 1144.99L910.45 1149.89L914.62 1154.84L918.71 1159.85L922.71 1164.92L926.63 1170.05L930.46 1175.23L934.21 1180.47L937.87 1185.76L941.45 1191.11L944.95 1196.52L948.36 1201.98L951.69 1207.5L954.93 1213.08L958.09 1218.71L961.17 1224.4L964.16 1230.15L967.06 1235.95L969.88 1241.81L972.61 1247.73L975.25 1253.71L977.8 1259.75L980.27 1265.85L982.64 1272.01L984.93 1278.22L987.12 1284.5L989.22 1290.85L991.22 1297.25L993.13 1303.72L994.94 1310.26L996.65 1316.86L998.26 1323.53L999.77 1330.26L1001.18 1337.07L1001.18 1337.07L1001.18 1337.07L1003.33 1344.91L1005.37 1352.73L1007.28 1360.55L1009.07 1368.36L1010.74 1376.16L1012.29 1383.95L1013.73 1391.74L1015.06 1399.52L1016.27 1407.29L1017.36 1415.05L1018.35 1422.81L1019.23 1430.56L1019.99 1438.3L1020.65 1446.03L1021.2 1453.76L1021.64 1461.48L1021.97 1469.19L1022.2 1476.9L1022.32 1484.6L1022.34 1492.29L1022.25 1499.97L1022.05 1507.65L1021.75 1515.32L1021.35 1522.98L1020.84 1530.64L1020.22 1538.29L1019.5 1545.93L1018.68 1553.57L1017.75 1561.19L1016.71 1568.82L1015.57 1576.43L1014.32 1584.04L1012.96 1591.64L1011.5 1599.23L1009.93 1606.81L1008.25 1614.39L1006.47 1621.96L1004.57 1629.53L1002.56 1637.08L1000.45 1644.63L998.21 1652.18L995.87 1659.71L993.41 1667.24L990.84 1674.75L988.14 1682.26L985.33 1689.77L982.4 1697.26L979.35 1704.75L976.17 1712.23L976.17 1712.23L976.17 1712.23L969.77 1722.42L963.23 1732.36L956.55 1742.06L949.72 1751.53L942.77 1760.76L935.68 1769.78L928.46 1778.57L921.12 1787.15L913.66 1795.53L906.08 1803.7L898.38 1811.67L890.57 1819.44L882.64 1827.02L874.6 1834.4L866.45 1841.6L858.2 1848.61L849.83 1855.43L841.35 1862.08L832.77 1868.54L824.09 1874.82L815.3 1880.92L806.4 1886.84L797.4 1892.58L788.3 1898.15L779.09 1903.54L769.78 1908.75L760.36 1913.78L750.84 1918.63L741.22 1923.31L731.49 1927.81L721.65 1932.12L711.71 1936.26L701.66 1940.21L691.51 1943.98L681.24 1947.55L670.86 1950.95L660.38 1954.14L649.77 1957.15L639.06 1959.96L628.22 1962.56L617.27 1964.97L606.19 1967.16L594.99 1969.14L583.66 1970.91L572.2 1972.45L560.61 1973.76L548.88 1974.84L537.01 1975.67L524.99 1976.25L524.99 1976.25L524.99 1976.25L512.97 1975.67Z" id="a3N7qi5d"></path><path d="M512.97 1975.67L501.1 1974.84L489.37 1973.76L477.78 1972.45L466.32 1970.91L454.99 1969.14L443.79 1967.16L432.72 1964.96L421.76 1962.56L410.93 1959.95L400.21 1957.15L389.61 1954.14L379.12 1950.94L368.75 1947.55L358.48 1943.97L348.33 1940.21L338.28 1936.26L328.34 1932.12L318.51 1927.81L308.78 1923.31L299.16 1918.63L289.64 1913.78L280.22 1908.74L270.91 1903.53L261.7 1898.14L252.6 1892.58L243.6 1886.84L234.71 1880.91L225.92 1874.81L217.23 1868.53L208.65 1862.07L200.18 1855.43L191.82 1848.61L183.56 1841.59L175.41 1834.4L167.37 1827.01L159.45 1819.43L151.63 1811.66L143.94 1803.69L136.36 1795.52L128.9 1787.15L121.56 1778.57L114.35 1769.77L107.26 1760.76L100.3 1751.53L93.48 1742.06L86.8 1732.36L80.26 1722.42L73.86 1712.22L73.86 1712.22L73.86 1712.22L70.68 1704.75L67.63 1697.26L64.7 1689.77L61.89 1682.26L59.19 1674.75L56.61 1667.24L54.16 1659.71L51.81 1652.18L49.58 1644.63L47.46 1637.09L45.45 1629.53L43.55 1621.97L41.76 1614.39L40.08 1606.82L38.51 1599.23L37.05 1591.64L35.69 1584.04L34.45 1576.43L33.3 1568.82L32.27 1561.2L31.33 1553.57L30.51 1545.93L29.79 1538.29L29.17 1530.64L28.66 1522.99L28.25 1515.32L27.95 1507.65L27.75 1499.98L27.66 1492.29L27.68 1484.6L27.8 1476.9L28.02 1469.2L28.36 1461.48L28.8 1453.76L29.34 1446.04L30 1438.3L30.76 1430.56L31.64 1422.81L32.62 1415.06L33.72 1407.29L34.93 1399.52L36.25 1391.74L37.69 1383.96L39.24 1376.16L40.91 1368.36L42.7 1360.55L44.61 1352.73L46.64 1344.91L48.8 1337.07L48.8 1337.07L48.8 1337.07L50.2 1330.26L51.71 1323.53L53.32 1316.86L55.04 1310.26L56.85 1303.72L58.75 1297.25L60.76 1290.85L62.86 1284.5L65.05 1278.22L67.33 1272.01L69.71 1265.85L72.17 1259.75L74.73 1253.71L77.37 1247.73L80.1 1241.81L82.92 1235.95L85.82 1230.15L88.81 1224.4L91.88 1218.71L95.04 1213.08L98.29 1207.5L101.61 1201.98L105.03 1196.52L108.52 1191.11L112.1 1185.76L115.77 1180.47L119.52 1175.23L123.35 1170.05L127.27 1164.92L131.27 1159.85L135.35 1154.84L139.53 1149.89L143.78 1144.99L148.13 1140.15L152.56 1135.37L157.08 1130.64L161.68 1125.98L166.38 1121.38L171.17 1116.83L176.04 1112.35L181.01 1107.93L186.07 1103.57L191.23 1099.27L196.48 1095.04L201.83 1090.87L207.28 1086.77L212.83 1082.74L218.48 1078.78L224.24 1074.88L224.24 1074.88L236.77 1086.41L236.77 1086.41L242.54 1084.63L248.32 1082.87L254.1 1081.13L259.89 1079.42L265.68 1077.72L271.48 1076.04L277.28 1074.39L283.08 1072.76L288.89 1071.14L294.7 1069.55L300.52 1067.98L306.35 1066.43L312.17 1064.9L318.01 1063.39L323.84 1061.91L329.68 1060.44L335.53 1058.99L341.38 1057.57L347.24 1056.17L353.09 1054.78L358.96 1053.42L364.83 1052.08L370.7 1050.76L376.58 1049.46L382.46 1048.18L388.35 1046.92L394.24 1045.69L400.13 1044.47L406.03 1043.27L411.94 1042.1L417.85 1040.95L423.76 1039.81L429.68 1038.7L435.6 1037.61L441.53 1036.54L447.46 1035.49L453.4 1034.46L459.34 1033.45L465.28 1032.46L471.23 1031.5L477.19 1030.55L483.15 1029.63L489.11 1028.73L495.08 1027.84L501.05 1026.98L507.03 1026.14L513.01 1025.32L519 1024.52L524.99 1023.75L524.99 1023.75L524.99 1023.75L530.98 1024.52L536.97 1025.32L542.95 1026.14L548.93 1026.98L554.9 1027.84L560.87 1028.73L566.83 1029.63L572.79 1030.55L578.74 1031.5L584.69 1032.46L590.64 1033.45L596.58 1034.46L602.52 1035.49L608.45 1036.54L614.38 1037.61L620.3 1038.7L626.22 1039.81L632.13 1040.95L638.04 1042.1L643.94 1043.27L649.85 1044.47L655.74 1045.69L661.63 1046.92L667.52 1048.18L673.4 1049.46L679.28 1050.76L685.15 1052.08L691.02 1053.42L696.88 1054.78L702.74 1056.17L708.6 1057.57L714.45 1058.99L720.29 1060.44L726.13 1061.91L731.97 1063.39L737.8 1064.9L743.63 1066.43L749.45 1067.98L755.27 1069.55L761.09 1071.14L766.9 1072.76L772.7 1074.39L778.5 1076.04L784.3 1077.72L790.09 1079.42L795.88 1081.13L801.66 1082.87L807.44 1084.63L813.21 1086.41L813.21 1086.41L825.74 1074.88L825.74 1074.88L831.5 1078.78L837.15 1082.74L842.7 1086.77L848.15 1090.87L853.5 1095.04L858.75 1099.27L863.9 1103.57L868.97 1107.93L873.94 1112.35L878.81 1116.83L883.6 1121.38L888.29 1125.98L892.9 1130.64L897.42 1135.37L901.85 1140.15L906.19 1144.99L910.45 1149.89L914.62 1154.84L918.71 1159.85L922.71 1164.92L926.63 1170.05L930.46 1175.23L934.21 1180.47L937.87 1185.76L941.45 1191.11L944.95 1196.52L948.36 1201.98L951.69 1207.5L954.93 1213.08L958.09 1218.71L961.17 1224.4L964.16 1230.15L967.06 1235.95L969.88 1241.81L972.61 1247.73L975.25 1253.71L977.8 1259.75L980.27 1265.85L982.64 1272.01L984.93 1278.22L987.12 1284.5L989.22 1290.85L991.22 1297.25L993.13 1303.72L994.94 1310.26L996.65 1316.86L998.26 1323.53L999.77 1330.26L1001.18 1337.07L1001.18 1337.07L1001.18 1337.07L1003.33 1344.91L1005.37 1352.73L1007.28 1360.55L1009.07 1368.36L1010.74 1376.16L1012.29 1383.95L1013.73 1391.74L1015.06 1399.52L1016.27 1407.29L1017.36 1415.05L1018.35 1422.81L1019.23 1430.56L1019.99 1438.3L1020.65 1446.03L1021.2 1453.76L1021.64 1461.48L1021.97 1469.19L1022.2 1476.9L1022.32 1484.6L1022.34 1492.29L1022.25 1499.97L1022.05 1507.65L1021.75 1515.32L1021.35 1522.98L1020.84 1530.64L1020.22 1538.29L1019.5 1545.93L1018.68 1553.57L1017.75 1561.19L1016.71 1568.82L1015.57 1576.43L1014.32 1584.04L1012.96 1591.64L1011.5 1599.23L1009.93 1606.81L1008.25 1614.39L1006.47 1621.96L1004.57 1629.53L1002.56 1637.08L1000.45 1644.63L998.21 1652.18L995.87 1659.71L993.41 1667.24L990.84 1674.75L988.14 1682.26L985.33 1689.77L982.4 1697.26L979.35 1704.75L976.17 1712.23L976.17 1712.23L976.17 1712.23L969.77 1722.42L963.23 1732.36L956.55 1742.06L949.72 1751.53L942.77 1760.76L935.68 1769.78L928.46 1778.57L921.12 1787.15L913.66 1795.53L906.08 1803.7L898.38 1811.67L890.57 1819.44L882.64 1827.02L874.6 1834.4L866.45 1841.6L858.2 1848.61L849.83 1855.43L841.35 1862.08L832.77 1868.54L824.09 1874.82L815.3 1880.92L806.4 1886.84L797.4 1892.58L788.3 1898.15L779.09 1903.54L769.78 1908.75L760.36 1913.78L750.84 1918.63L741.22 1923.31L731.49 1927.81L721.65 1932.12L711.71 1936.26L701.66 1940.21L691.51 1943.98L681.24 1947.55L670.86 1950.95L660.38 1954.14L649.77 1957.15L639.06 1959.96L628.22 1962.56L617.27 1964.97L606.19 1967.16L594.99 1969.14L583.66 1970.91L572.2 1972.45L560.61 1973.76L548.88 1974.84L537.01 1975.67L524.99 1976.25L524.99 1976.25L524.99 1976.25L512.97 1975.67Z" id="dhMHVmezl"></path><path d="M673.41 1269.79L842.82 1200.16L724.22 1221.31L673.41 1269.79Z" id="flffdW76"></path><path d="M673.41 1269.79L842.82 1200.16L724.22 1221.31L673.41 1269.79Z" id="fcg4jF43B"></path><path d="M607.79 1871.31L616.99 1869.14L626.06 1866.8L634.99 1864.3L643.8 1861.64L652.48 1858.83L661.04 1855.86L669.48 1852.75L677.8 1849.49L686 1846.08L694.09 1842.54L702.08 1838.86L709.95 1835.04L717.71 1831.09L725.37 1827.01L732.91 1822.79L740.36 1818.45L747.7 1813.98L754.94 1809.38L762.07 1804.65L769.11 1799.79L776.04 1794.82L782.87 1789.71L789.6 1784.48L796.23 1779.13L802.76 1773.65L809.19 1768.04L815.51 1762.31L821.74 1756.46L827.86 1750.48L833.88 1744.37L839.8 1738.13L845.61 1731.77L851.32 1725.28L856.92 1718.65L862.42 1711.89L867.81 1705L873.08 1697.97L878.25 1690.81L883.3 1683.5L888.24 1676.05L893.06 1668.46L897.76 1660.72L902.34 1652.82L906.79 1644.77L911.12 1636.57L915.31 1628.19L919.37 1619.65L923.28 1610.94L923.28 1610.94L923.28 1610.94L921.09 1621.79L918.6 1632.27L915.83 1642.4L912.81 1652.22L909.54 1661.74L906.04 1670.97L902.33 1679.94L898.42 1688.65L894.3 1697.12L890 1705.36L885.52 1713.37L880.86 1721.17L876.04 1728.75L871.04 1736.13L865.89 1743.32L860.58 1750.31L855.12 1757.1L849.5 1763.71L843.74 1770.14L837.83 1776.38L831.77 1782.45L825.57 1788.33L819.23 1794.04L812.74 1799.57L806.11 1804.92L799.34 1810.1L792.43 1815.1L785.37 1819.93L778.17 1824.57L770.82 1829.04L763.32 1833.32L755.68 1837.42L747.89 1841.33L739.94 1845.05L731.83 1848.58L723.57 1851.9L715.13 1855.03L706.53 1857.94L697.76 1860.63L688.8 1863.11L679.65 1865.34L670.31 1867.34L660.76 1869.08L651 1870.56L641.01 1871.75L630.78 1872.64L620.28 1873.22L609.52 1873.45L598.45 1873.31L598.45 1873.31L598.45 1873.31L607.79 1871.31Z" id="a5bq6DNPTL"></path><path d="M607.79 1871.31L616.99 1869.14L626.06 1866.8L634.99 1864.3L643.8 1861.64L652.48 1858.83L661.04 1855.86L669.48 1852.75L677.8 1849.49L686 1846.08L694.09 1842.54L702.08 1838.86L709.95 1835.04L717.71 1831.09L725.37 1827.01L732.91 1822.79L740.36 1818.45L747.7 1813.98L754.94 1809.38L762.07 1804.65L769.11 1799.79L776.04 1794.82L782.87 1789.71L789.6 1784.48L796.23 1779.13L802.76 1773.65L809.19 1768.04L815.51 1762.31L821.74 1756.46L827.86 1750.48L833.88 1744.37L839.8 1738.13L845.61 1731.77L851.32 1725.28L856.92 1718.65L862.42 1711.89L867.81 1705L873.08 1697.97L878.25 1690.81L883.3 1683.5L888.24 1676.05L893.06 1668.46L897.76 1660.72L902.34 1652.82L906.79 1644.77L911.12 1636.57L915.31 1628.19L919.37 1619.65L923.28 1610.94L923.28 1610.94L923.28 1610.94L921.09 1621.79L918.6 1632.27L915.83 1642.4L912.81 1652.22L909.54 1661.74L906.04 1670.97L902.33 1679.94L898.42 1688.65L894.3 1697.12L890 1705.36L885.52 1713.37L880.86 1721.17L876.04 1728.75L871.04 1736.13L865.89 1743.32L860.58 1750.31L855.12 1757.1L849.5 1763.71L843.74 1770.14L837.83 1776.38L831.77 1782.45L825.57 1788.33L819.23 1794.04L812.74 1799.57L806.11 1804.92L799.34 1810.1L792.43 1815.1L785.37 1819.93L778.17 1824.57L770.82 1829.04L763.32 1833.32L755.68 1837.42L747.89 1841.33L739.94 1845.05L731.83 1848.58L723.57 1851.9L715.13 1855.03L706.53 1857.94L697.76 1860.63L688.8 1863.11L679.65 1865.34L670.31 1867.34L660.76 1869.08L651 1870.56L641.01 1871.75L630.78 1872.64L620.28 1873.22L609.52 1873.45L598.45 1873.31L598.45 1873.31L598.45 1873.31L607.79 1871.31Z" id="a1Uqe4a81j"></path><path d="M526.37 1536.88L527.75 1536.64L529.12 1536.43L530.49 1536.24L531.86 1536.07L533.22 1535.92L534.57 1535.8L535.92 1535.7L537.27 1535.62L538.61 1535.57L539.95 1535.54L541.28 1535.53L542.61 1535.54L543.93 1535.57L545.25 1535.62L546.57 1535.69L547.88 1535.79L549.19 1535.9L550.49 1536.04L551.79 1536.2L553.09 1536.37L554.38 1536.57L555.67 1536.79L556.95 1537.02L558.23 1537.28L559.5 1537.56L560.77 1537.86L562.04 1538.18L563.31 1538.52L564.56 1538.88L565.82 1539.25L567.07 1539.66L568.32 1540.08L569.56 1540.52L570.8 1540.98L572.03 1541.46L573.26 1541.97L574.49 1542.49L575.71 1543.04L576.93 1543.61L578.14 1544.21L579.35 1544.82L580.56 1545.46L581.75 1546.12L582.95 1546.8L584.14 1547.51L585.32 1548.24L586.51 1549L587.68 1549.78L587.68 1549.78L587.68 1549.78L594.13 1555.28L600.6 1560.44L607.08 1565.28L613.57 1569.83L620.07 1574.09L626.58 1578.09L633.09 1581.84L639.62 1585.35L646.16 1588.63L652.71 1591.68L659.26 1594.52L665.82 1597.15L672.39 1599.57L678.97 1601.81L685.56 1603.84L692.15 1605.69L698.75 1607.35L705.35 1608.84L711.97 1610.14L718.59 1611.26L725.21 1612.21L731.85 1612.99L738.49 1613.59L745.13 1614.02L751.79 1614.28L758.45 1614.36L765.11 1614.28L771.78 1614.02L778.46 1613.58L785.15 1612.97L791.84 1612.19L798.54 1611.22L805.25 1610.07L811.96 1608.74L818.68 1607.22L825.41 1605.5L832.15 1603.59L838.89 1601.48L845.64 1599.15L852.4 1596.62L859.17 1593.86L865.95 1590.86L872.73 1587.63L879.53 1584.15L886.34 1580.39L893.15 1576.36L899.98 1572.04L906.82 1567.39L913.67 1562.41L913.67 1562.41L913.67 1562.41L915.62 1558.74L917.5 1555.05L919.32 1551.36L921.06 1547.66L922.75 1543.95L924.37 1540.24L925.93 1536.51L927.42 1532.78L928.86 1529.04L930.23 1525.28L931.54 1521.53L932.8 1517.76L933.99 1513.99L935.13 1510.2L936.21 1506.41L937.23 1502.62L938.19 1498.81L939.1 1495L939.95 1491.18L940.74 1487.35L941.48 1483.51L942.16 1479.67L942.78 1475.82L943.35 1471.96L943.86 1468.09L944.32 1464.22L944.71 1460.34L945.06 1456.45L945.35 1452.55L945.58 1448.65L945.75 1444.74L945.87 1440.82L945.93 1436.89L945.93 1432.96L945.88 1429.02L945.76 1425.07L945.59 1421.11L945.36 1417.14L945.07 1413.17L944.72 1409.19L944.31 1405.2L943.84 1401.2L943.3 1397.19L942.71 1393.18L942.05 1389.15L941.32 1385.12L940.53 1381.08L939.67 1377.03L938.75 1372.97L938.75 1372.97L938.75 1372.97L938.29 1371.89L937.82 1370.81L937.34 1369.75L936.84 1368.71L936.32 1367.68L935.8 1366.67L935.26 1365.67L934.7 1364.68L934.13 1363.71L933.55 1362.75L932.96 1361.8L932.35 1360.86L931.73 1359.94L931.09 1359.03L930.45 1358.14L929.79 1357.25L929.12 1356.38L928.44 1355.52L927.74 1354.68L927.04 1353.84L926.32 1353.02L925.59 1352.21L924.84 1351.41L924.09 1350.63L923.32 1349.86L922.54 1349.09L921.75 1348.35L920.94 1347.61L920.13 1346.88L919.3 1346.17L918.46 1345.47L917.61 1344.78L916.74 1344.11L915.86 1343.45L914.97 1342.8L914.07 1342.16L913.16 1341.53L912.23 1340.92L911.29 1340.32L910.34 1339.74L909.37 1339.16L908.39 1338.6L907.39 1338.06L906.39 1337.53L905.37 1337.01L904.33 1336.51L903.28 1336.02L902.21 1335.54L901.13 1335.09L901.13 1335.09L524.99 1335.09L148.84 1335.09L148.84 1335.09L147.76 1335.54L146.7 1336.02L145.65 1336.51L144.61 1337.01L143.59 1337.53L142.58 1338.06L141.59 1338.6L140.61 1339.16L139.64 1339.74L138.69 1340.32L137.75 1340.92L136.82 1341.53L135.91 1342.16L135 1342.8L134.11 1343.45L133.24 1344.11L132.37 1344.78L131.52 1345.47L130.68 1346.17L129.85 1346.88L129.04 1347.61L128.23 1348.35L127.44 1349.09L126.66 1349.86L125.89 1350.63L125.14 1351.41L124.39 1352.21L123.66 1353.02L122.94 1353.84L122.24 1354.68L121.54 1355.52L120.86 1356.38L120.19 1357.25L119.53 1358.14L118.88 1359.03L118.25 1359.94L117.63 1360.86L117.02 1361.8L116.43 1362.75L115.85 1363.71L115.28 1364.68L114.72 1365.67L114.18 1366.67L113.65 1367.68L113.14 1368.71L112.64 1369.75L112.16 1370.81L111.69 1371.89L111.23 1372.97L111.23 1372.97L111.23 1372.97L110.31 1377.03L109.45 1381.08L108.66 1385.12L107.93 1389.15L107.27 1393.18L106.67 1397.19L106.14 1401.2L105.67 1405.2L105.26 1409.19L104.91 1413.17L104.62 1417.14L104.39 1421.11L104.22 1425.07L104.1 1429.02L104.05 1432.96L104.05 1436.89L104.11 1440.82L104.23 1444.74L104.4 1448.65L104.63 1452.55L104.92 1456.45L105.26 1460.34L105.66 1464.22L106.12 1468.09L106.63 1471.96L107.2 1475.82L107.82 1479.67L108.5 1483.51L109.24 1487.35L110.03 1491.18L110.88 1495L111.79 1498.81L112.75 1502.62L113.77 1506.41L114.85 1510.2L115.99 1513.99L117.18 1517.76L118.44 1521.53L119.75 1525.28L121.12 1529.04L122.56 1532.78L124.05 1536.51L125.61 1540.24L127.23 1543.95L128.91 1547.66L130.66 1551.36L132.48 1555.05L134.36 1558.74L136.31 1562.41L136.31 1562.41L136.31 1562.41L143.16 1567.39L150 1572.04L156.83 1576.36L163.64 1580.39L170.45 1584.15L177.25 1587.63L184.03 1590.86L190.81 1593.86L197.58 1596.62L204.34 1599.15L211.09 1601.48L217.83 1603.59L224.57 1605.5L231.3 1607.22L238.02 1608.74L244.73 1610.07L251.44 1611.22L258.14 1612.19L264.83 1612.97L271.52 1613.58L278.19 1614.02L284.87 1614.28L291.53 1614.36L298.19 1614.28L304.85 1614.02L311.49 1613.59L318.13 1612.99L324.76 1612.21L331.39 1611.26L338.01 1610.14L344.62 1608.84L351.23 1607.35L357.83 1605.69L364.42 1603.84L371.01 1601.81L377.58 1599.57L384.15 1597.15L390.72 1594.52L397.27 1591.68L403.82 1588.63L410.35 1585.35L416.88 1581.84L423.4 1578.09L429.91 1574.09L436.41 1569.83L442.9 1565.28L449.38 1560.44L455.85 1555.28L462.3 1549.78L462.3 1549.78L462.3 1549.78L463.47 1549L464.65 1548.24L465.84 1547.51L467.03 1546.8L468.22 1546.12L469.42 1545.46L470.63 1544.82L471.84 1544.21L473.05 1543.61L474.27 1543.04L475.49 1542.49L476.71 1541.97L477.94 1541.46L479.18 1540.98L480.42 1540.52L481.66 1540.08L482.91 1539.66L484.16 1539.25L485.41 1538.88L486.67 1538.52L487.94 1538.18L489.2 1537.86L490.48 1537.56L491.75 1537.28L493.03 1537.02L494.31 1536.79L495.6 1536.57L496.89 1536.37L498.19 1536.2L499.49 1536.04L500.79 1535.9L502.1 1535.79L503.41 1535.69L504.73 1535.62L506.05 1535.57L507.37 1535.54L508.7 1535.53L510.03 1535.54L511.37 1535.57L512.71 1535.62L514.06 1535.7L515.41 1535.8L516.76 1535.92L518.12 1536.07L519.48 1536.24L520.85 1536.43L522.23 1536.64L523.61 1536.88L524.99 1537.15L524.99 1537.15L524.99 1537.15L526.37 1536.88Z" id="arAp8yKzt"></path><path d="M526.37 1536.88L527.75 1536.64L529.12 1536.43L530.49 1536.24L531.86 1536.07L533.22 1535.92L534.57 1535.8L535.92 1535.7L537.27 1535.62L538.61 1535.57L539.95 1535.54L541.28 1535.53L542.61 1535.54L543.93 1535.57L545.25 1535.62L546.57 1535.69L547.88 1535.79L549.19 1535.9L550.49 1536.04L551.79 1536.2L553.09 1536.37L554.38 1536.57L555.67 1536.79L556.95 1537.02L558.23 1537.28L559.5 1537.56L560.77 1537.86L562.04 1538.18L563.31 1538.52L564.56 1538.88L565.82 1539.25L567.07 1539.66L568.32 1540.08L569.56 1540.52L570.8 1540.98L572.03 1541.46L573.26 1541.97L574.49 1542.49L575.71 1543.04L576.93 1543.61L578.14 1544.21L579.35 1544.82L580.56 1545.46L581.75 1546.12L582.95 1546.8L584.14 1547.51L585.32 1548.24L586.51 1549L587.68 1549.78L587.68 1549.78L587.68 1549.78L594.13 1555.28L600.6 1560.44L607.08 1565.28L613.57 1569.83L620.07 1574.09L626.58 1578.09L633.09 1581.84L639.62 1585.35L646.16 1588.63L652.71 1591.68L659.26 1594.52L665.82 1597.15L672.39 1599.57L678.97 1601.81L685.56 1603.84L692.15 1605.69L698.75 1607.35L705.35 1608.84L711.97 1610.14L718.59 1611.26L725.21 1612.21L731.85 1612.99L738.49 1613.59L745.13 1614.02L751.79 1614.28L758.45 1614.36L765.11 1614.28L771.78 1614.02L778.46 1613.58L785.15 1612.97L791.84 1612.19L798.54 1611.22L805.25 1610.07L811.96 1608.74L818.68 1607.22L825.41 1605.5L832.15 1603.59L838.89 1601.48L845.64 1599.15L852.4 1596.62L859.17 1593.86L865.95 1590.86L872.73 1587.63L879.53 1584.15L886.34 1580.39L893.15 1576.36L899.98 1572.04L906.82 1567.39L913.67 1562.41L913.67 1562.41L913.67 1562.41L915.62 1558.74L917.5 1555.05L919.32 1551.36L921.06 1547.66L922.75 1543.95L924.37 1540.24L925.93 1536.51L927.42 1532.78L928.86 1529.04L930.23 1525.28L931.54 1521.53L932.8 1517.76L933.99 1513.99L935.13 1510.2L936.21 1506.41L937.23 1502.62L938.19 1498.81L939.1 1495L939.95 1491.18L940.74 1487.35L941.48 1483.51L942.16 1479.67L942.78 1475.82L943.35 1471.96L943.86 1468.09L944.32 1464.22L944.71 1460.34L945.06 1456.45L945.35 1452.55L945.58 1448.65L945.75 1444.74L945.87 1440.82L945.93 1436.89L945.93 1432.96L945.88 1429.02L945.76 1425.07L945.59 1421.11L945.36 1417.14L945.07 1413.17L944.72 1409.19L944.31 1405.2L943.84 1401.2L943.3 1397.19L942.71 1393.18L942.05 1389.15L941.32 1385.12L940.53 1381.08L939.67 1377.03L938.75 1372.97L938.75 1372.97L938.75 1372.97L938.29 1371.89L937.82 1370.81L937.34 1369.75L936.84 1368.71L936.32 1367.68L935.8 1366.67L935.26 1365.67L934.7 1364.68L934.13 1363.71L933.55 1362.75L932.96 1361.8L932.35 1360.86L931.73 1359.94L931.09 1359.03L930.45 1358.14L929.79 1357.25L929.12 1356.38L928.44 1355.52L927.74 1354.68L927.04 1353.84L926.32 1353.02L925.59 1352.21L924.84 1351.41L924.09 1350.63L923.32 1349.86L922.54 1349.09L921.75 1348.35L920.94 1347.61L920.13 1346.88L919.3 1346.17L918.46 1345.47L917.61 1344.78L916.74 1344.11L915.86 1343.45L914.97 1342.8L914.07 1342.16L913.16 1341.53L912.23 1340.92L911.29 1340.32L910.34 1339.74L909.37 1339.16L908.39 1338.6L907.39 1338.06L906.39 1337.53L905.37 1337.01L904.33 1336.51L903.28 1336.02L902.21 1335.54L901.13 1335.09L901.13 1335.09L524.99 1335.09L148.84 1335.09L148.84 1335.09L147.76 1335.54L146.7 1336.02L145.65 1336.51L144.61 1337.01L143.59 1337.53L142.58 1338.06L141.59 1338.6L140.61 1339.16L139.64 1339.74L138.69 1340.32L137.75 1340.92L136.82 1341.53L135.91 1342.16L135 1342.8L134.11 1343.45L133.24 1344.11L132.37 1344.78L131.52 1345.47L130.68 1346.17L129.85 1346.88L129.04 1347.61L128.23 1348.35L127.44 1349.09L126.66 1349.86L125.89 1350.63L125.14 1351.41L124.39 1352.21L123.66 1353.02L122.94 1353.84L122.24 1354.68L121.54 1355.52L120.86 1356.38L120.19 1357.25L119.53 1358.14L118.88 1359.03L118.25 1359.94L117.63 1360.86L117.02 1361.8L116.43 1362.75L115.85 1363.71L115.28 1364.68L114.72 1365.67L114.18 1366.67L113.65 1367.68L113.14 1368.71L112.64 1369.75L112.16 1370.81L111.69 1371.89L111.23 1372.97L111.23 1372.97L111.23 1372.97L110.31 1377.03L109.45 1381.08L108.66 1385.12L107.93 1389.15L107.27 1393.18L106.67 1397.19L106.14 1401.2L105.67 1405.2L105.26 1409.19L104.91 1413.17L104.62 1417.14L104.39 1421.11L104.22 1425.07L104.1 1429.02L104.05 1432.96L104.05 1436.89L104.11 1440.82L104.23 1444.74L104.4 1448.65L104.63 1452.55L104.92 1456.45L105.26 1460.34L105.66 1464.22L106.12 1468.09L106.63 1471.96L107.2 1475.82L107.82 1479.67L108.5 1483.51L109.24 1487.35L110.03 1491.18L110.88 1495L111.79 1498.81L112.75 1502.62L113.77 1506.41L114.85 1510.2L115.99 1513.99L117.18 1517.76L118.44 1521.53L119.75 1525.28L121.12 1529.04L122.56 1532.78L124.05 1536.51L125.61 1540.24L127.23 1543.95L128.91 1547.66L130.66 1551.36L132.48 1555.05L134.36 1558.74L136.31 1562.41L136.31 1562.41L136.31 1562.41L143.16 1567.39L150 1572.04L156.83 1576.36L163.64 1580.39L170.45 1584.15L177.25 1587.63L184.03 1590.86L190.81 1593.86L197.58 1596.62L204.34 1599.15L211.09 1601.48L217.83 1603.59L224.57 1605.5L231.3 1607.22L238.02 1608.74L244.73 1610.07L251.44 1611.22L258.14 1612.19L264.83 1612.97L271.52 1613.58L278.19 1614.02L284.87 1614.28L291.53 1614.36L298.19 1614.28L304.85 1614.02L311.49 1613.59L318.13 1612.99L324.76 1612.21L331.39 1611.26L338.01 1610.14L344.62 1608.84L351.23 1607.35L357.83 1605.69L364.42 1603.84L371.01 1601.81L377.58 1599.57L384.15 1597.15L390.72 1594.52L397.27 1591.68L403.82 1588.63L410.35 1585.35L416.88 1581.84L423.4 1578.09L429.91 1574.09L436.41 1569.83L442.9 1565.28L449.38 1560.44L455.85 1555.28L462.3 1549.78L462.3 1549.78L462.3 1549.78L463.47 1549L464.65 1548.24L465.84 1547.51L467.03 1546.8L468.22 1546.12L469.42 1545.46L470.63 1544.82L471.84 1544.21L473.05 1543.61L474.27 1543.04L475.49 1542.49L476.71 1541.97L477.94 1541.46L479.18 1540.98L480.42 1540.52L481.66 1540.08L482.91 1539.66L484.16 1539.25L485.41 1538.88L486.67 1538.52L487.94 1538.18L489.2 1537.86L490.48 1537.56L491.75 1537.28L493.03 1537.02L494.31 1536.79L495.6 1536.57L496.89 1536.37L498.19 1536.2L499.49 1536.04L500.79 1535.9L502.1 1535.79L503.41 1535.69L504.73 1535.62L506.05 1535.57L507.37 1535.54L508.7 1535.53L510.03 1535.54L511.37 1535.57L512.71 1535.62L514.06 1535.7L515.41 1535.8L516.76 1535.92L518.12 1536.07L519.48 1536.24L520.85 1536.43L522.23 1536.64L523.61 1536.88L524.99 1537.15L524.99 1537.15L524.99 1537.15L526.37 1536.88Z" id="f6qW5TOEGj"></path><path d="M376.57 1269.79L207.15 1200.16L325.76 1221.31L376.57 1269.79Z" id="bSIs515m9"></path><path d="M376.57 1269.79L207.15 1200.16L325.76 1221.31L376.57 1269.79Z" id="d82AtPfhhT"></path><path d="M442.27 1868.37L433.15 1866.23L424.17 1863.91L415.32 1861.44L406.59 1858.81L397.99 1856.03L389.51 1853.09L381.15 1850.02L372.91 1846.79L364.78 1843.43L356.76 1839.93L348.85 1836.29L341.05 1832.51L333.36 1828.61L325.77 1824.57L318.29 1820.4L310.92 1816.11L303.64 1811.68L296.47 1807.13L289.4 1802.46L282.43 1797.66L275.56 1792.74L268.79 1787.69L262.13 1782.52L255.56 1777.23L249.09 1771.81L242.72 1766.27L236.45 1760.6L230.28 1754.82L224.22 1748.9L218.25 1742.86L212.39 1736.7L206.63 1730.41L200.97 1723.98L195.42 1717.43L189.97 1710.75L184.64 1703.94L179.41 1696.99L174.29 1689.91L169.28 1682.68L164.39 1675.32L159.61 1667.81L154.95 1660.15L150.42 1652.35L146.01 1644.39L141.72 1636.28L137.57 1628L133.55 1619.56L129.67 1610.94L129.67 1610.94L129.67 1610.94L131.84 1621.67L134.31 1632.03L137.05 1642.05L140.05 1651.75L143.28 1661.16L146.75 1670.29L150.43 1679.16L154.31 1687.77L158.38 1696.15L162.64 1704.29L167.08 1712.21L171.7 1719.92L176.48 1727.42L181.43 1734.72L186.53 1741.82L191.79 1748.73L197.21 1755.45L202.77 1761.99L208.48 1768.34L214.34 1774.51L220.34 1780.51L226.48 1786.33L232.77 1791.97L239.2 1797.44L245.77 1802.73L252.48 1807.85L259.33 1812.8L266.32 1817.57L273.46 1822.16L280.74 1826.57L288.16 1830.81L295.74 1834.86L303.46 1838.73L311.33 1842.41L319.37 1845.89L327.56 1849.18L335.91 1852.27L344.43 1855.15L353.13 1857.82L362.01 1860.26L371.07 1862.47L380.33 1864.45L389.79 1866.17L399.46 1867.62L409.36 1868.8L419.5 1869.69L429.89 1870.25L440.56 1870.48L451.53 1870.34L451.53 1870.34L451.53 1870.34L442.27 1868.37Z" id="aWVIIaCxA"></path><path d="M442.27 1868.37L433.15 1866.23L424.17 1863.91L415.32 1861.44L406.59 1858.81L397.99 1856.03L389.51 1853.09L381.15 1850.02L372.91 1846.79L364.78 1843.43L356.76 1839.93L348.85 1836.29L341.05 1832.51L333.36 1828.61L325.77 1824.57L318.29 1820.4L310.92 1816.11L303.64 1811.68L296.47 1807.13L289.4 1802.46L282.43 1797.66L275.56 1792.74L268.79 1787.69L262.13 1782.52L255.56 1777.23L249.09 1771.81L242.72 1766.27L236.45 1760.6L230.28 1754.82L224.22 1748.9L218.25 1742.86L212.39 1736.7L206.63 1730.41L200.97 1723.98L195.42 1717.43L189.97 1710.75L184.64 1703.94L179.41 1696.99L174.29 1689.91L169.28 1682.68L164.39 1675.32L159.61 1667.81L154.95 1660.15L150.42 1652.35L146.01 1644.39L141.72 1636.28L137.57 1628L133.55 1619.56L129.67 1610.94L129.67 1610.94L129.67 1610.94L131.84 1621.67L134.31 1632.03L137.05 1642.05L140.05 1651.75L143.28 1661.16L146.75 1670.29L150.43 1679.16L154.31 1687.77L158.38 1696.15L162.64 1704.29L167.08 1712.21L171.7 1719.92L176.48 1727.42L181.43 1734.72L186.53 1741.82L191.79 1748.73L197.21 1755.45L202.77 1761.99L208.48 1768.34L214.34 1774.51L220.34 1780.51L226.48 1786.33L232.77 1791.97L239.2 1797.44L245.77 1802.73L252.48 1807.85L259.33 1812.8L266.32 1817.57L273.46 1822.16L280.74 1826.57L288.16 1830.81L295.74 1834.86L303.46 1838.73L311.33 1842.41L319.37 1845.89L327.56 1849.18L335.91 1852.27L344.43 1855.15L353.13 1857.82L362.01 1860.26L371.07 1862.47L380.33 1864.45L389.79 1866.17L399.46 1867.62L409.36 1868.8L419.5 1869.69L429.89 1870.25L440.56 1870.48L451.53 1870.34L451.53 1870.34L451.53 1870.34L442.27 1868.37Z" id="aSyQiZBNG"></path><path d="M473.52 1848.32L524.99 1848.32L576.46 1848.32L576.46 1913.79L524.99 1913.79L473.52 1913.79L473.52 1848.32Z" id="c2xxaaBUG5"></path><path d="M473.52 1848.32L524.99 1848.32L576.46 1848.32L576.46 1913.79L524.99 1913.79L473.52 1913.79L473.52 1848.32Z" id="aJCKFwWA"></path><path d="M512.97 975.68L501.1 974.83L489.37 973.77L477.77 972.45L466.32 970.91L454.99 969.15L443.79 967.17L432.72 964.96L421.76 962.57L410.93 959.96L400.21 957.15L389.61 954.15L379.12 950.95L368.75 947.56L358.48 943.97L348.33 940.21L338.28 936.26L328.34 932.12L318.5 927.81L308.78 923.32L299.15 918.64L289.63 913.78L280.22 908.74L270.91 903.54L261.7 898.15L252.6 892.58L243.6 886.83L234.71 880.92L225.92 874.82L217.23 868.54L208.65 862.08L200.18 855.44L191.81 848.6L183.56 841.59L175.41 834.41L167.37 827.02L159.44 819.44L151.63 811.67L143.93 803.7L136.35 795.53L128.9 787.16L121.56 778.58L114.34 769.78L107.26 760.77L100.3 751.53L93.48 742.07L86.8 732.36L80.25 722.43L73.86 712.22L73.86 712.22L73.86 712.22L70.68 704.74L67.63 697.27L64.69 689.77L61.88 682.27L59.19 674.76L56.61 667.23L54.15 659.71L51.81 652.17L49.57 644.64L47.45 637.08L45.45 629.54L43.55 621.96L41.76 614.4L40.08 606.81L38.51 599.23L37.05 591.65L35.69 584.04L34.44 576.43L33.3 568.82L32.26 561.19L31.33 553.57L30.5 545.93L29.78 538.29L29.17 530.65L28.65 522.98L28.25 515.32L27.95 507.65L27.75 499.98L27.66 492.29L27.67 484.6L27.79 476.9L28.02 469.19L28.35 461.48L28.79 453.76L29.34 446.04L30 438.3L30.76 430.56L31.64 422.81L32.62 415.05L33.72 407.29L34.93 399.52L36.25 391.74L37.69 383.95L39.24 376.17L40.91 368.36L42.7 360.55L44.61 352.73L46.64 344.9L48.8 337.07L48.8 337.07L48.8 337.07L50.2 330.26L51.71 323.52L53.32 316.86L55.03 310.25L56.84 303.72L58.75 297.25L60.76 290.84L62.86 284.5L65.05 278.22L67.33 272L69.71 265.84L72.17 259.75L74.73 253.71L77.37 247.73L80.1 241.81L82.91 235.95L85.82 230.15L88.81 224.4L91.88 218.71L95.04 213.08L98.28 207.5L101.61 201.98L105.02 196.52L108.52 191.11L112.1 185.76L115.77 180.47L119.51 175.23L123.35 170.04L127.26 164.92L131.26 159.85L135.35 154.84L139.52 149.88L143.78 144.99L148.12 140.15L152.56 135.36L157.07 130.64L161.68 125.98L166.38 121.37L171.16 116.83L176.04 112.35L181.01 107.92L186.07 103.57L191.23 99.27L196.48 95.04L201.83 90.87L207.28 86.77L212.83 82.74L218.48 78.77L224.23 74.88L224.23 74.88L236.77 86.41L236.77 86.41L242.54 84.63L248.32 82.87L254.1 81.13L259.89 79.41L265.68 77.72L271.47 76.04L277.27 74.39L283.08 72.75L288.89 71.14L294.7 69.55L300.52 67.98L306.34 66.43L312.17 64.9L318 63.39L323.84 61.9L329.68 60.44L335.53 58.99L341.38 57.57L347.23 56.16L353.09 54.78L358.96 53.42L364.82 52.08L370.7 50.76L376.57 49.46L382.46 48.18L388.34 46.92L394.23 45.68L400.13 44.47L406.03 43.27L411.93 42.1L417.84 40.94L423.76 39.81L429.68 38.7L435.6 37.61L441.53 36.53L447.46 35.49L453.39 34.46L459.34 33.45L465.28 32.46L471.23 31.5L477.18 30.55L483.14 29.63L489.11 28.72L495.08 27.84L501.05 26.98L507.03 26.14L513.01 25.32L518.99 24.52L524.99 23.74L524.99 23.74L524.99 23.74L530.98 24.52L536.96 25.32L542.94 26.14L548.92 26.98L554.9 27.84L560.86 28.72L566.83 29.63L572.79 30.55L578.74 31.5L584.69 32.46L590.64 33.45L596.58 34.46L602.51 35.49L608.45 36.53L614.37 37.61L620.3 38.7L626.21 39.81L632.13 40.94L638.04 42.1L643.94 43.27L649.84 44.47L655.74 45.68L661.63 46.92L667.52 48.18L673.4 49.46L679.28 50.76L685.15 52.08L691.02 53.42L696.88 54.78L702.74 56.16L708.59 57.57L714.44 58.99L720.29 60.44L726.13 61.9L731.97 63.39L737.8 64.9L743.63 66.43L749.45 67.98L755.27 69.55L761.08 71.14L766.89 72.75L772.7 74.39L778.5 76.04L784.29 77.72L790.09 79.41L795.87 81.13L801.65 82.87L807.43 84.63L813.21 86.41L813.21 86.41L825.74 74.88L825.74 74.88L831.49 78.77L837.15 82.74L842.69 86.77L848.14 90.87L853.49 95.04L858.75 99.27L863.9 103.57L868.96 107.92L873.93 112.35L878.81 116.83L883.6 121.37L888.29 125.98L892.9 130.64L897.42 135.36L901.85 140.15L906.19 144.99L910.45 149.88L914.62 154.84L918.71 159.85L922.71 164.92L926.62 170.04L930.46 175.23L934.21 180.47L937.87 185.76L941.45 191.11L944.95 196.52L948.36 201.98L951.69 207.5L954.93 213.08L958.09 218.71L961.16 224.4L964.15 230.15L967.06 235.95L969.87 241.81L972.6 247.73L975.25 253.71L977.8 259.75L980.27 265.84L982.64 272L984.92 278.22L987.12 284.5L989.21 290.84L991.22 297.25L993.13 303.72L994.94 310.25L996.65 316.86L998.26 323.52L999.77 330.26L1001.18 337.07L1001.18 337.07L1001.18 337.07L1003.33 344.9L1005.36 352.73L1007.27 360.55L1009.07 368.36L1010.74 376.17L1012.29 383.95L1013.73 391.74L1015.05 399.52L1016.26 407.29L1017.36 415.05L1018.35 422.81L1019.22 430.56L1019.99 438.3L1020.65 446.04L1021.2 453.76L1021.64 461.48L1021.97 469.19L1022.2 476.9L1022.32 484.59L1022.34 492.29L1022.25 499.98L1022.05 507.65L1021.75 515.32L1021.34 522.98L1020.83 530.65L1020.22 538.29L1019.5 545.93L1018.67 553.56L1017.74 561.19L1016.71 568.81L1015.56 576.43L1014.32 584.04L1012.96 591.64L1011.5 599.23L1009.93 606.81L1008.25 614.4L1006.46 621.96L1004.57 629.54L1002.56 637.08L1000.44 644.64L998.21 652.17L995.87 659.71L993.41 667.23L990.83 674.76L988.14 682.27L985.33 689.78L982.4 697.27L979.34 704.76L976.17 712.23L976.17 712.23L976.17 712.23L969.77 722.43L963.23 732.36L956.54 742.07L949.72 751.54L942.76 760.77L935.68 769.78L928.46 778.58L921.12 787.16L913.66 795.54L906.08 803.7L898.38 811.67L890.57 819.44L882.64 827.02L874.6 834.41L866.45 841.6L858.19 848.61L849.83 855.44L841.35 862.08L832.77 868.54L824.09 874.82L815.29 880.92L806.4 886.84L797.4 892.58L788.29 898.16L779.09 903.54L769.78 908.74L760.36 913.79L750.84 918.64L741.22 923.32L731.49 927.82L721.65 932.12L711.71 936.27L701.66 940.21L691.5 943.97L681.24 947.56L670.86 950.95L660.37 954.15L649.77 957.16L639.05 959.96L628.22 962.57L617.26 964.96L606.19 967.17L594.99 969.15L583.66 970.91L572.2 972.46L560.61 973.77L548.88 974.83L537 975.68L524.99 976.26L524.99 976.26L524.99 976.26L512.97 975.68Z" id="a3RF5VEa9f"></path><path d="M512.97 975.68L501.1 974.83L489.37 973.77L477.77 972.45L466.32 970.91L454.99 969.15L443.79 967.17L432.72 964.96L421.76 962.57L410.93 959.96L400.21 957.15L389.61 954.15L379.12 950.95L368.75 947.56L358.48 943.97L348.33 940.21L338.28 936.26L328.34 932.12L318.5 927.81L308.78 923.32L299.15 918.64L289.63 913.78L280.22 908.74L270.91 903.54L261.7 898.15L252.6 892.58L243.6 886.83L234.71 880.92L225.92 874.82L217.23 868.54L208.65 862.08L200.18 855.44L191.81 848.6L183.56 841.59L175.41 834.41L167.37 827.02L159.44 819.44L151.63 811.67L143.93 803.7L136.35 795.53L128.9 787.16L121.56 778.58L114.34 769.78L107.26 760.77L100.3 751.53L93.48 742.07L86.8 732.36L80.25 722.43L73.86 712.22L73.86 712.22L73.86 712.22L70.68 704.74L67.63 697.27L64.69 689.77L61.88 682.27L59.19 674.76L56.61 667.23L54.15 659.71L51.81 652.17L49.57 644.64L47.45 637.08L45.45 629.54L43.55 621.96L41.76 614.4L40.08 606.81L38.51 599.23L37.05 591.65L35.69 584.04L34.44 576.43L33.3 568.82L32.26 561.19L31.33 553.57L30.5 545.93L29.78 538.29L29.17 530.65L28.65 522.98L28.25 515.32L27.95 507.65L27.75 499.98L27.66 492.29L27.67 484.6L27.79 476.9L28.02 469.19L28.35 461.48L28.79 453.76L29.34 446.04L30 438.3L30.76 430.56L31.64 422.81L32.62 415.05L33.72 407.29L34.93 399.52L36.25 391.74L37.69 383.95L39.24 376.17L40.91 368.36L42.7 360.55L44.61 352.73L46.64 344.9L48.8 337.07L48.8 337.07L48.8 337.07L50.2 330.26L51.71 323.52L53.32 316.86L55.03 310.25L56.84 303.72L58.75 297.25L60.76 290.84L62.86 284.5L65.05 278.22L67.33 272L69.71 265.84L72.17 259.75L74.73 253.71L77.37 247.73L80.1 241.81L82.91 235.95L85.82 230.15L88.81 224.4L91.88 218.71L95.04 213.08L98.28 207.5L101.61 201.98L105.02 196.52L108.52 191.11L112.1 185.76L115.77 180.47L119.51 175.23L123.35 170.04L127.26 164.92L131.26 159.85L135.35 154.84L139.52 149.88L143.78 144.99L148.12 140.15L152.56 135.36L157.07 130.64L161.68 125.98L166.38 121.37L171.16 116.83L176.04 112.35L181.01 107.92L186.07 103.57L191.23 99.27L196.48 95.04L201.83 90.87L207.28 86.77L212.83 82.74L218.48 78.77L224.23 74.88L224.23 74.88L236.77 86.41L236.77 86.41L242.54 84.63L248.32 82.87L254.1 81.13L259.89 79.41L265.68 77.72L271.47 76.04L277.27 74.39L283.08 72.75L288.89 71.14L294.7 69.55L300.52 67.98L306.34 66.43L312.17 64.9L318 63.39L323.84 61.9L329.68 60.44L335.53 58.99L341.38 57.57L347.23 56.16L353.09 54.78L358.96 53.42L364.82 52.08L370.7 50.76L376.57 49.46L382.46 48.18L388.34 46.92L394.23 45.68L400.13 44.47L406.03 43.27L411.93 42.1L417.84 40.94L423.76 39.81L429.68 38.7L435.6 37.61L441.53 36.53L447.46 35.49L453.39 34.46L459.34 33.45L465.28 32.46L471.23 31.5L477.18 30.55L483.14 29.63L489.11 28.72L495.08 27.84L501.05 26.98L507.03 26.14L513.01 25.32L518.99 24.52L524.99 23.74L524.99 23.74L524.99 23.74L530.98 24.52L536.96 25.32L542.94 26.14L548.92 26.98L554.9 27.84L560.86 28.72L566.83 29.63L572.79 30.55L578.74 31.5L584.69 32.46L590.64 33.45L596.58 34.46L602.51 35.49L608.45 36.53L614.37 37.61L620.3 38.7L626.21 39.81L632.13 40.94L638.04 42.1L643.94 43.27L649.84 44.47L655.74 45.68L661.63 46.92L667.52 48.18L673.4 49.46L679.28 50.76L685.15 52.08L691.02 53.42L696.88 54.78L702.74 56.16L708.59 57.57L714.44 58.99L720.29 60.44L726.13 61.9L731.97 63.39L737.8 64.9L743.63 66.43L749.45 67.98L755.27 69.55L761.08 71.14L766.89 72.75L772.7 74.39L778.5 76.04L784.29 77.72L790.09 79.41L795.87 81.13L801.65 82.87L807.43 84.63L813.21 86.41L813.21 86.41L825.74 74.88L825.74 74.88L831.49 78.77L837.15 82.74L842.69 86.77L848.14 90.87L853.49 95.04L858.75 99.27L863.9 103.57L868.96 107.92L873.93 112.35L878.81 116.83L883.6 121.37L888.29 125.98L892.9 130.64L897.42 135.36L901.85 140.15L906.19 144.99L910.45 149.88L914.62 154.84L918.71 159.85L922.71 164.92L926.62 170.04L930.46 175.23L934.21 180.47L937.87 185.76L941.45 191.11L944.95 196.52L948.36 201.98L951.69 207.5L954.93 213.08L958.09 218.71L961.16 224.4L964.15 230.15L967.06 235.95L969.87 241.81L972.6 247.73L975.25 253.71L977.8 259.75L980.27 265.84L982.64 272L984.92 278.22L987.12 284.5L989.21 290.84L991.22 297.25L993.13 303.72L994.94 310.25L996.65 316.86L998.26 323.52L999.77 330.26L1001.18 337.07L1001.18 337.07L1001.18 337.07L1003.33 344.9L1005.36 352.73L1007.27 360.55L1009.07 368.36L1010.74 376.17L1012.29 383.95L1013.73 391.74L1015.05 399.52L1016.26 407.29L1017.36 415.05L1018.35 422.81L1019.22 430.56L1019.99 438.3L1020.65 446.04L1021.2 453.76L1021.64 461.48L1021.97 469.19L1022.2 476.9L1022.32 484.59L1022.34 492.29L1022.25 499.98L1022.05 507.65L1021.75 515.32L1021.34 522.98L1020.83 530.65L1020.22 538.29L1019.5 545.93L1018.67 553.56L1017.74 561.19L1016.71 568.81L1015.56 576.43L1014.32 584.04L1012.96 591.64L1011.5 599.23L1009.93 606.81L1008.25 614.4L1006.46 621.96L1004.57 629.54L1002.56 637.08L1000.44 644.64L998.21 652.17L995.87 659.71L993.41 667.23L990.83 674.76L988.14 682.27L985.33 689.78L982.4 697.27L979.34 704.76L976.17 712.23L976.17 712.23L976.17 712.23L969.77 722.43L963.23 732.36L956.54 742.07L949.72 751.54L942.76 760.77L935.68 769.78L928.46 778.58L921.12 787.16L913.66 795.54L906.08 803.7L898.38 811.67L890.57 819.44L882.64 827.02L874.6 834.41L866.45 841.6L858.19 848.61L849.83 855.44L841.35 862.08L832.77 868.54L824.09 874.82L815.29 880.92L806.4 886.84L797.4 892.58L788.29 898.16L779.09 903.54L769.78 908.74L760.36 913.79L750.84 918.64L741.22 923.32L731.49 927.82L721.65 932.12L711.71 936.27L701.66 940.21L691.5 943.97L681.24 947.56L670.86 950.95L660.37 954.15L649.77 957.16L639.05 959.96L628.22 962.57L617.26 964.96L606.19 967.17L594.99 969.15L583.66 970.91L572.2 972.46L560.61 973.77L548.88 974.83L537 975.68L524.99 976.26L524.99 976.26L524.99 976.26L512.97 975.68Z" id="f17vghgJLX"></path><path d="M673.41 269.78L842.82 200.15L724.22 221.31L673.41 269.78Z" id="b3Th6rCx"></path><path d="M673.41 269.78L842.82 200.15L724.22 221.31L673.41 269.78Z" id="i9zERzdyQ"></path><path d="M607.79 871.32L616.99 869.15L626.06 866.81L634.99 864.31L643.8 861.65L652.48 858.83L661.03 855.86L669.47 852.74L677.79 849.48L686 846.08L694.09 842.55L702.07 838.86L709.94 835.05L717.71 831.09L725.36 827.02L732.91 822.8L740.36 818.46L747.7 813.97L754.94 809.37L762.07 804.66L769.1 799.8L776.04 794.82L782.87 789.71L789.6 784.48L796.23 779.12L802.76 773.65L809.18 768.05L815.51 762.32L821.73 756.46L827.86 750.48L833.88 744.37L839.79 738.14L845.61 731.78L851.32 725.28L856.92 718.66L862.42 711.9L867.8 705.01L873.08 697.97L878.25 690.81L883.3 683.51L888.24 676.06L893.06 668.46L897.76 660.71L902.34 652.82L906.79 644.78L911.11 636.56L915.31 628.19L919.36 619.66L923.28 610.94L923.28 610.94L923.28 610.94L921.09 621.79L918.6 632.28L915.83 642.41L912.8 652.22L909.54 661.73L906.04 670.97L902.33 679.95L898.41 688.66L894.3 697.12L890 705.36L885.52 713.37L880.86 721.17L876.03 728.76L871.04 736.14L865.89 743.33L860.58 750.31L855.12 757.1L849.5 763.71L843.74 770.15L837.83 776.39L831.77 782.45L825.57 788.33L819.22 794.05L812.74 799.58L806.11 804.93L799.34 810.1L792.42 815.1L785.36 819.93L778.16 824.58L770.82 829.04L763.32 833.33L755.68 837.43L747.88 841.33L739.93 845.06L731.83 848.58L723.56 851.91L715.13 855.03L706.53 857.95L697.75 860.64L688.79 863.1L679.65 865.34L670.31 867.34L660.76 869.08L651 870.56L641 871.76L630.77 872.65L620.28 873.21L609.51 873.45L598.45 873.31L598.45 873.31L598.45 873.31L607.79 871.32Z" id="c4vO62sfVG"></path><path d="M607.79 871.32L616.99 869.15L626.06 866.81L634.99 864.31L643.8 861.65L652.48 858.83L661.03 855.86L669.47 852.74L677.79 849.48L686 846.08L694.09 842.55L702.07 838.86L709.94 835.05L717.71 831.09L725.36 827.02L732.91 822.8L740.36 818.46L747.7 813.97L754.94 809.37L762.07 804.66L769.1 799.8L776.04 794.82L782.87 789.71L789.6 784.48L796.23 779.12L802.76 773.65L809.18 768.05L815.51 762.32L821.73 756.46L827.86 750.48L833.88 744.37L839.79 738.14L845.61 731.78L851.32 725.28L856.92 718.66L862.42 711.9L867.8 705.01L873.08 697.97L878.25 690.81L883.3 683.51L888.24 676.06L893.06 668.46L897.76 660.71L902.34 652.82L906.79 644.78L911.11 636.56L915.31 628.19L919.36 619.66L923.28 610.94L923.28 610.94L923.28 610.94L921.09 621.79L918.6 632.28L915.83 642.41L912.8 652.22L909.54 661.73L906.04 670.97L902.33 679.95L898.41 688.66L894.3 697.12L890 705.36L885.52 713.37L880.86 721.17L876.03 728.76L871.04 736.14L865.89 743.33L860.58 750.31L855.12 757.1L849.5 763.71L843.74 770.15L837.83 776.39L831.77 782.45L825.57 788.33L819.22 794.05L812.74 799.58L806.11 804.93L799.34 810.1L792.42 815.1L785.36 819.93L778.16 824.58L770.82 829.04L763.32 833.33L755.68 837.43L747.88 841.33L739.93 845.06L731.83 848.58L723.56 851.91L715.13 855.03L706.53 857.95L697.75 860.64L688.79 863.1L679.65 865.34L670.31 867.34L660.76 869.08L651 870.56L641 871.76L630.77 872.65L620.28 873.21L609.51 873.45L598.45 873.31L598.45 873.31L598.45 873.31L607.79 871.32Z" id="c3d7NMenb4"></path><path d="M526.37 536.89L527.75 536.65L529.12 536.42L530.49 536.23L531.85 536.06L533.21 535.92L534.57 535.8L535.92 535.7L537.26 535.62L538.61 535.57L539.94 535.54L541.28 535.53L542.61 535.54L543.93 535.57L545.25 535.62L546.56 535.69L547.88 535.79L549.18 535.91L550.49 536.04L551.79 536.19L553.08 536.37L554.37 536.57L555.66 536.79L556.95 537.03L558.22 537.29L559.5 537.56L560.77 537.86L562.04 538.17L563.3 538.52L564.56 538.87L565.82 539.26L567.07 539.66L568.31 540.07L569.56 540.53L570.8 540.98L572.03 541.46L573.26 541.97L574.49 542.49L575.71 543.04L576.93 543.61L578.14 544.2L579.35 544.82L580.55 545.45L581.75 546.12L582.95 546.8L584.14 547.52L585.32 548.24L586.5 549.01L587.68 549.79L587.68 549.79L587.68 549.79L594.13 555.29L600.6 560.44L607.07 565.29L613.56 569.82L620.06 574.09L626.57 578.09L633.09 581.84L639.62 585.35L646.16 588.62L652.7 591.68L659.26 594.53L665.82 597.16L672.39 599.57L678.97 601.8L685.55 603.84L692.15 605.69L698.75 607.35L705.35 608.83L711.97 610.15L718.58 611.27L725.21 612.21L731.84 612.98L738.48 613.59L745.13 614.03L751.78 614.29L758.44 614.36L765.11 614.28L771.78 614.02L778.46 613.58L785.15 612.97L791.84 612.18L798.54 611.22L805.25 610.07L811.96 608.74L818.68 607.21L825.41 605.51L832.14 603.59L838.89 601.47L845.64 599.16L852.4 596.61L859.17 593.85L865.94 590.86L872.73 587.64L879.53 584.15L886.33 580.4L893.15 576.36L899.98 572.04L906.82 567.4L913.67 562.42L913.67 562.42L913.67 562.42L915.62 558.73L917.5 555.05L919.31 551.36L921.06 547.67L922.75 543.95L924.37 540.23L925.92 536.52L927.42 532.79L928.85 529.04L930.23 525.29L931.54 521.53L932.79 517.77L933.99 513.98L935.13 510.2L936.2 506.42L937.22 502.61L938.19 498.81L939.09 495L939.94 491.18L940.74 487.35L941.47 483.51L942.15 479.67L942.78 475.82L943.35 471.96L943.86 468.09L944.31 464.23L944.71 460.34L945.06 456.45L945.34 452.55L945.57 448.65L945.75 444.74L945.86 440.82L945.92 436.89L945.93 432.96L945.87 429.01L945.76 425.06L945.59 421.11L945.36 417.14L945.07 413.17L944.72 409.19L944.31 405.2L943.83 401.2L943.3 397.19L942.7 393.18L942.04 389.15L941.32 385.12L940.53 381.08L939.67 377.04L938.75 372.98L938.75 372.98L938.75 372.98L938.29 371.88L937.82 370.81L937.34 369.75L936.84 368.71L936.32 367.68L935.79 366.67L935.25 365.67L934.7 364.68L934.13 363.7L933.55 362.74L932.95 361.8L932.34 360.86L931.73 359.94L931.09 359.04L930.45 358.13L929.79 357.25L929.12 356.38L928.43 355.52L927.74 354.67L927.03 353.84L926.31 353.02L925.58 352.21L924.84 351.42L924.08 350.63L923.32 349.85L922.54 349.09L921.74 348.34L920.94 347.61L920.12 346.88L919.3 346.17L918.46 345.48L917.6 344.79L916.74 344.11L915.86 343.44L914.97 342.79L914.07 342.17L913.15 341.54L912.23 340.92L911.29 340.32L910.33 339.73L909.37 339.17L908.39 338.6L907.39 338.06L906.38 337.52L905.36 337.01L904.33 336.5L903.28 336.02L902.21 335.54L901.13 335.08L901.13 335.08L524.99 335.08L148.84 335.08L148.84 335.08L147.76 335.54L146.7 336.02L145.65 336.5L144.61 337.01L143.59 337.52L142.58 338.06L141.59 338.6L140.61 339.17L139.64 339.73L138.69 340.32L137.75 340.92L136.82 341.54L135.9 342.17L135 342.79L134.11 343.44L133.23 344.11L132.37 344.79L131.52 345.48L130.68 346.17L129.85 346.88L129.03 347.61L128.23 348.34L127.44 349.09L126.66 349.85L125.89 350.63L125.13 351.42L124.39 352.21L123.66 353.02L122.94 353.84L122.23 354.67L121.54 355.52L120.86 356.38L120.19 357.25L119.53 358.13L118.88 359.04L118.25 359.94L117.63 360.86L117.02 361.8L116.43 362.74L115.84 363.7L115.28 364.68L114.72 365.67L114.18 366.67L113.65 367.68L113.14 368.71L112.64 369.75L112.15 370.81L111.68 371.88L111.23 372.98L111.23 372.98L111.23 372.98L110.3 377.04L109.44 381.08L108.65 385.12L107.93 389.15L107.27 393.18L106.67 397.19L106.14 401.2L105.67 405.2L105.25 409.19L104.91 413.17L104.62 417.14L104.39 421.11L104.21 425.06L104.1 429.01L104.05 432.96L104.05 436.89L104.11 440.82L104.23 444.74L104.4 448.65L104.63 452.55L104.92 456.45L105.26 460.34L105.66 464.23L106.12 468.09L106.63 471.96L107.2 475.82L107.82 479.67L108.5 483.51L109.24 487.35L110.03 491.18L110.88 495L111.79 498.81L112.75 502.61L113.77 506.42L114.85 510.2L115.98 513.98L117.18 517.77L118.43 521.53L119.75 525.29L121.12 529.04L122.55 532.79L124.05 536.52L125.61 540.23L127.23 543.95L128.91 547.67L130.66 551.36L132.47 555.05L134.35 558.73L136.3 562.42L136.3 562.42L136.3 562.42L143.16 567.4L150 572.04L156.82 576.36L163.64 580.4L170.45 584.15L177.24 587.64L184.03 590.86L190.81 593.85L197.57 596.61L204.33 599.16L211.08 601.47L217.83 603.59L224.56 605.51L231.29 607.21L238.01 608.74L244.73 610.07L251.43 611.22L258.13 612.18L264.83 612.97L271.51 613.58L278.19 614.02L284.86 614.28L291.53 614.36L298.19 614.29L304.84 614.03L311.49 613.59L318.13 612.98L324.76 612.21L331.39 611.27L338.01 610.15L344.62 608.83L351.23 607.35L357.83 605.69L364.42 603.84L371 601.8L377.58 599.57L384.15 597.16L390.71 594.53L397.27 591.68L403.81 588.62L410.35 585.35L416.88 581.84L423.4 578.09L429.91 574.09L436.41 569.82L442.9 565.29L449.38 560.44L455.84 555.29L462.3 549.79L462.3 549.79L462.3 549.79L463.47 549.01L464.65 548.24L465.84 547.52L467.03 546.8L468.22 546.12L469.42 545.45L470.63 544.82L471.83 544.2L473.05 543.61L474.26 543.04L475.49 542.49L476.71 541.97L477.94 541.46L479.18 540.98L480.42 540.53L481.66 540.07L482.9 539.66L484.16 539.26L485.41 538.87L486.67 538.52L487.93 538.17L489.2 537.86L490.47 537.56L491.75 537.29L493.03 537.03L494.31 536.79L495.6 536.57L496.89 536.37L498.19 536.19L499.49 536.04L500.79 535.91L502.1 535.79L503.41 535.69L504.72 535.62L506.04 535.57L507.37 535.54L508.7 535.53L510.03 535.54L511.37 535.57L512.71 535.62L514.05 535.7L515.4 535.8L516.76 535.92L518.12 536.06L519.48 536.23L520.85 536.42L522.22 536.65L523.6 536.89L524.99 537.16L524.99 537.16L524.99 537.16L526.37 536.89Z" id="g6u5vz7NPp"></path><path d="M526.37 536.89L527.75 536.65L529.12 536.42L530.49 536.23L531.85 536.06L533.21 535.92L534.57 535.8L535.92 535.7L537.26 535.62L538.61 535.57L539.94 535.54L541.28 535.53L542.61 535.54L543.93 535.57L545.25 535.62L546.56 535.69L547.88 535.79L549.18 535.91L550.49 536.04L551.79 536.19L553.08 536.37L554.37 536.57L555.66 536.79L556.95 537.03L558.22 537.29L559.5 537.56L560.77 537.86L562.04 538.17L563.3 538.52L564.56 538.87L565.82 539.26L567.07 539.66L568.31 540.07L569.56 540.53L570.8 540.98L572.03 541.46L573.26 541.97L574.49 542.49L575.71 543.04L576.93 543.61L578.14 544.2L579.35 544.82L580.55 545.45L581.75 546.12L582.95 546.8L584.14 547.52L585.32 548.24L586.5 549.01L587.68 549.79L587.68 549.79L587.68 549.79L594.13 555.29L600.6 560.44L607.07 565.29L613.56 569.82L620.06 574.09L626.57 578.09L633.09 581.84L639.62 585.35L646.16 588.62L652.7 591.68L659.26 594.53L665.82 597.16L672.39 599.57L678.97 601.8L685.55 603.84L692.15 605.69L698.75 607.35L705.35 608.83L711.97 610.15L718.58 611.27L725.21 612.21L731.84 612.98L738.48 613.59L745.13 614.03L751.78 614.29L758.44 614.36L765.11 614.28L771.78 614.02L778.46 613.58L785.15 612.97L791.84 612.18L798.54 611.22L805.25 610.07L811.96 608.74L818.68 607.21L825.41 605.51L832.14 603.59L838.89 601.47L845.64 599.16L852.4 596.61L859.17 593.85L865.94 590.86L872.73 587.64L879.53 584.15L886.33 580.4L893.15 576.36L899.98 572.04L906.82 567.4L913.67 562.42L913.67 562.42L913.67 562.42L915.62 558.73L917.5 555.05L919.31 551.36L921.06 547.67L922.75 543.95L924.37 540.23L925.92 536.52L927.42 532.79L928.85 529.04L930.23 525.29L931.54 521.53L932.79 517.77L933.99 513.98L935.13 510.2L936.2 506.42L937.22 502.61L938.19 498.81L939.09 495L939.94 491.18L940.74 487.35L941.47 483.51L942.15 479.67L942.78 475.82L943.35 471.96L943.86 468.09L944.31 464.23L944.71 460.34L945.06 456.45L945.34 452.55L945.57 448.65L945.75 444.74L945.86 440.82L945.92 436.89L945.93 432.96L945.87 429.01L945.76 425.06L945.59 421.11L945.36 417.14L945.07 413.17L944.72 409.19L944.31 405.2L943.83 401.2L943.3 397.19L942.7 393.18L942.04 389.15L941.32 385.12L940.53 381.08L939.67 377.04L938.75 372.98L938.75 372.98L938.75 372.98L938.29 371.88L937.82 370.81L937.34 369.75L936.84 368.71L936.32 367.68L935.79 366.67L935.25 365.67L934.7 364.68L934.13 363.7L933.55 362.74L932.95 361.8L932.34 360.86L931.73 359.94L931.09 359.04L930.45 358.13L929.79 357.25L929.12 356.38L928.43 355.52L927.74 354.67L927.03 353.84L926.31 353.02L925.58 352.21L924.84 351.42L924.08 350.63L923.32 349.85L922.54 349.09L921.74 348.34L920.94 347.61L920.12 346.88L919.3 346.17L918.46 345.48L917.6 344.79L916.74 344.11L915.86 343.44L914.97 342.79L914.07 342.17L913.15 341.54L912.23 340.92L911.29 340.32L910.33 339.73L909.37 339.17L908.39 338.6L907.39 338.06L906.38 337.52L905.36 337.01L904.33 336.5L903.28 336.02L902.21 335.54L901.13 335.08L901.13 335.08L524.99 335.08L148.84 335.08L148.84 335.08L147.76 335.54L146.7 336.02L145.65 336.5L144.61 337.01L143.59 337.52L142.58 338.06L141.59 338.6L140.61 339.17L139.64 339.73L138.69 340.32L137.75 340.92L136.82 341.54L135.9 342.17L135 342.79L134.11 343.44L133.23 344.11L132.37 344.79L131.52 345.48L130.68 346.17L129.85 346.88L129.03 347.61L128.23 348.34L127.44 349.09L126.66 349.85L125.89 350.63L125.13 351.42L124.39 352.21L123.66 353.02L122.94 353.84L122.23 354.67L121.54 355.52L120.86 356.38L120.19 357.25L119.53 358.13L118.88 359.04L118.25 359.94L117.63 360.86L117.02 361.8L116.43 362.74L115.84 363.7L115.28 364.68L114.72 365.67L114.18 366.67L113.65 367.68L113.14 368.71L112.64 369.75L112.15 370.81L111.68 371.88L111.23 372.98L111.23 372.98L111.23 372.98L110.3 377.04L109.44 381.08L108.65 385.12L107.93 389.15L107.27 393.18L106.67 397.19L106.14 401.2L105.67 405.2L105.25 409.19L104.91 413.17L104.62 417.14L104.39 421.11L104.21 425.06L104.1 429.01L104.05 432.96L104.05 436.89L104.11 440.82L104.23 444.74L104.4 448.65L104.63 452.55L104.92 456.45L105.26 460.34L105.66 464.23L106.12 468.09L106.63 471.96L107.2 475.82L107.82 479.67L108.5 483.51L109.24 487.35L110.03 491.18L110.88 495L111.79 498.81L112.75 502.61L113.77 506.42L114.85 510.2L115.98 513.98L117.18 517.77L118.43 521.53L119.75 525.29L121.12 529.04L122.55 532.79L124.05 536.52L125.61 540.23L127.23 543.95L128.91 547.67L130.66 551.36L132.47 555.05L134.35 558.73L136.3 562.42L136.3 562.42L136.3 562.42L143.16 567.4L150 572.04L156.82 576.36L163.64 580.4L170.45 584.15L177.24 587.64L184.03 590.86L190.81 593.85L197.57 596.61L204.33 599.16L211.08 601.47L217.83 603.59L224.56 605.51L231.29 607.21L238.01 608.74L244.73 610.07L251.43 611.22L258.13 612.18L264.83 612.97L271.51 613.58L278.19 614.02L284.86 614.28L291.53 614.36L298.19 614.29L304.84 614.03L311.49 613.59L318.13 612.98L324.76 612.21L331.39 611.27L338.01 610.15L344.62 608.83L351.23 607.35L357.83 605.69L364.42 603.84L371 601.8L377.58 599.57L384.15 597.16L390.71 594.53L397.27 591.68L403.81 588.62L410.35 585.35L416.88 581.84L423.4 578.09L429.91 574.09L436.41 569.82L442.9 565.29L449.38 560.44L455.84 555.29L462.3 549.79L462.3 549.79L462.3 549.79L463.47 549.01L464.65 548.24L465.84 547.52L467.03 546.8L468.22 546.12L469.42 545.45L470.63 544.82L471.83 544.2L473.05 543.61L474.26 543.04L475.49 542.49L476.71 541.97L477.94 541.46L479.18 540.98L480.42 540.53L481.66 540.07L482.9 539.66L484.16 539.26L485.41 538.87L486.67 538.52L487.93 538.17L489.2 537.86L490.47 537.56L491.75 537.29L493.03 537.03L494.31 536.79L495.6 536.57L496.89 536.37L498.19 536.19L499.49 536.04L500.79 535.91L502.1 535.79L503.41 535.69L504.72 535.62L506.04 535.57L507.37 535.54L508.7 535.53L510.03 535.54L511.37 535.57L512.71 535.62L514.05 535.7L515.4 535.8L516.76 535.92L518.12 536.06L519.48 536.23L520.85 536.42L522.22 536.65L523.6 536.89L524.99 537.16L524.99 537.16L524.99 537.16L526.37 536.89Z" id="c4mmFtDvsr"></path><path d="M376.56 269.78L207.15 200.15L325.76 221.31L376.56 269.78Z" id="c4QhKSlUB7"></path><path d="M376.56 269.78L207.15 200.15L325.76 221.31L376.56 269.78Z" id="bw4Ag9mS8"></path><path d="M442.27 868.37L433.15 866.22L424.17 863.92L415.32 861.45L406.59 858.82L397.99 856.04L389.51 853.09L381.15 850.02L372.9 846.8L364.77 843.44L356.76 839.93L348.85 836.29L341.05 832.52L333.36 828.6L325.77 824.58L318.29 820.41L310.91 816.1L303.64 811.69L296.47 807.14L289.4 802.46L282.43 797.67L275.56 792.74L268.79 787.7L262.12 782.53L255.55 777.22L249.09 771.82L242.72 766.28L236.45 760.6L230.28 754.82L224.21 748.91L218.25 742.86L212.39 736.7L206.62 730.41L200.97 723.98L195.42 717.44L189.97 710.76L184.63 703.95L179.4 696.99L174.29 689.91L169.28 682.69L164.39 675.32L159.61 667.82L154.95 660.16L150.42 652.35L146 644.4L141.72 636.28L137.57 628.01L133.55 619.55L129.66 610.94L129.66 610.94L129.66 610.94L131.84 621.67L134.3 632.04L137.05 642.05L140.04 651.76L143.28 661.17L146.75 670.3L150.42 679.17L154.3 687.78L158.38 696.16L162.64 704.3L167.08 712.21L171.69 719.93L176.48 727.43L181.42 734.72L186.53 741.83L191.79 748.73L197.2 755.46L202.77 761.98L208.48 768.34L214.34 774.52L220.34 780.52L226.48 786.33L232.77 791.97L239.2 797.45L245.76 802.73L252.47 807.85L259.32 812.8L266.32 817.57L273.45 822.17L280.73 826.58L288.16 830.82L295.73 834.86L303.46 838.73L311.33 842.41L319.36 845.9L327.55 849.19L335.91 852.28L344.43 855.16L353.13 857.82L362 860.27L371.07 862.47L380.32 864.45L389.78 866.17L399.46 867.62L409.36 868.81L419.5 869.69L429.89 870.26L440.56 870.48L451.52 870.34L451.52 870.34L451.52 870.34L442.27 868.37Z" id="a5pNlqlrK"></path><path d="M442.27 868.37L433.15 866.22L424.17 863.92L415.32 861.45L406.59 858.82L397.99 856.04L389.51 853.09L381.15 850.02L372.9 846.8L364.77 843.44L356.76 839.93L348.85 836.29L341.05 832.52L333.36 828.6L325.77 824.58L318.29 820.41L310.91 816.1L303.64 811.69L296.47 807.14L289.4 802.46L282.43 797.67L275.56 792.74L268.79 787.7L262.12 782.53L255.55 777.22L249.09 771.82L242.72 766.28L236.45 760.6L230.28 754.82L224.21 748.91L218.25 742.86L212.39 736.7L206.62 730.41L200.97 723.98L195.42 717.44L189.97 710.76L184.63 703.95L179.4 696.99L174.29 689.91L169.28 682.69L164.39 675.32L159.61 667.82L154.95 660.16L150.42 652.35L146 644.4L141.72 636.28L137.57 628.01L133.55 619.55L129.66 610.94L129.66 610.94L129.66 610.94L131.84 621.67L134.3 632.04L137.05 642.05L140.04 651.76L143.28 661.17L146.75 670.3L150.42 679.17L154.3 687.78L158.38 696.16L162.64 704.3L167.08 712.21L171.69 719.93L176.48 727.43L181.42 734.72L186.53 741.83L191.79 748.73L197.2 755.46L202.77 761.98L208.48 768.34L214.34 774.52L220.34 780.52L226.48 786.33L232.77 791.97L239.2 797.45L245.76 802.73L252.47 807.85L259.32 812.8L266.32 817.57L273.45 822.17L280.73 826.58L288.16 830.82L295.73 834.86L303.46 838.73L311.33 842.41L319.36 845.9L327.55 849.19L335.91 852.28L344.43 855.16L353.13 857.82L362 860.27L371.07 862.47L380.32 864.45L389.78 866.17L399.46 867.62L409.36 868.81L419.5 869.69L429.89 870.26L440.56 870.48L451.52 870.34L451.52 870.34L451.52 870.34L442.27 868.37Z" id="b2nSEPvu2p"></path><path d="M473.51 848.33L524.99 848.33L576.46 848.33L576.46 913.79L524.99 913.79L473.51 913.79L473.51 848.33Z" id="a3vkgCLY9S"></path><path d="M473.51 848.33L524.99 848.33L576.46 848.33L576.46 913.79L524.99 913.79L473.51 913.79L473.51 848.33Z" id="b1b1ZdYq8e"></path></defs><g><g><g><use xlink:href="#a3N7qi5d" opacity="1" fill="#dd2121" fill-opacity="1"></use><g><use xlink:href="#a3N7qi5d" opacity="1" fill-opacity="0" stroke="#000000" stroke-width="1" stroke-opacity="0"></use></g></g><g><use xlink:href="#dhMHVmezl" opacity="1" fill="#000000" fill-opacity="0"></use><g><use xlink:href="#dhMHVmezl" opacity="1" fill-opacity="0" stroke="#f79646" stroke-width="3" stroke-opacity="1"></use></g></g><g><use xlink:href="#flffdW76" opacity="1" fill="#903c39" fill-opacity="1"></use><g><use xlink:href="#flffdW76" opacity="1" fill-opacity="0" stroke="#000000" stroke-width="1" stroke-opacity="0"></use></g></g><g><use xlink:href="#fcg4jF43B" opacity="1" fill="#000000" fill-opacity="0"></use><g><use xlink:href="#fcg4jF43B" opacity="1" fill-opacity="0" stroke="#000000" stroke-width="3" stroke-opacity="0"></use></g></g><g><use xlink:href="#a5bq6DNPTL" opacity="1" fill="#bfbfbf" fill-opacity="1"></use><g><use xlink:href="#a5bq6DNPTL" opacity="1" fill-opacity="0" stroke="#000000" stroke-width="1" stroke-opacity="0"></use></g></g><g><use xlink:href="#a1Uqe4a81j" opacity="1" fill="#000000" fill-opacity="0"></use><g><use xlink:href="#a1Uqe4a81j" opacity="1" fill-opacity="0" stroke="#000000" stroke-width="3" stroke-opacity="0"></use></g></g><g><use xlink:href="#arAp8yKzt" opacity="1" fill="#545454" fill-opacity="1"></use><g><use xlink:href="#arAp8yKzt" opacity="1" fill-opacity="0" stroke="#000000" stroke-width="1" stroke-opacity="0"></use></g></g><g><use xlink:href="#f6qW5TOEGj" opacity="1" fill="#000000" fill-opacity="0"></use><g><use xlink:href="#f6qW5TOEGj" opacity="1" fill-opacity="0" stroke="#a5a5a5" stroke-width="8" stroke-opacity="1"></use></g></g><g><use xlink:href="#bSIs515m9" opacity="1" fill="#903c39" fill-opacity="1"></use><g><use xlink:href="#bSIs515m9" opacity="1" fill-opacity="0" stroke="#000000" stroke-width="1" stroke-opacity="0"></use></g></g><g><use xlink:href="#d82AtPfhhT" opacity="1" fill="#000000" fill-opacity="0"></use><g><use xlink:href="#d82AtPfhhT" opacity="1" fill-opacity="0" stroke="#000000" stroke-width="3" stroke-opacity="0"></use></g></g><g><use xlink:href="#aWVIIaCxA" opacity="1" fill="#bfbfbf" fill-opacity="1"></use><g><use xlink:href="#aWVIIaCxA" opacity="1" fill-opacity="0" stroke="#000000" stroke-width="1" stroke-opacity="0"></use></g></g><g><use xlink:href="#aSyQiZBNG" opacity="1" fill="#000000" fill-opacity="0"></use><g><use xlink:href="#aSyQiZBNG" opacity="1" fill-opacity="0" stroke="#000000" stroke-width="3" stroke-opacity="0"></use></g></g><g><use xlink:href="#c2xxaaBUG5" opacity="1" fill="#000000" fill-opacity="1"></use><g><use xlink:href="#c2xxaaBUG5" opacity="1" fill-opacity="0" stroke="#000000" stroke-width="1" stroke-opacity="0"></use></g></g><g><use xlink:href="#aJCKFwWA" opacity="1" fill="#000000" fill-opacity="0"></use><g><use xlink:href="#aJCKFwWA" opacity="1" fill-opacity="0" stroke="#000000" stroke-width="3" stroke-opacity="1"></use></g></g><g><use xlink:href="#a3RF5VEa9f" opacity="1" fill="#ffc000" fill-opacity="1"></use><g><use xlink:href="#a3RF5VEa9f" opacity="1" fill-opacity="0" stroke="#000000" stroke-width="1" stroke-opacity="0"></use></g></g><g><use xlink:href="#f17vghgJLX" opacity="1" fill="#000000" fill-opacity="0"></use><g><use xlink:href="#f17vghgJLX" opacity="1" fill-opacity="0" stroke="#000000" stroke-width="3" stroke-opacity="1"></use></g></g><g><use xlink:href="#b3Th6rCx" opacity="1" fill="#903c39" fill-opacity="1"></use><g><use xlink:href="#b3Th6rCx" opacity="1" fill-opacity="0" stroke="#000000" stroke-width="1" stroke-opacity="0"></use></g></g><g><use xlink:href="#i9zERzdyQ" opacity="1" fill="#000000" fill-opacity="0"></use><g><use xlink:href="#i9zERzdyQ" opacity="1" fill-opacity="0" stroke="#000000" stroke-width="3" stroke-opacity="0"></use></g></g><g><use xlink:href="#c4vO62sfVG" opacity="1" fill="#bfbfbf" fill-opacity="1"></use><g><use xlink:href="#c4vO62sfVG" opacity="1" fill-opacity="0" stroke="#000000" stroke-width="1" stroke-opacity="0"></use></g></g><g><use xlink:href="#c3d7NMenb4" opacity="1" fill="#000000" fill-opacity="0"></use><g><use xlink:href="#c3d7NMenb4" opacity="1" fill-opacity="0" stroke="#000000" stroke-width="3" stroke-opacity="0"></use></g></g><g><use xlink:href="#g6u5vz7NPp" opacity="1" fill="#0070c0" fill-opacity="1"></use><g><use xlink:href="#g6u5vz7NPp" opacity="1" fill-opacity="0" stroke="#000000" stroke-width="1" stroke-opacity="0"></use></g></g><g><use xlink:href="#c4mmFtDvsr" opacity="1" fill="#000000" fill-opacity="0"></use><g><use xlink:href="#c4mmFtDvsr" opacity="1" fill-opacity="0" stroke="#000000" stroke-width="3" stroke-opacity="0"></use></g></g><g><use xlink:href="#c4QhKSlUB7" opacity="1" fill="#903c39" fill-opacity="1"></use><g><use xlink:href="#c4QhKSlUB7" opacity="1" fill-opacity="0" stroke="#000000" stroke-width="1" stroke-opacity="0"></use></g></g><g><use xlink:href="#bw4Ag9mS8" opacity="1" fill="#000000" fill-opacity="0"></use><g><use xlink:href="#bw4Ag9mS8" opacity="1" fill-opacity="0" stroke="#000000" stroke-width="3" stroke-opacity="0"></use></g></g><g><use xlink:href="#a5pNlqlrK" opacity="1" fill="#bfbfbf" fill-opacity="1"></use><g><use xlink:href="#a5pNlqlrK" opacity="1" fill-opacity="0" stroke="#000000" stroke-width="1" stroke-opacity="0"></use></g></g><g><use xlink:href="#b2nSEPvu2p" opacity="1" fill="#000000" fill-opacity="0"></use><g><use xlink:href="#b2nSEPvu2p" opacity="1" fill-opacity="0" stroke="#000000" stroke-width="3" stroke-opacity="0"></use></g></g><g><use xlink:href="#a3vkgCLY9S" opacity="1" fill="#000000" fill-opacity="1"></use><g><use xlink:href="#a3vkgCLY9S" opacity="1" fill-opacity="0" stroke="#000000" stroke-width="1" stroke-opacity="0"></use></g></g><g><use xlink:href="#b1b1ZdYq8e" opacity="1" fill="#000000" fill-opacity="0"></use><g><use xlink:href="#b1b1ZdYq8e" opacity="1" fill-opacity="0" stroke="#000000" stroke-width="3" stroke-opacity="1"></use></g></g></g></g></svg>