<?xml version="1.0" encoding="UTF-8" standalone="no"?>
<!DOCTYPE svg PUBLIC "-//W3C//DTD SVG 1.1//EN" "http://www.w3.org/Graphics/SVG/1.1/DTD/svg11.dtd">
<svg version="1.1" xmlns="http://www.w3.org/2000/svg" xmlns:xlink="http://www.w3.org/1999/xlink" preserveAspectRatio="xMidYMid meet" viewBox="0 0 2300 4600" width="2300" height="4096"><defs><path d="M1151.6 604.19L1190.32 645.89L1212.87 662.73L1231.83 674.06L1248.86 682.42L1264.6 688.8L1279.4 693.73L1293.45 697.51L1306.9 700.36L1319.83 702.42L1332.31 703.78L1344.39 704.54L1356.11 704.73L1367.51 704.43L1378.6 703.66L1389.41 702.45L1399.95 700.84L1410.24 698.83L1420.28 696.46L1430.1 693.73L1439.69 690.65L1449.06 687.23L1458.21 683.48L1467.15 679.41L1475.89 675.01L1484.41 670.29L1492.73 665.25L1500.83 659.89L1508.73 654.2L1516.4 648.19L1523.86 641.83L1531.09 635.13L1538.1 628.07L1544.85 620.64L1551.36 612.82L1557.6 604.59L1563.56 595.93L1569.21 586.79L1574.54 577.16L1579.5 566.98L1584.07 556.17L1588.19 544.69L1591.79 532.4L1594.78 519.18L1597.03 504.82L1598.34 489L1598.36 471.21L1596.44 450.44L1590.94 424.17L1569.28 373.03L1569.28 373.03L1569.28 373.03L1575.27 390.12L1578.62 404.21L1580.45 416.56L1581.23 427.73L1581.24 438.02L1580.62 447.6L1579.5 456.61L1577.93 465.11L1575.99 473.19L1573.71 480.88L1571.12 488.23L1568.26 495.26L1565.13 502L1561.77 508.46L1558.18 514.67L1554.38 520.63L1550.37 526.36L1546.17 531.87L1541.77 537.17L1537.19 542.25L1532.43 547.13L1527.5 551.8L1522.39 556.29L1517.1 560.57L1511.65 564.66L1506.02 568.55L1500.22 572.25L1494.25 575.75L1488.1 579.04L1481.77 582.14L1475.25 585.02L1468.54 587.69L1461.64 590.14L1454.53 592.35L1447.21 594.32L1439.66 596.03L1431.87 597.47L1423.83 598.62L1415.5 599.45L1406.88 599.94L1397.91 600.04L1388.56 599.71L1378.77 598.88L1368.48 597.48L1357.57 595.36L1345.87 592.37L1333.13 588.19L1318.87 582.28L1301.97 573.37L1301.97 573.37L1301.97 573.37L1301.92 573.34L1301.88 573.3L1301.83 573.26L1301.78 573.22L1301.74 573.19L1301.68 573.15L1301.64 573.11L1301.58 573.06L1301.53 573.02L1301.47 572.97L1301.42 572.93L1301.36 572.88L1301.29 572.83L1301.23 572.78L1301.16 572.72L1301.09 572.66L1301.01 572.6L1300.93 572.53L1300.84 572.46L1300.75 572.38L1300.64 572.3L1300.52 572.19L1300.36 572.07L1300.15 571.88L1299.84 571.63L1277.26 546.38L1270.29 534.21L1266.01 524.3L1263.15 515.58L1261.25 507.67L1260.05 500.34L1259.39 493.47L1259.19 486.98L1259.36 480.8L1259.86 474.9L1260.66 469.25L1261.72 463.82L1263.02 458.59L1264.55 453.55L1266.28 448.68L1268.21 443.98L1270.32 439.43L1272.62 435.03L1275.08 430.78L1277.71 426.66L1280.5 422.68L1283.44 418.83L1286.55 415.11L1289.8 411.52L1293.21 408.06L1296.78 404.73L1300.49 401.53L1304.37 398.46L1308.4 395.52L1312.59 392.71L1316.95 390.05L1321.48 387.52L1326.19 385.15L1331.08 382.93L1336.17 380.88L1341.46 379L1346.98 377.31L1352.74 375.82L1358.77 374.55L1365.08 373.53L1371.73 372.78L1378.76 372.35L1386.24 372.3L1394.26 372.71L1402.98 373.71L1412.65 375.49L1423.76 378.49L1437.55 383.73L1466.95 402.07L1467.38 402.43L1467.55 402.58L1467.69 402.69L1467.8 402.79L1467.9 402.87L1467.99 402.95L1468.07 403.02L1468.15 403.08L1468.22 403.15L1468.29 403.2L1468.35 403.26L1468.42 403.31L1468.47 403.37L1468.53 403.41L1468.58 403.46L1468.64 403.51L1468.69 403.55L1468.74 403.6L1468.79 403.64L1468.84 403.68L1468.88 403.72L1468.93 403.76L1468.97 403.8L1469.01 403.84L1469.03 403.85L1469.03 403.85L1469.03 403.85L1465.2 398.19L1461.26 392.84L1457.24 387.79L1453.15 383.02L1448.97 378.49L1444.74 374.21L1440.44 370.13L1436.08 366.27L1431.66 362.6L1427.19 359.11L1422.67 355.8L1418.1 352.67L1413.48 349.69L1408.81 346.88L1404.11 344.22L1399.35 341.72L1394.55 339.36L1389.72 337.14L1384.84 335.06L1379.92 333.12L1374.96 331.33L1369.97 329.67L1364.93 328.14L1359.85 326.75L1354.74 325.49L1349.59 324.36L1344.39 323.37L1339.16 322.52L1333.89 321.81L1328.58 321.22L1323.23 320.78L1317.84 320.48L1312.41 320.33L1306.93 320.32L1301.41 320.46L1295.85 320.76L1290.24 321.22L1284.58 321.84L1278.87 322.63L1273.12 323.6L1267.3 324.75L1261.43 326.1L1255.51 327.66L1249.52 329.43L1243.46 331.44L1237.33 333.7L1231.12 336.23L1224.82 339.06L1218.43 342.21L1218.43 342.21L1218.43 342.21L1225.75 334.2L1232.18 326.36L1237.87 318.67L1242.94 311.1L1247.44 303.64L1251.44 296.27L1255 289L1258.14 281.81L1260.91 274.69L1263.32 267.64L1265.41 260.65L1267.18 253.73L1268.66 246.86L1269.85 240.06L1270.77 233.3L1271.43 226.59L1271.84 219.94L1272 213.33L1271.92 206.77L1271.61 200.26L1271.06 193.79L1270.28 187.37L1269.28 180.99L1268.05 174.66L1266.6 168.37L1264.92 162.12L1263.02 155.92L1260.89 149.76L1258.54 143.65L1255.95 137.58L1253.12 131.56L1250.06 125.59L1246.75 119.66L1243.18 113.79L1239.35 107.96L1235.26 102.19L1230.88 96.48L1226.2 90.82L1221.21 85.23L1215.89 79.7L1210.22 74.23L1204.17 68.85L1197.71 63.54L1190.8 58.32L1183.4 53.2L1175.43 48.19L1166.83 43.3L1157.5 38.56L1147.28 34L1147.28 34L1147.28 34L1137.11 38.66L1127.83 43.49L1119.29 48.46L1111.4 53.54L1104.07 58.74L1097.23 64.02L1090.85 69.38L1084.88 74.82L1079.28 80.33L1074.05 85.91L1069.14 91.54L1064.55 97.24L1060.25 102.99L1056.23 108.79L1052.49 114.64L1049.01 120.54L1045.79 126.48L1042.81 132.48L1040.07 138.51L1037.57 144.59L1035.3 150.71L1033.26 156.88L1031.44 163.09L1029.86 169.34L1028.49 175.62L1027.35 181.96L1026.44 188.33L1025.75 194.75L1025.29 201.2L1025.07 207.7L1025.08 214.25L1025.33 220.83L1025.83 227.47L1026.58 234.15L1027.6 240.88L1028.88 247.66L1030.45 254.49L1032.32 261.37L1034.5 268.32L1037.01 275.32L1039.87 282.39L1043.12 289.53L1046.77 296.75L1050.88 304.05L1055.49 311.44L1060.65 318.93L1066.46 326.55L1073.01 334.3L1080.45 342.21L1080.45 342.21L1080.45 342.21L1074.06 339.06L1067.76 336.23L1061.55 333.7L1055.42 331.44L1049.36 329.43L1043.37 327.66L1037.45 326.1L1031.58 324.75L1025.76 323.6L1020.01 322.63L1014.3 321.84L1008.64 321.22L1003.03 320.76L997.47 320.46L991.95 320.32L986.47 320.33L981.04 320.48L975.65 320.78L970.3 321.22L964.99 321.81L959.72 322.52L954.49 323.37L949.29 324.36L944.14 325.49L939.03 326.75L933.95 328.14L928.91 329.67L923.92 331.33L918.96 333.12L914.04 335.06L909.16 337.14L904.33 339.36L899.53 341.72L894.77 344.22L890.07 346.88L885.4 349.69L880.78 352.67L876.21 355.8L871.69 359.11L867.22 362.6L862.8 366.27L858.44 370.13L854.14 374.21L849.91 378.49L845.73 383.02L841.64 387.79L837.62 392.84L833.68 398.19L829.85 403.85L829.85 403.85L829.85 403.85L829.89 403.82L829.93 403.78L829.98 403.74L830.02 403.7L830.07 403.66L830.12 403.62L830.16 403.57L830.22 403.53L830.27 403.49L830.32 403.44L830.38 403.39L830.44 403.34L830.49 403.29L830.56 403.23L830.63 403.17L830.69 403.12L830.77 403.05L830.85 402.98L830.93 402.91L831.03 402.83L831.13 402.74L831.26 402.64L831.41 402.51L831.62 402.32L831.93 402.07L861.33 383.73L875.12 378.49L886.23 375.49L895.9 373.71L904.62 372.71L912.64 372.3L920.12 372.35L927.15 372.78L933.8 373.53L940.11 374.55L946.14 375.82L951.9 377.31L957.42 379L962.71 380.88L967.8 382.93L972.69 385.15L977.4 387.52L981.93 390.05L986.29 392.71L990.48 395.52L994.51 398.46L998.39 401.53L1002.1 404.73L1005.67 408.06L1009.08 411.52L1012.33 415.11L1015.44 418.83L1018.38 422.68L1021.17 426.66L1023.8 430.78L1026.26 435.03L1028.56 439.43L1030.67 443.98L1032.6 448.68L1034.33 453.55L1035.86 458.59L1037.16 463.82L1038.22 469.25L1039.02 474.9L1039.52 480.8L1039.69 486.98L1039.49 493.47L1038.83 500.34L1037.63 507.67L1035.73 515.58L1032.87 524.3L1028.59 534.21L1021.62 546.38L999.04 571.63L998.61 571.99L998.44 572.13L998.3 572.25L998.18 572.34L998.08 572.42L997.99 572.5L997.91 572.57L997.83 572.63L997.75 572.69L997.69 572.75L997.62 572.8L997.55 572.85L997.49 572.9L997.43 572.95L997.38 573L997.32 573.04L997.27 573.08L997.22 573.13L997.17 573.17L997.12 573.21L997.07 573.24L997.02 573.28L996.98 573.32L996.94 573.35L996.91 573.37L996.91 573.37L996.91 573.37L980.01 582.28L965.75 588.19L953.01 592.37L941.31 595.36L930.4 597.48L920.1 598.88L910.32 599.71L900.97 600.04L892 599.94L883.38 599.45L875.05 598.62L867.01 597.47L859.22 596.03L851.67 594.32L844.35 592.35L837.24 590.14L830.34 587.69L823.63 585.02L817.11 582.14L810.78 579.04L804.63 575.75L798.66 572.25L792.86 568.55L787.23 564.66L781.78 560.57L776.49 556.29L771.38 551.8L766.45 547.13L761.69 542.25L757.11 537.17L752.71 531.87L748.51 526.36L744.5 520.63L740.7 514.67L737.11 508.46L733.75 502L730.62 495.26L727.76 488.23L725.17 480.88L722.89 473.19L720.95 465.11L719.38 456.61L718.26 447.6L717.64 438.02L717.65 427.73L718.43 416.56L720.26 404.21L723.61 390.12L729.6 373.03L729.6 373.03L729.6 373.03L708.81 423.42L703.45 449.85L701.64 470.75L701.76 488.66L703.17 504.57L705.51 519.03L708.6 532.33L712.29 544.69L716.5 556.25L721.16 567.1L726.21 577.34L731.63 587.03L737.37 596.2L743.42 604.9L749.75 613.17L756.34 621.02L763.19 628.48L770.28 635.56L777.6 642.28L785.15 648.65L792.92 654.69L800.9 660.38L809.09 665.75L817.5 670.79L826.11 675.51L834.93 679.9L843.96 683.97L853.2 687.71L862.66 691.11L872.34 694.18L882.24 696.89L892.38 699.24L902.75 701.22L913.38 702.8L924.28 703.97L935.45 704.7L946.94 704.96L958.74 704.72L970.91 703.91L983.48 702.49L996.49 700.37L1010.03 697.45L1024.16 693.58L1039.04 688.56L1054.87 682.08L1071.97 673.61L1091 662.14L1113.59 645.15L1151.6 604.19L1151.6 604.19L1151.6 604.19Z" id="a1YnHzNIN1"></path><path d="M1183.09 1990.86L1183.09 1990.86L1187.76 1987.12L1192.23 1983.35L1196.53 1979.54L1200.66 1975.69L1204.63 1971.82L1208.44 1967.91L1212.09 1963.96L1215.59 1959.99L1218.95 1955.99L1222.17 1951.96L1225.26 1947.9L1228.2 1943.81L1231.01 1939.7L1233.7 1935.55L1236.26 1931.39L1238.69 1927.2L1241 1922.98L1243.18 1918.74L1245.24 1914.47L1247.19 1910.18L1249.01 1905.86L1250.71 1901.52L1252.3 1897.16L1253.77 1892.77L1255.12 1888.36L1256.35 1883.92L1257.46 1879.46L1258.47 1874.97L1259.34 1870.47L1260.1 1865.93L1260.74 1861.37L1261.26 1856.79L1261.65 1852.18L1261.92 1847.55L1262.07 1842.89L1262.08 1838.21L1261.97 1833.5L1261.73 1828.76L1261.35 1823.99L1260.83 1819.2L1260.18 1814.37L1259.37 1809.52L1258.42 1804.64L1257.31 1799.72L1256.05 1794.78L1254.62 1789.8L1253.02 1784.78L1251.25 1779.73L1249.28 1774.64L1249.28 1774.64L1249.28 1774.64L1255.46 1771.22L1261.3 1767.72L1266.82 1764.16L1272.05 1760.54L1277 1756.86L1281.71 1753.14L1286.18 1749.36L1290.42 1745.54L1294.45 1741.67L1298.28 1737.76L1301.91 1733.82L1305.35 1729.83L1308.61 1725.81L1311.69 1721.75L1314.61 1717.66L1317.35 1713.53L1319.93 1709.37L1322.35 1705.17L1324.62 1700.95L1326.73 1696.69L1328.68 1692.4L1330.48 1688.08L1332.14 1683.73L1333.63 1679.34L1334.99 1674.93L1336.19 1670.49L1337.24 1666.02L1338.14 1661.51L1338.88 1656.97L1339.48 1652.41L1339.92 1647.81L1340.2 1643.18L1340.32 1638.51L1340.27 1633.82L1340.06 1629.08L1339.68 1624.32L1339.12 1619.52L1338.38 1614.68L1337.45 1609.8L1336.33 1604.88L1335 1599.92L1333.46 1594.92L1331.69 1589.87L1329.69 1584.77L1327.43 1579.62L1324.9 1574.42L1322.08 1569.16L1318.95 1563.83L1315.48 1558.43L1315.48 1558.43L1315.48 1558.43L1316.46 1559.81L1317.5 1561.2L1318.58 1562.61L1319.71 1564.03L1320.9 1565.46L1322.15 1566.91L1323.46 1568.37L1324.84 1569.85L1326.3 1571.35L1327.83 1572.86L1329.45 1574.4L1331.17 1575.96L1333 1577.55L1334.95 1579.17L1337.04 1580.82L1339.29 1582.52L1341.72 1584.25L1344.37 1586.05L1347.31 1587.9L1350.59 1589.85L1354.34 1591.91L1358.79 1594.14L1364.4 1596.65L1372.8 1599.85L1384.68 1603.34L1418.36 1607.44L1432.65 1606.79L1443.6 1605.33L1452.78 1603.43L1460.77 1601.24L1467.9 1598.84L1474.35 1596.27L1480.24 1593.57L1485.66 1590.75L1490.66 1587.83L1495.31 1584.82L1499.62 1581.73L1503.64 1578.57L1507.37 1575.34L1510.86 1572.04L1514.1 1568.69L1517.1 1565.28L1519.89 1561.81L1522.47 1558.3L1524.83 1554.73L1527 1551.12L1528.97 1547.45L1530.76 1543.74L1532.34 1539.98L1533.74 1536.18L1534.95 1532.33L1535.96 1528.43L1536.79 1524.48L1537.41 1520.49L1537.84 1516.45L1538.06 1512.36L1538.07 1508.21L1537.85 1504.01L1537.41 1499.76L1536.73 1495.44L1535.78 1491.07L1534.56 1486.62L1533.04 1482.1L1531.19 1477.5L1528.98 1472.81L1526.36 1468.02L1523.27 1463.12L1519.61 1458.07L1515.28 1452.87L1510.08 1447.44L1503.7 1441.73L1495.54 1435.59L1484.05 1428.63L1453.17 1416.91L1435.72 1413.78L1428.34 1413.11L1422.64 1412.86L1417.8 1412.81L1413.54 1412.91L1409.67 1413.1L1406.12 1413.37L1402.81 1413.7L1399.7 1414.08L1396.77 1414.51L1393.98 1414.96L1391.33 1415.46L1388.79 1415.97L1386.35 1416.52L1384 1417.08L1381.74 1417.67L1379.55 1418.28L1377.44 1418.9L1375.39 1419.54L1373.4 1420.19L1371.47 1420.86L1369.6 1421.54L1367.77 1422.23L1365.99 1422.94L1365.12 1423.3L1365.12 1423.3L1365.12 1423.3L1367.46 1419.3L1369.87 1415.37L1372.34 1411.49L1374.88 1407.68L1377.47 1403.92L1380.13 1400.21L1382.85 1396.56L1385.63 1392.96L1388.47 1389.42L1391.37 1385.92L1394.32 1382.48L1397.33 1379.09L1400.4 1375.75L1403.52 1372.46L1406.7 1369.22L1409.93 1366.03L1413.22 1362.89L1416.56 1359.79L1419.96 1356.75L1423.4 1353.76L1426.91 1350.81L1430.46 1347.91L1434.07 1345.05L1437.73 1342.25L1441.45 1339.49L1445.22 1336.78L1449.04 1334.12L1452.91 1331.5L1456.84 1328.94L1460.82 1326.42L1464.85 1323.95L1468.94 1321.52L1473.08 1319.15L1477.28 1316.82L1481.53 1314.55L1485.84 1312.32L1490.2 1310.14L1494.62 1308.02L1499.1 1305.95L1503.63 1303.92L1508.22 1301.95L1512.87 1300.04L1517.58 1298.17L1522.35 1296.36L1527.18 1294.61L1532.08 1292.91L1537.04 1291.26L1542.06 1289.68L1547.15 1288.16L1547.15 1288.16L1547.15 1288.16L1550.58 1298.57L1554.26 1306.37L1558.08 1312.78L1561.98 1318.27L1565.94 1323.08L1569.95 1327.37L1574.01 1331.22L1578.09 1334.7L1582.21 1337.87L1586.35 1340.75L1590.52 1343.38L1594.71 1345.78L1598.93 1347.97L1603.16 1349.96L1607.4 1351.77L1611.66 1353.4L1615.94 1354.86L1620.23 1356.16L1624.54 1357.3L1628.87 1358.29L1633.2 1359.14L1637.55 1359.84L1641.92 1360.39L1646.29 1360.81L1650.68 1361.09L1655.09 1361.22L1659.5 1361.22L1663.94 1361.07L1668.38 1360.78L1672.84 1360.33L1677.31 1359.74L1681.8 1358.99L1686.3 1358.08L1690.82 1357.01L1695.35 1355.75L1699.9 1354.31L1704.47 1352.68L1709.06 1350.83L1713.68 1348.75L1718.31 1346.42L1722.97 1343.8L1727.67 1340.87L1732.39 1337.57L1737.16 1333.84L1741.98 1329.57L1746.86 1324.64L1751.83 1318.78L1756.93 1311.53L1762.27 1301.67L1762.27 1301.67L1762.27 1301.67L1766.45 1292.05L1769.46 1283.25L1771.59 1275.05L1773.04 1267.34L1773.93 1260.02L1774.34 1253.04L1774.33 1246.35L1773.96 1239.91L1773.25 1233.71L1772.25 1227.71L1770.97 1221.91L1769.43 1216.29L1767.65 1210.84L1765.64 1205.55L1763.42 1200.4L1760.99 1195.41L1758.37 1190.55L1755.55 1185.82L1752.55 1181.22L1749.36 1176.76L1746 1172.41L1742.46 1168.19L1738.75 1164.09L1734.87 1160.11L1730.82 1156.25L1726.59 1152.51L1722.2 1148.88L1717.63 1145.39L1712.89 1142.01L1707.97 1138.75L1702.87 1135.63L1697.58 1132.63L1692.1 1129.77L1686.42 1127.05L1680.54 1124.46L1674.44 1122.04L1668.11 1119.77L1661.55 1117.66L1654.72 1115.74L1647.63 1114.02L1640.22 1112.5L1632.49 1111.21L1624.4 1110.18L1615.88 1109.44L1606.89 1109.04L1597.34 1109.03L1587.09 1109.5L1575.98 1110.58L1563.7 1112.48L1563.7 1112.48L1563.7 1112.48L1557.66 1114.46L1551.74 1116.53L1545.95 1118.67L1540.26 1120.9L1534.69 1123.2L1529.23 1125.58L1523.86 1128.03L1518.61 1130.55L1513.45 1133.14L1508.4 1135.8L1503.44 1138.52L1498.57 1141.31L1493.8 1144.17L1489.12 1147.09L1484.54 1150.07L1480.04 1153.11L1475.63 1156.22L1471.31 1159.39L1467.08 1162.62L1462.94 1165.91L1458.88 1169.25L1454.91 1172.66L1451.02 1176.13L1447.22 1179.65L1443.51 1183.24L1439.88 1186.88L1436.33 1190.59L1432.88 1194.35L1429.5 1198.17L1426.22 1202.05L1423.02 1206L1419.91 1210L1416.89 1214.06L1413.95 1218.19L1411.11 1222.37L1408.36 1226.63L1405.7 1230.94L1403.14 1235.32L1400.67 1239.77L1398.29 1244.28L1396.02 1248.86L1393.85 1253.51L1391.77 1258.23L1389.81 1263.02L1387.95 1267.9L1386.2 1272.84L1384.57 1277.86L1383.06 1282.97L1381.67 1288.16L1381.67 1288.16L1381.67 1288.16L1379.3 1278.66L1377.14 1269.19L1375.19 1259.76L1373.44 1250.36L1371.89 1240.99L1370.54 1231.64L1369.38 1222.33L1368.42 1213.05L1367.64 1203.79L1367.05 1194.57L1366.64 1185.37L1366.41 1176.2L1366.37 1167.05L1366.5 1157.94L1366.81 1148.85L1367.29 1139.79L1367.95 1130.76L1368.78 1121.75L1369.78 1112.77L1370.96 1103.81L1372.31 1094.88L1373.82 1085.98L1375.51 1077.1L1377.36 1068.25L1379.39 1059.43L1381.59 1050.63L1383.95 1041.85L1386.49 1033.11L1389.19 1024.38L1392.07 1015.69L1395.12 1007.02L1398.34 998.38L1401.74 989.77L1405.3 981.18L1409.05 972.62L1412.97 964.08L1417.07 955.57L1421.35 947.09L1425.81 938.64L1430.46 930.22L1435.29 921.82L1440.3 913.45L1445.51 905.11L1450.92 896.81L1456.52 888.53L1462.32 880.28L1468.32 872.06L1474.53 863.88L1480.96 855.73L1480.96 855.73L1480.96 855.73L1497.17 841.52L1512.7 829.67L1527.73 819.56L1542.37 810.82L1556.68 803.2L1570.72 796.54L1584.52 790.71L1598.11 785.6L1611.5 781.16L1624.73 777.31L1637.8 774.01L1650.72 771.22L1663.5 768.91L1676.16 767.05L1688.69 765.63L1701.1 764.6L1713.4 763.98L1725.59 763.73L1737.67 763.85L1749.65 764.33L1761.53 765.17L1773.3 766.35L1784.98 767.88L1796.56 769.75L1808.04 771.95L1819.43 774.5L1830.72 777.38L1841.9 780.61L1852.99 784.19L1863.97 788.12L1874.86 792.41L1885.63 797.07L1896.3 802.11L1906.85 807.54L1917.29 813.39L1927.6 819.66L1937.78 826.38L1947.82 833.58L1957.72 841.29L1967.46 849.55L1977.02 858.41L1986.4 867.92L1995.56 878.17L2004.49 889.24L2013.14 901.27L2021.47 914.43L2029.4 928.95L2036.83 945.22L2043.59 963.84L2043.59 963.84L2043.59 963.84L2043.58 963.92L2043.57 964.01L2043.57 964.09L2043.56 964.18L2043.55 964.27L2043.54 964.36L2043.53 964.46L2043.52 964.56L2043.51 964.66L2043.51 964.77L2043.49 964.87L2043.48 964.99L2043.47 965.1L2043.46 965.23L2043.45 965.36L2043.43 965.49L2043.42 965.64L2043.4 965.79L2043.39 965.95L2043.37 966.13L2043.35 966.34L2043.32 966.58L2043.29 966.87L2043.24 967.28L2043.17 967.86L2031.73 1005.54L2023.1 1020.25L2014.96 1031.03L2007.08 1039.68L1999.36 1046.95L1991.77 1053.18L1984.28 1058.61L1976.87 1063.38L1969.53 1067.59L1962.25 1071.31L1955.02 1074.61L1947.85 1077.51L1940.71 1080.06L1933.61 1082.28L1926.55 1084.2L1919.53 1085.82L1912.53 1087.18L1905.58 1088.27L1898.65 1089.12L1891.75 1089.72L1884.88 1090.08L1878.04 1090.2L1871.23 1090.11L1864.44 1089.78L1857.68 1089.23L1850.96 1088.45L1844.25 1087.45L1837.58 1086.21L1830.94 1084.75L1824.32 1083.05L1817.73 1081.1L1811.18 1078.9L1804.65 1076.44L1798.16 1073.71L1791.71 1070.69L1785.29 1067.37L1778.91 1063.71L1772.58 1059.71L1766.29 1055.31L1760.06 1050.49L1753.88 1045.17L1747.78 1039.3L1741.75 1032.76L1735.82 1025.42L1730.03 1017.06L1724.4 1007.3L1719.02 995.42L1714.14 979.6L1712.06 940.82L1712.16 940.01L1712.21 939.67L1712.24 939.41L1712.27 939.2L1712.3 939.01L1712.32 938.83L1712.35 938.67L1712.37 938.52L1712.39 938.39L1712.41 938.26L1712.42 938.13L1712.44 938.01L1712.46 937.9L1712.48 937.79L1712.49 937.68L1712.51 937.58L1712.52 937.48L1712.54 937.38L1712.55 937.29L1712.57 937.2L1712.58 937.11L1712.6 937.02L1712.61 936.93L1712.62 936.85L1712.63 936.81L1712.63 936.81L1712.63 936.81L1711.8 938.36L1710.97 939.95L1710.13 941.58L1709.29 943.25L1708.45 944.97L1707.61 946.74L1706.76 948.56L1705.9 950.44L1705.05 952.38L1704.18 954.39L1703.31 956.48L1702.44 958.65L1701.55 960.91L1700.66 963.29L1699.76 965.78L1698.85 968.42L1697.92 971.22L1696.98 974.23L1696.03 977.49L1695.04 981.07L1694.02 985.09L1692.96 989.75L1691.8 995.51L1690.45 1003.9L1689.22 1015.41L1695.75 1081.15L1705.27 1107.76L1715.31 1127.64L1725.62 1143.92L1736.11 1157.82L1746.74 1169.97L1757.48 1180.75L1768.3 1190.41L1779.19 1199.11L1790.14 1206.98L1801.16 1214.12L1812.22 1220.59L1823.33 1226.46L1834.48 1231.78L1845.68 1236.57L1856.91 1240.88L1868.17 1244.71L1879.47 1248.11L1890.8 1251.07L1902.17 1253.62L1913.56 1255.76L1924.99 1257.51L1936.44 1258.87L1947.93 1259.84L1959.44 1260.42L1970.99 1260.63L1982.56 1260.45L1994.16 1259.87L2005.8 1258.9L2017.46 1257.53L2029.15 1255.74L2040.88 1253.53L2052.65 1250.87L2064.44 1247.74L2076.28 1244.12L2088.16 1239.98L2100.07 1235.29L2112.04 1229.99L2124.06 1224.02L2136.13 1217.33L2148.26 1209.8L2160.47 1201.32L2172.76 1191.71L2185.16 1180.74L2197.7 1168.01L2210.41 1152.9L2223.4 1134.2L2236.91 1108.77L2253.41 1044.21L2253.95 1027.87L2253.76 1021.1L2253.45 1015.9L2253.07 1011.53L2252.65 1007.67L2252.21 1004.19L2251.75 1000.99L2251.26 998.02L2250.77 995.23L2250.26 992.59L2249.74 990.09L2249.21 987.7L2248.68 985.41L2248.14 983.21L2247.59 981.09L2247.04 979.04L2246.48 977.06L2245.91 975.14L2245.35 973.28L2244.78 971.46L2244.2 969.69L2243.62 967.97L2243.04 966.29L2242.46 964.64L2242.17 963.84L2242.17 963.84L2242.17 963.84L2219.88 920.3L2197.59 885.92L2175.3 857.13L2153.01 832.28L2130.72 810.44L2108.43 791.01L2086.14 773.6L2063.85 757.91L2041.56 743.73L2019.27 730.9L1996.98 719.3L1974.69 708.81L1952.4 699.36L1930.12 690.87L1907.83 683.3L1885.54 676.6L1863.25 670.72L1840.96 665.64L1818.67 661.33L1796.38 657.77L1774.09 654.94L1751.8 652.83L1729.52 651.43L1707.22 650.73L1684.93 650.73L1662.64 651.43L1640.36 652.83L1618.07 654.94L1595.78 657.77L1573.49 661.33L1551.2 665.64L1528.91 670.72L1506.62 676.6L1484.33 683.3L1462.04 690.87L1439.75 699.36L1417.47 708.81L1395.18 719.3L1372.89 730.9L1350.6 743.73L1328.31 757.91L1306.02 773.6L1283.73 791.01L1261.44 810.44L1239.15 832.28L1216.86 857.13L1194.57 885.92L1172.28 920.3L1149.99 963.84L1149.99 963.84L1149.99 963.84L1127.71 920.3L1105.42 885.92L1083.13 857.13L1060.84 832.28L1038.55 810.44L1016.26 791.01L993.97 773.6L971.68 757.91L949.39 743.73L927.1 730.9L904.81 719.3L882.52 708.81L860.23 699.36L837.94 690.87L815.66 683.3L793.37 676.6L771.08 670.72L748.79 665.64L726.5 661.33L704.21 657.77L681.92 654.94L659.63 652.83L637.34 651.43L615.05 650.73L592.77 650.73L570.48 651.43L548.19 652.83L525.9 654.94L503.61 657.77L481.32 661.33L459.03 665.64L436.74 670.72L414.45 676.6L392.16 683.3L369.87 690.87L347.58 699.36L325.29 708.81L303.01 719.3L280.72 730.9L258.43 743.73L236.14 757.91L213.85 773.6L191.56 791.01L169.27 810.44L146.98 832.28L124.69 857.13L102.4 885.92L80.11 920.3L57.82 963.84L57.82 963.84L57.82 963.84L57.24 965.46L56.65 967.12L56.08 968.83L55.5 970.57L54.92 972.36L54.36 974.2L53.79 976.1L53.23 978.05L52.68 980.06L52.13 982.14L51.58 984.3L51.04 986.54L50.51 988.88L49.99 991.33L49.48 993.89L48.97 996.6L48.48 999.48L48.01 1002.56L47.55 1005.89L47.12 1009.54L46.73 1013.63L46.38 1018.37L46.12 1024.2L46.05 1032.66L46.58 1044.21L63.08 1108.77L76.59 1134.2L89.58 1152.9L102.29 1168.01L114.82 1180.74L127.22 1191.71L139.52 1201.32L151.73 1209.8L163.86 1217.33L175.93 1224.02L187.95 1229.99L199.91 1235.29L211.83 1239.98L223.71 1244.12L235.54 1247.74L247.34 1250.87L259.1 1253.53L270.84 1255.74L282.53 1257.53L294.19 1258.9L305.83 1259.87L317.43 1260.45L329 1260.63L340.55 1260.42L352.06 1259.84L363.55 1258.87L375 1257.51L386.43 1255.76L397.82 1253.62L409.18 1251.07L420.52 1248.11L431.82 1244.71L443.08 1240.88L454.31 1236.57L465.5 1231.78L476.66 1226.46L487.77 1220.59L498.83 1214.12L509.84 1206.98L520.8 1199.11L531.69 1190.41L542.51 1180.75L553.25 1169.97L563.88 1157.82L574.37 1143.92L584.68 1127.64L594.72 1107.76L604.25 1081.15L610.77 1015.41L608.82 999.15L607.59 992.45L606.49 987.32L605.45 983.02L604.45 979.23L603.48 975.83L602.53 972.7L601.6 969.8L600.68 967.08L599.78 964.52L598.88 962.08L598 959.77L597.11 957.55L596.24 955.42L595.37 953.38L594.51 951.4L593.66 949.5L592.81 947.64L591.96 945.85L591.12 944.11L590.27 942.41L589.44 940.76L588.6 939.15L587.78 937.58L587.36 936.81L587.36 936.81L587.36 936.81L587.37 936.89L587.39 936.97L587.4 937.06L587.42 937.15L587.43 937.24L587.44 937.33L587.46 937.43L587.47 937.53L587.49 937.63L587.5 937.73L587.52 937.84L587.54 937.95L587.56 938.07L587.57 938.19L587.59 938.32L587.61 938.45L587.63 938.6L587.65 938.75L587.68 938.92L587.7 939.1L587.73 939.3L587.76 939.54L587.8 939.82L587.86 940.25L587.93 940.82L585.85 979.6L580.96 995.42L575.59 1007.3L569.96 1017.06L564.16 1025.42L558.24 1032.76L552.21 1039.3L546.11 1045.17L539.93 1050.49L533.7 1055.31L527.41 1059.71L521.08 1063.71L514.7 1067.37L508.28 1070.69L501.83 1073.71L495.34 1076.44L488.81 1078.9L482.26 1081.1L475.67 1083.05L469.05 1084.75L462.41 1086.21L455.74 1087.45L449.03 1088.45L442.3 1089.23L435.55 1089.78L428.76 1090.11L421.95 1090.2L415.11 1090.08L408.24 1089.72L401.34 1089.12L394.41 1088.27L387.45 1087.18L380.46 1085.82L373.44 1084.2L366.38 1082.28L359.28 1080.06L352.15 1077.51L344.96 1074.61L337.74 1071.31L330.46 1067.59L323.11 1063.38L315.71 1058.61L308.22 1053.18L300.63 1046.95L292.91 1039.68L285.03 1031.03L276.89 1020.25L268.26 1005.54L256.82 967.86L256.72 967.05L256.69 966.71L256.66 966.45L256.63 966.23L256.61 966.04L256.59 965.87L256.58 965.71L256.56 965.56L256.55 965.42L256.53 965.29L256.52 965.17L256.51 965.04L256.5 964.93L256.49 964.82L256.48 964.71L256.47 964.61L256.46 964.51L256.45 964.41L256.44 964.32L256.43 964.23L256.43 964.13L256.42 964.05L256.41 963.96L256.4 963.88L256.4 963.84L256.4 963.84L256.4 963.84L263.15 945.22L270.58 928.95L278.52 914.43L286.85 901.27L295.5 889.24L304.42 878.17L313.59 867.92L322.97 858.41L332.53 849.55L342.27 841.29L352.17 833.58L362.21 826.38L372.39 819.66L382.7 813.39L393.14 807.54L403.69 802.11L414.35 797.07L425.13 792.41L436.01 788.12L447 784.19L458.09 780.61L469.28 777.38L480.56 774.5L491.94 771.95L503.43 769.75L515.01 767.88L526.68 766.35L538.46 765.17L550.34 764.33L562.32 763.85L574.4 763.73L586.59 763.98L598.89 764.6L611.3 765.63L623.83 767.05L636.49 768.91L649.27 771.22L662.19 774.01L675.26 777.31L688.49 781.16L701.88 785.6L715.47 790.71L729.27 796.54L743.31 803.2L757.62 810.82L772.26 819.56L787.29 829.67L802.82 841.52L819.04 855.73L819.04 855.73L819.04 855.73L825.46 863.88L831.67 872.06L837.67 880.28L843.47 888.53L849.07 896.81L854.47 905.11L859.68 913.45L864.7 921.82L869.53 930.22L874.18 938.64L878.64 947.09L882.92 955.57L887.02 964.08L890.94 972.62L894.68 981.18L898.25 989.77L901.65 998.38L904.87 1007.02L907.92 1015.69L910.79 1024.38L913.5 1033.11L916.04 1041.85L918.4 1050.63L920.6 1059.43L922.62 1068.25L924.48 1077.1L926.17 1085.98L927.68 1094.88L929.03 1103.81L930.21 1112.77L931.21 1121.75L932.04 1130.76L932.7 1139.79L933.18 1148.85L933.49 1157.94L933.62 1167.05L933.58 1176.2L933.35 1185.37L932.94 1194.57L932.35 1203.79L931.57 1213.05L930.6 1222.33L929.45 1231.64L928.1 1240.99L926.55 1250.36L924.8 1259.76L922.85 1269.19L920.69 1278.66L918.32 1288.16L918.32 1288.16L918.32 1288.16L916.93 1282.97L915.41 1277.86L913.78 1272.84L912.04 1267.9L910.18 1263.02L908.22 1258.23L906.14 1253.51L903.97 1248.86L901.69 1244.28L899.32 1239.77L896.85 1235.32L894.29 1230.94L891.63 1226.63L888.88 1222.37L886.03 1218.19L883.1 1214.06L880.08 1210L876.97 1206L873.77 1202.05L870.49 1198.17L867.11 1194.35L863.66 1190.59L860.11 1186.88L856.48 1183.24L852.77 1179.65L848.97 1176.13L845.08 1172.66L841.11 1169.25L837.05 1165.91L832.91 1162.62L828.67 1159.39L824.36 1156.22L819.95 1153.11L815.45 1150.07L810.86 1147.09L806.19 1144.17L801.41 1141.31L796.55 1138.52L791.59 1135.8L786.53 1133.14L781.38 1130.55L776.12 1128.03L770.77 1125.58L765.3 1123.2L759.73 1120.9L754.05 1118.67L748.25 1116.53L742.33 1114.46L736.29 1112.48L736.29 1112.48L736.29 1112.48L724.01 1110.58L712.9 1109.5L702.66 1109.03L693.1 1109.04L684.11 1109.44L675.59 1110.18L667.5 1111.21L659.76 1112.5L652.37 1114.02L645.26 1115.74L638.44 1117.66L631.88 1119.77L625.55 1122.04L619.45 1124.46L613.57 1127.05L607.89 1129.77L602.41 1132.63L597.12 1135.63L592.02 1138.75L587.1 1142.01L582.35 1145.39L577.79 1148.88L573.39 1152.51L569.17 1156.25L565.12 1160.11L561.24 1164.09L557.53 1168.19L553.99 1172.41L550.63 1176.76L547.44 1181.22L544.44 1185.82L541.62 1190.55L539 1195.41L536.57 1200.4L534.34 1205.55L532.34 1210.84L530.56 1216.29L529.02 1221.91L527.74 1227.71L526.74 1233.71L526.03 1239.91L525.66 1246.35L525.65 1253.04L526.05 1260.02L526.94 1267.34L528.39 1275.05L530.53 1283.25L533.54 1292.05L537.72 1301.67L537.72 1301.67L537.72 1301.67L543.06 1311.53L548.16 1318.78L553.13 1324.64L558.01 1329.57L562.83 1333.84L567.59 1337.57L572.32 1340.87L577.02 1343.8L581.68 1346.42L586.31 1348.75L590.93 1350.83L595.52 1352.68L600.09 1354.31L604.64 1355.75L609.17 1357.01L613.69 1358.08L618.19 1358.99L622.68 1359.74L627.15 1360.33L631.61 1360.78L636.05 1361.07L640.48 1361.22L644.9 1361.22L649.31 1361.09L653.69 1360.81L658.07 1360.39L662.43 1359.84L666.79 1359.14L671.12 1358.29L675.44 1357.3L679.75 1356.16L684.05 1354.86L688.33 1353.4L692.59 1351.77L696.84 1349.96L701.07 1347.97L705.27 1345.78L709.46 1343.38L713.63 1340.75L717.78 1337.87L721.9 1334.7L725.99 1331.22L730.04 1327.37L734.05 1323.08L738.01 1318.27L741.91 1312.78L745.72 1306.37L749.41 1298.57L752.84 1288.16L752.84 1288.16L752.84 1288.16L757.93 1289.68L762.95 1291.26L767.91 1292.91L772.8 1294.61L777.63 1296.36L782.41 1298.17L787.12 1300.04L791.77 1301.95L796.36 1303.92L800.89 1305.95L805.37 1308.02L809.78 1310.14L814.15 1312.32L818.45 1314.55L822.71 1316.82L826.9 1319.15L831.04 1321.52L835.13 1323.95L839.17 1326.42L843.15 1328.94L847.08 1331.5L850.95 1334.12L854.77 1336.78L858.54 1339.49L862.25 1342.25L865.92 1345.05L869.52 1347.91L873.08 1350.81L876.58 1353.76L880.03 1356.75L883.43 1359.79L886.77 1362.89L890.06 1366.03L893.29 1369.22L896.47 1372.46L899.59 1375.75L902.66 1379.09L905.67 1382.48L908.62 1385.92L911.52 1389.42L914.36 1392.96L917.14 1396.56L919.86 1400.21L922.52 1403.92L925.12 1407.68L927.65 1411.49L930.12 1415.37L932.53 1419.3L934.87 1423.3L934.87 1423.3L934.87 1423.3L933.11 1422.58L931.31 1421.89L929.46 1421.19L927.56 1420.52L925.6 1419.86L923.58 1419.22L921.5 1418.58L919.35 1417.97L917.13 1417.37L914.82 1416.8L912.43 1416.24L909.95 1415.71L907.35 1415.21L904.63 1414.73L901.77 1414.29L898.76 1413.89L895.55 1413.53L892.13 1413.23L888.43 1413L884.38 1412.85L879.85 1412.82L874.64 1412.95L868.26 1413.37L859.09 1414.48L846.82 1416.91L815.94 1428.63L804.45 1435.59L796.29 1441.73L789.91 1447.44L784.71 1452.87L780.38 1458.07L776.73 1463.12L773.63 1468.02L771.01 1472.81L768.79 1477.5L766.95 1482.1L765.43 1486.62L764.21 1491.07L763.26 1495.44L762.58 1499.76L762.13 1504.01L761.92 1508.21L761.93 1512.36L762.15 1516.45L762.58 1520.49L763.2 1524.48L764.03 1528.43L765.04 1532.33L766.25 1536.18L767.65 1539.98L769.24 1543.74L771.01 1547.45L772.99 1551.12L775.16 1554.73L777.52 1558.3L780.1 1561.81L782.88 1565.28L785.89 1568.69L789.13 1572.04L792.61 1575.34L796.35 1578.57L800.37 1581.73L804.68 1584.82L809.33 1587.83L814.33 1590.75L819.75 1593.57L825.64 1596.27L832.09 1598.84L839.22 1601.24L847.21 1603.43L856.39 1605.33L867.34 1606.79L881.63 1607.44L915.31 1603.34L931.98 1598.11L938.59 1595.35L943.53 1593L947.59 1590.86L951.09 1588.86L954.19 1586.96L956.97 1585.14L959.51 1583.38L961.85 1581.67L964.01 1579.99L966.03 1578.36L967.92 1576.76L969.69 1575.18L971.36 1573.63L972.94 1572.1L974.43 1570.6L975.85 1569.11L977.19 1567.64L978.47 1566.18L979.69 1564.74L980.85 1563.32L981.96 1561.91L983.02 1560.51L984.03 1559.12L984.51 1558.43L984.51 1558.43L984.51 1558.43L981.04 1563.83L977.9 1569.16L975.09 1574.42L972.56 1579.62L970.3 1584.77L968.3 1589.87L966.53 1594.92L964.99 1599.92L963.66 1604.88L962.53 1609.8L961.61 1614.68L960.87 1619.52L960.31 1624.32L959.93 1629.08L959.72 1633.82L959.67 1638.51L959.79 1643.18L960.07 1647.81L960.51 1652.41L961.1 1656.97L961.85 1661.51L962.75 1666.02L963.8 1670.49L965 1674.93L966.35 1679.34L967.85 1683.73L969.51 1688.08L971.31 1692.4L973.26 1696.69L975.37 1700.95L977.63 1705.17L980.06 1709.37L982.64 1713.53L985.38 1717.66L988.3 1721.75L991.38 1725.81L994.64 1729.83L998.08 1733.82L1001.71 1737.76L1005.54 1741.67L1009.57 1745.54L1013.81 1749.36L1018.28 1753.14L1022.98 1756.86L1027.94 1760.54L1033.17 1764.16L1038.69 1767.72L1044.53 1771.22L1050.71 1774.64L1050.71 1774.64L1050.71 1774.64L1048.75 1779.73L1046.97 1784.78L1045.37 1789.8L1043.94 1794.78L1042.67 1799.72L1041.57 1804.64L1040.62 1809.52L1039.82 1814.37L1039.16 1819.2L1038.64 1823.99L1038.26 1828.76L1038.02 1833.5L1037.9 1838.21L1037.92 1842.89L1038.07 1847.55L1038.34 1852.18L1038.73 1856.79L1039.25 1861.37L1039.89 1865.93L1040.65 1870.47L1041.53 1874.97L1042.52 1879.46L1043.64 1883.92L1044.87 1888.36L1046.22 1892.77L1047.69 1897.16L1049.28 1901.52L1050.98 1905.86L1052.8 1910.18L1054.75 1914.47L1056.81 1918.74L1059 1922.98L1061.3 1927.2L1063.73 1931.39L1066.29 1935.55L1068.97 1939.7L1071.79 1943.81L1074.73 1947.9L1077.81 1951.96L1081.03 1955.99L1084.39 1959.99L1087.9 1963.96L1091.55 1967.91L1095.36 1971.82L1099.33 1975.69L1103.46 1979.54L1107.76 1983.35L1112.24 1987.12L1116.9 1990.86L1116.9 1990.86L1149.99 1990.86L1183.09 1990.86Z" id="b48xye3FxP"></path><path d="M1149.23 1678.83L1148.71 1669.26L1148.07 1659.72L1147.32 1650.21L1146.46 1640.74L1145.48 1631.3L1144.4 1621.89L1143.2 1612.51L1141.89 1603.17L1140.48 1593.86L1138.95 1584.58L1137.32 1575.33L1135.58 1566.12L1133.73 1556.93L1131.78 1547.78L1129.72 1538.66L1127.56 1529.56L1125.29 1520.5L1122.92 1511.47L1120.43 1502.47L1117.85 1493.5L1115.16 1484.57L1112.37 1475.66L1109.48 1466.78L1106.47 1457.94L1103.37 1449.12L1100.16 1440.33L1096.85 1431.58L1093.43 1422.85L1089.91 1414.16L1086.29 1405.5L1082.56 1396.87L1078.72 1388.26L1074.78 1379.69L1070.74 1371.15L1066.59 1362.64L1062.33 1354.17L1057.97 1345.72L1053.5 1337.3L1048.93 1328.92L1044.24 1320.57L1039.45 1312.25L1034.55 1303.96L1029.54 1295.7L1024.41 1287.48L1019.18 1279.29L1013.83 1271.13L1008.38 1263L1002.81 1254.91L997.12 1246.85L997.12 1246.85L1150.77 1095.73L1302.88 1250.01L1302.88 1250.01L1297.17 1257.99L1291.57 1266.01L1286.08 1274.06L1280.71 1282.14L1275.45 1290.26L1270.3 1298.41L1265.26 1306.59L1260.33 1314.81L1255.51 1323.05L1250.79 1331.33L1246.19 1339.65L1241.69 1347.99L1237.3 1356.37L1233.01 1364.78L1228.83 1373.22L1224.76 1381.69L1220.79 1390.19L1216.93 1398.72L1213.17 1407.29L1209.51 1415.89L1205.96 1424.51L1202.51 1433.17L1199.17 1441.86L1195.93 1450.58L1192.8 1459.34L1189.76 1468.12L1186.84 1476.93L1184.01 1485.77L1181.29 1494.65L1178.67 1503.56L1176.16 1512.49L1173.76 1521.46L1171.45 1530.46L1169.26 1539.49L1167.16 1548.56L1165.18 1557.65L1163.3 1566.78L1161.52 1575.94L1159.86 1585.13L1158.3 1594.35L1156.85 1603.6L1155.51 1612.89L1154.28 1622.21L1153.16 1631.57L1152.14 1640.95L1151.25 1650.37L1150.46 1659.82L1149.79 1669.31L1149.23 1678.83L1149.23 1678.83L1149.23 1678.83Z" id="g1unU4FqyQ"></path><path d="M1252.3 4534.6L1252.3 2204.36L1150 2204.36L1047.7 2204.36L1047.7 4534.6L1150 4534.6L1252.3 4534.6Z" id="d12e0oa5wm"></path><path d="M1215.67 2056.8L1215.67 2056.8L1221.97 2055.5L1225.18 2054.2L1227.59 2052.9L1229.55 2051.61L1231.22 2050.31L1232.68 2049.01L1233.96 2047.71L1235.1 2046.41L1236.12 2045.11L1237.04 2043.81L1237.87 2042.51L1238.61 2041.21L1239.28 2039.92L1239.87 2038.62L1240.4 2037.32L1240.87 2036.02L1241.28 2034.72L1241.64 2033.42L1241.93 2032.12L1242.18 2030.83L1242.38 2029.53L1242.52 2028.23L1242.62 2026.93L1242.67 2025.63L1242.67 2024.33L1242.62 2023.03L1242.52 2021.73L1242.38 2020.44L1242.18 2019.14L1241.93 2017.84L1241.64 2016.54L1241.28 2015.24L1240.87 2013.94L1240.4 2012.64L1239.87 2011.34L1239.28 2010.05L1238.61 2008.75L1237.87 2007.45L1237.04 2006.15L1236.12 2004.85L1235.1 2003.55L1233.96 2002.25L1232.68 2000.95L1231.22 1999.66L1229.55 1998.36L1227.59 1997.06L1225.18 1995.76L1221.97 1994.46L1215.67 1993.16L1215.67 1993.16L1151 1993.16L1084.33 1993.16L1084.33 1993.16L1078.03 1994.46L1074.82 1995.76L1072.41 1997.06L1070.45 1998.36L1068.78 1999.66L1067.32 2000.95L1066.04 2002.25L1064.9 2003.55L1063.88 2004.85L1062.96 2006.15L1062.13 2007.45L1061.39 2008.75L1060.72 2010.05L1060.13 2011.34L1059.6 2012.64L1059.13 2013.94L1058.72 2015.24L1058.36 2016.54L1058.07 2017.84L1057.82 2019.14L1057.62 2020.44L1057.48 2021.73L1057.38 2023.03L1057.33 2024.33L1057.33 2025.63L1057.38 2026.93L1057.48 2028.23L1057.62 2029.53L1057.82 2030.83L1058.07 2032.12L1058.36 2033.42L1058.72 2034.72L1059.13 2036.02L1059.6 2037.32L1060.13 2038.62L1060.72 2039.92L1061.39 2041.21L1062.13 2042.51L1062.96 2043.81L1063.88 2045.11L1064.9 2046.41L1066.04 2047.71L1067.32 2049.01L1068.78 2050.31L1070.45 2051.61L1072.41 2052.9L1074.82 2054.2L1078.03 2055.5L1084.33 2056.8L1084.33 2056.8L1149 2056.8L1215.67 2056.8Z" id="b4ktFZRbDI"></path><path d="M1257.78 2140.33L1257.78 2140.33L1266.23 2138.67L1271.54 2137.02L1275.64 2135.36L1279.04 2133.7L1281.95 2132.05L1284.49 2130.39L1286.75 2128.73L1288.76 2127.07L1290.56 2125.42L1292.19 2123.76L1293.64 2122.1L1294.96 2120.44L1296.14 2118.79L1297.2 2117.13L1298.14 2115.47L1298.98 2113.82L1299.7 2112.16L1300.33 2110.5L1300.87 2108.85L1301.31 2107.19L1301.66 2105.53L1301.92 2103.87L1302.09 2102.22L1302.17 2100.56L1302.17 2098.9L1302.09 2097.25L1301.92 2095.59L1301.66 2093.93L1301.31 2092.28L1300.87 2090.62L1300.33 2088.96L1299.7 2087.3L1298.98 2085.64L1298.14 2083.99L1297.2 2082.33L1296.14 2080.67L1294.96 2079.02L1293.64 2077.36L1292.19 2075.7L1290.56 2074.05L1288.76 2072.39L1286.75 2070.73L1284.49 2069.07L1281.95 2067.42L1279.04 2065.76L1275.64 2064.1L1271.54 2062.45L1266.23 2060.79L1257.78 2059.13L1257.78 2059.13L1151.71 2059.13L1042.22 2059.13L1042.22 2059.13L1033.77 2060.79L1028.46 2062.45L1024.36 2064.1L1020.97 2065.76L1018.05 2067.42L1015.51 2069.07L1013.25 2070.73L1011.25 2072.39L1009.44 2074.05L1007.82 2075.7L1006.36 2077.36L1005.04 2079.02L1003.86 2080.67L1002.8 2082.33L1001.86 2083.99L1001.03 2085.64L1000.3 2087.3L999.67 2088.96L999.14 2090.62L998.69 2092.28L998.34 2093.93L998.08 2095.59L997.91 2097.25L997.83 2098.9L997.83 2100.56L997.91 2102.22L998.08 2103.87L998.34 2105.53L998.69 2107.19L999.14 2108.85L999.67 2110.5L1000.3 2112.16L1001.03 2113.82L1001.86 2115.47L1002.8 2117.13L1003.86 2118.79L1005.04 2120.44L1006.36 2122.1L1007.82 2123.76L1009.44 2125.42L1011.25 2127.07L1013.25 2128.73L1015.51 2130.39L1018.05 2132.05L1020.97 2133.7L1024.36 2135.36L1028.46 2137.02L1033.77 2138.67L1042.22 2140.33L1042.22 2140.33L1148.29 2140.33L1257.78 2140.33Z" id="aG0tQY77o"></path><path d="M1247.87 2195.96L1247.87 2195.96L1259.12 2194.83L1263.68 2193.7L1267.07 2192.57L1269.83 2191.43L1272.17 2190.3L1274.2 2189.17L1275.99 2188.04L1277.58 2186.9L1279.01 2185.77L1280.29 2184.64L1281.44 2183.51L1282.47 2182.37L1283.4 2181.24L1284.23 2180.11L1284.97 2178.98L1285.62 2177.85L1286.19 2176.71L1286.68 2175.58L1287.1 2174.45L1287.44 2173.32L1287.72 2172.18L1287.92 2171.05L1288.06 2169.92L1288.13 2168.79L1288.13 2167.65L1288.06 2166.52L1287.92 2165.39L1287.72 2164.26L1287.44 2163.13L1287.1 2161.99L1286.68 2160.86L1286.19 2159.73L1285.62 2158.6L1284.97 2157.47L1284.23 2156.33L1283.4 2155.2L1282.47 2154.07L1281.44 2152.93L1280.29 2151.8L1279.01 2150.67L1277.58 2149.54L1275.99 2148.41L1274.2 2147.27L1272.17 2146.14L1269.83 2145.01L1267.07 2143.88L1263.68 2142.75L1259.12 2141.61L1247.87 2140.48L1247.87 2140.48L1151.49 2140.48L1052.13 2140.48L1052.13 2140.48L1040.88 2141.61L1036.31 2142.75L1032.92 2143.88L1030.17 2145.01L1027.83 2146.14L1025.8 2147.27L1024.01 2148.41L1022.42 2149.54L1020.99 2150.67L1019.71 2151.8L1018.56 2152.93L1017.53 2154.07L1016.6 2155.2L1015.77 2156.33L1015.03 2157.47L1014.38 2158.6L1013.81 2159.73L1013.32 2160.86L1012.9 2161.99L1012.56 2163.13L1012.28 2164.26L1012.08 2165.39L1011.94 2166.52L1011.87 2167.65L1011.87 2168.79L1011.94 2169.92L1012.08 2171.05L1012.28 2172.18L1012.56 2173.32L1012.9 2174.45L1013.32 2175.58L1013.81 2176.71L1014.38 2177.85L1015.03 2178.98L1015.77 2180.11L1016.6 2181.24L1017.53 2182.37L1018.56 2183.51L1019.71 2184.64L1020.99 2185.77L1022.42 2186.9L1024.01 2188.04L1025.8 2189.17L1027.83 2190.3L1030.17 2191.43L1032.92 2192.57L1036.31 2193.7L1040.88 2194.83L1052.13 2195.96L1052.13 2195.96L1148.51 2195.96L1247.87 2195.96Z" id="c43eeTIIsm"></path><path d="M1241.36 2225.09L1241.36 2225.09L1241.54 2225.12L1241.72 2225.15L1241.91 2225.18L1242.1 2225.2L1242.29 2225.23L1242.49 2225.26L1242.7 2225.29L1242.92 2225.32L1243.14 2225.34L1243.36 2225.37L1243.6 2225.4L1243.85 2225.43L1244.1 2225.46L1244.37 2225.49L1244.65 2225.51L1244.95 2225.54L1245.26 2225.57L1245.6 2225.6L1245.97 2225.63L1246.36 2225.65L1246.81 2225.68L1247.33 2225.71L1247.97 2225.74L1248.91 2225.77L1250.18 2225.78L1258.28 2225.2L1261.52 2224.62L1263.92 2224.05L1265.87 2223.47L1267.53 2222.89L1268.96 2222.32L1270.23 2221.74L1271.36 2221.16L1272.37 2220.58L1273.27 2220.01L1274.09 2219.43L1274.82 2218.85L1275.48 2218.27L1276.06 2217.7L1276.59 2217.12L1277.05 2216.54L1277.45 2215.96L1277.8 2215.38L1278.1 2214.81L1278.34 2214.23L1278.53 2213.65L1278.68 2213.07L1278.77 2212.5L1278.82 2211.92L1278.82 2211.34L1278.77 2210.76L1278.68 2210.19L1278.53 2209.61L1278.34 2209.03L1278.1 2208.45L1277.8 2207.87L1277.45 2207.3L1277.05 2206.72L1276.59 2206.15L1276.06 2205.57L1275.48 2204.99L1274.82 2204.41L1274.09 2203.83L1273.27 2203.26L1272.37 2202.68L1271.36 2202.1L1270.23 2201.52L1268.96 2200.95L1267.53 2200.37L1265.87 2199.79L1263.92 2199.21L1261.52 2198.64L1258.28 2198.06L1250.18 2197.48L1248.38 2197.51L1247.64 2197.54L1247.06 2197.57L1246.58 2197.59L1246.16 2197.62L1245.78 2197.65L1245.43 2197.68L1245.1 2197.7L1244.79 2197.73L1244.51 2197.76L1244.23 2197.79L1243.97 2197.82L1243.72 2197.84L1243.48 2197.87L1243.25 2197.9L1243.02 2197.93L1242.81 2197.96L1242.6 2197.99L1242.39 2198.01L1242.2 2198.04L1242 2198.07L1241.81 2198.1L1241.63 2198.13L1241.45 2198.15L1241.36 2198.17L1241.36 2198.17L1151.55 2198.17L1058.64 2198.17L1058.64 2198.17L1058.46 2198.14L1058.28 2198.11L1058.09 2198.08L1057.9 2198.06L1057.71 2198.03L1057.51 2198L1057.3 2197.97L1057.09 2197.94L1056.86 2197.91L1056.64 2197.89L1056.4 2197.86L1056.16 2197.83L1055.9 2197.8L1055.63 2197.77L1055.35 2197.75L1055.05 2197.72L1054.74 2197.69L1054.4 2197.66L1054.04 2197.63L1053.64 2197.61L1053.19 2197.58L1052.67 2197.55L1052.03 2197.52L1051.09 2197.5L1049.82 2197.48L1041.72 2198.06L1038.48 2198.64L1036.08 2199.21L1034.13 2199.79L1032.47 2200.37L1031.04 2200.95L1029.77 2201.52L1028.64 2202.1L1027.64 2202.68L1026.73 2203.26L1025.91 2203.83L1025.18 2204.41L1024.52 2204.99L1023.94 2205.57L1023.41 2206.15L1022.95 2206.72L1022.55 2207.3L1022.2 2207.87L1021.9 2208.45L1021.66 2209.03L1021.47 2209.61L1021.32 2210.19L1021.23 2210.76L1021.18 2211.34L1021.18 2211.92L1021.23 2212.5L1021.32 2213.07L1021.47 2213.65L1021.66 2214.23L1021.9 2214.81L1022.2 2215.38L1022.55 2215.96L1022.95 2216.54L1023.41 2217.12L1023.94 2217.7L1024.52 2218.27L1025.18 2218.85L1025.91 2219.43L1026.73 2220.01L1027.64 2220.58L1028.64 2221.16L1029.77 2221.74L1031.04 2222.32L1032.47 2222.89L1034.13 2223.47L1036.08 2224.05L1038.48 2224.62L1041.72 2225.2L1049.82 2225.78L1051.62 2225.75L1052.37 2225.73L1052.94 2225.7L1053.42 2225.67L1053.84 2225.64L1054.23 2225.61L1054.58 2225.58L1054.9 2225.56L1055.21 2225.53L1055.49 2225.5L1055.77 2225.47L1056.03 2225.44L1056.28 2225.41L1056.52 2225.39L1056.75 2225.36L1056.98 2225.33L1057.2 2225.3L1057.4 2225.27L1057.61 2225.25L1057.8 2225.22L1058 2225.19L1058.19 2225.16L1058.37 2225.14L1058.55 2225.11L1058.64 2225.09L1058.64 2225.09L1148.45 2225.09L1241.36 2225.09Z" id="f37EsgniTE"></path><path d="M1241.01 4558.84L1241.01 4558.84L1241.27 4559.13L1241.55 4559.42L1241.83 4559.72L1242.13 4560.01L1242.44 4560.3L1242.76 4560.6L1243.1 4560.89L1243.46 4561.18L1243.82 4561.47L1244.21 4561.76L1244.62 4562.06L1245.05 4562.35L1245.51 4562.64L1245.98 4562.93L1246.49 4563.23L1247.04 4563.52L1247.63 4563.81L1248.26 4564.11L1248.96 4564.4L1249.73 4564.69L1250.61 4564.98L1251.63 4565.27L1252.9 4565.57L1254.78 4565.86L1257.36 4566L1263.31 4565.21L1265.69 4564.42L1267.46 4563.63L1268.89 4562.84L1270.11 4562.05L1271.17 4561.25L1272.1 4560.46L1272.93 4559.67L1273.67 4558.88L1274.34 4558.08L1274.94 4557.29L1275.48 4556.5L1275.96 4555.71L1276.39 4554.92L1276.77 4554.13L1277.12 4553.33L1277.41 4552.54L1277.67 4551.75L1277.89 4550.96L1278.07 4550.16L1278.21 4549.37L1278.31 4548.58L1278.38 4547.79L1278.42 4547L1278.42 4546.2L1278.38 4545.41L1278.31 4544.62L1278.21 4543.83L1278.07 4543.03L1277.89 4542.24L1277.67 4541.45L1277.41 4540.66L1277.12 4539.87L1276.77 4539.08L1276.39 4538.28L1275.96 4537.49L1275.48 4536.7L1274.94 4535.91L1274.34 4535.11L1273.67 4534.32L1272.93 4533.53L1272.1 4532.74L1271.17 4531.95L1270.11 4531.16L1268.89 4530.36L1267.46 4529.57L1265.69 4528.78L1263.31 4527.99L1257.36 4527.19L1253.72 4527.49L1252.23 4527.78L1251.09 4528.07L1250.15 4528.37L1249.34 4528.66L1248.6 4528.95L1247.94 4529.24L1247.33 4529.53L1246.76 4529.83L1246.23 4530.12L1245.74 4530.41L1245.27 4530.7L1244.83 4531L1244.41 4531.29L1244.02 4531.58L1243.64 4531.88L1243.28 4532.17L1242.93 4532.46L1242.6 4532.75L1242.28 4533.04L1241.98 4533.34L1241.69 4533.63L1241.41 4533.92L1241.14 4534.21L1241.01 4534.36L1241.01 4534.36L1151.33 4534.36L1058.99 4534.36L1058.99 4534.36L1058.73 4534.07L1058.45 4533.78L1058.17 4533.48L1057.87 4533.19L1057.56 4532.9L1057.24 4532.61L1056.9 4532.31L1056.54 4532.02L1056.17 4531.73L1055.79 4531.44L1055.38 4531.15L1054.95 4530.85L1054.49 4530.56L1054.02 4530.27L1053.5 4529.97L1052.96 4529.68L1052.37 4529.39L1051.74 4529.1L1051.04 4528.8L1050.27 4528.51L1049.39 4528.22L1048.37 4527.93L1047.1 4527.64L1045.22 4527.34L1042.64 4527.19L1036.69 4527.99L1034.31 4528.78L1032.54 4529.57L1031.11 4530.36L1029.89 4531.16L1028.83 4531.95L1027.9 4532.74L1027.07 4533.53L1026.33 4534.32L1025.66 4535.11L1025.06 4535.91L1024.52 4536.7L1024.04 4537.49L1023.61 4538.28L1023.22 4539.08L1022.88 4539.87L1022.59 4540.66L1022.33 4541.45L1022.11 4542.24L1021.93 4543.03L1021.79 4543.83L1021.68 4544.62L1021.62 4545.41L1021.58 4546.2L1021.58 4547L1021.62 4547.79L1021.68 4548.58L1021.79 4549.37L1021.93 4550.16L1022.11 4550.96L1022.33 4551.75L1022.59 4552.54L1022.88 4553.33L1023.22 4554.13L1023.61 4554.92L1024.04 4555.71L1024.52 4556.5L1025.06 4557.29L1025.66 4558.08L1026.33 4558.88L1027.07 4559.67L1027.9 4560.46L1028.83 4561.25L1029.89 4562.05L1031.11 4562.84L1032.54 4563.63L1034.31 4564.42L1036.69 4565.21L1042.64 4566L1046.28 4565.71L1047.77 4565.42L1048.9 4565.13L1049.85 4564.84L1050.66 4564.54L1051.4 4564.25L1052.06 4563.96L1052.67 4563.66L1053.24 4563.37L1053.77 4563.08L1054.26 4562.79L1054.73 4562.49L1055.17 4562.2L1055.59 4561.91L1055.98 4561.62L1056.36 4561.33L1056.72 4561.03L1057.07 4560.74L1057.4 4560.45L1057.72 4560.15L1058.02 4559.86L1058.31 4559.57L1058.59 4559.28L1058.86 4558.98L1058.99 4558.84L1058.99 4558.84L1148.67 4558.84L1241.01 4558.84Z" id="b2Uf0e9Gs6"></path><path d="M1150 3900.96L1548.59 3900.96L1548.59 4227.32L1776.35 4227.32L1776.35 4172.93L1605.53 4172.93L1605.53 3900.96L1947.17 3900.96L1947.17 4064.14L1776.35 4064.14L1776.35 4118.53L1947.17 4118.53L1947.17 4336.11L1947.17 4390.5L1377.76 4390.5L1377.76 4064.14L1320.82 4064.14L1320.82 4390.5L1150 4390.5L1150 3900.96Z" id="biWwqfn3J"></path></defs><g><g><g><g><use xlink:href="#a1YnHzNIN1" opacity="1" fill="#f7cb1f" fill-opacity="1"></use><g><use xlink:href="#a1YnHzNIN1" opacity="1" fill-opacity="0" stroke="#000000" stroke-width="9" stroke-opacity="1"></use></g></g><g><use xlink:href="#b48xye3FxP" opacity="1" fill="#f7cb1f" fill-opacity="1"></use><g><use xlink:href="#b48xye3FxP" opacity="1" fill-opacity="0" stroke="#000000" stroke-width="9" stroke-opacity="1"></use></g></g><g><use xlink:href="#g1unU4FqyQ" opacity="1" fill="#ffffff" fill-opacity="1"></use><g><use xlink:href="#g1unU4FqyQ" opacity="1" fill-opacity="0" stroke="#000000" stroke-width="9" stroke-opacity="1"></use></g></g><g><use xlink:href="#d12e0oa5wm" opacity="1" fill="#f7cb1f" fill-opacity="1"></use><g><use xlink:href="#d12e0oa5wm" opacity="1" fill-opacity="0" stroke="#000000" stroke-width="9" stroke-opacity="1"></use></g></g><g><use xlink:href="#b4ktFZRbDI" opacity="1" fill="#f7cb1f" fill-opacity="1"></use><g><use xlink:href="#b4ktFZRbDI" opacity="1" fill-opacity="0" stroke="#000000" stroke-width="9" stroke-opacity="1"></use></g></g><g><use xlink:href="#aG0tQY77o" opacity="1" fill="#f7cb1f" fill-opacity="1"></use><g><use xlink:href="#aG0tQY77o" opacity="1" fill-opacity="0" stroke="#000000" stroke-width="9" stroke-opacity="1"></use></g></g><g><use xlink:href="#c43eeTIIsm" opacity="1" fill="#f7cb1f" fill-opacity="1"></use><g><use xlink:href="#c43eeTIIsm" opacity="1" fill-opacity="0" stroke="#000000" stroke-width="9" stroke-opacity="1"></use></g></g><g><use xlink:href="#f37EsgniTE" opacity="1" fill="#f7cb1f" fill-opacity="1"></use><g><use xlink:href="#f37EsgniTE" opacity="1" fill-opacity="0" stroke="#000000" stroke-width="9" stroke-opacity="1"></use></g></g><g><use xlink:href="#b2Uf0e9Gs6" opacity="1" fill="#f7cb1f" fill-opacity="1"></use><g><use xlink:href="#b2Uf0e9Gs6" opacity="1" fill-opacity="0" stroke="#000000" stroke-width="9" stroke-opacity="1"></use></g></g><g><use xlink:href="#biWwqfn3J" opacity="1" fill="#f7cb1f" fill-opacity="1"></use><g><use xlink:href="#biWwqfn3J" opacity="1" fill-opacity="0" stroke="#000000" stroke-width="9" stroke-opacity="1"></use></g></g></g></g></g></svg>