<?xml version="1.0" encoding="UTF-8" standalone="no"?>
<!DOCTYPE svg PUBLIC "-//W3C//DTD SVG 1.1//EN" "http://www.w3.org/Graphics/SVG/1.1/DTD/svg11.dtd">
<svg version="1.1" xmlns="http://www.w3.org/2000/svg" xmlns:xlink="http://www.w3.org/1999/xlink" preserveAspectRatio="xMidYMid meet" viewBox="0 0 1200 3200" width="1200" height="3200"><defs><path d="M779.94 1337.08C850.15 1638.94 850.15 1978.54 779.94 2280.41" id="aLPuVxd6S"></path><path d="M711.65 1332.89C781.86 1634.76 781.86 1974.36 711.65 2276.23" id="b3TREVYBez"></path><path d="M640.45 1334.98C710.66 1636.85 710.66 1976.45 640.45 2278.31" id="dkMU2wQu6"></path><path d="M567.46 1334.98C637.67 1636.85 637.67 1976.45 567.46 2278.31" id="aaFwzmRfNl"></path><path d="M547.15 1945.47L887.25 1945.47" id="b747jcZWi"></path><path d="M536.94 2062.56L870.04 2062.56" id="j1pnp2k6sg"></path><path d="M521.77 2175.45L858.37 2175.45" id="dvRHcoolJ"></path><path d="M556.78 1824.8L885.91 1824.8" id="a1nnCgAixj"></path><path d="M547.91 1701.34L889.41 1701.34" id="l40TBlDwLn"></path><path d="M540.91 1574.88L877.04 1574.88" id="e36E7SV0xU"></path><path d="M522.24 1463.59L858.37 1463.59" id="blcwTSKjW"></path><path d="M498.68 2287.48L503.14 2267.94L507.39 2248.4L511.43 2228.86L515.26 2209.32L518.89 2189.78L522.31 2170.24L525.55 2150.7L528.58 2131.16L531.43 2111.62L534.09 2092.08L536.56 2072.54L538.84 2053L540.95 2033.46L542.87 2013.92L544.62 1994.38L546.18 1974.83L547.57 1955.29L548.78 1935.76L549.82 1916.22L550.69 1896.67L551.38 1877.13L551.89 1857.59L552.24 1838.05L552.41 1818.51L552.41 1798.97L552.24 1779.43L551.89 1759.89L551.38 1740.35L550.69 1720.81L549.82 1701.27L548.78 1681.73L547.57 1662.19L546.18 1642.65L544.62 1623.11L542.87 1603.57L540.95 1584.03L538.84 1564.48L536.56 1544.94L534.09 1525.41L531.43 1505.87L528.58 1486.32L525.55 1466.78L522.31 1447.24L518.89 1427.7L515.26 1408.16L511.43 1388.62L507.39 1369.08L503.14 1349.54L498.68 1330L498.68 1330L834.62 1330L834.62 1330L839.08 1349.54L843.33 1369.08L847.36 1388.62L851.2 1408.16L854.82 1427.7L858.25 1447.24L861.48 1466.78L864.52 1486.32L867.37 1505.87L870.02 1525.41L872.5 1544.94L874.78 1564.48L876.89 1584.03L878.81 1603.57L880.55 1623.11L882.12 1642.65L883.51 1662.19L884.72 1681.73L885.76 1701.27L886.62 1720.81L887.31 1740.35L887.83 1759.89L888.18 1779.43L888.35 1798.97L888.35 1818.51L888.18 1838.05L887.83 1857.59L887.31 1877.13L886.62 1896.67L885.76 1916.22L884.72 1935.76L883.51 1955.29L882.12 1974.83L880.55 1994.38L878.81 2013.92L876.89 2033.46L874.78 2053L872.5 2072.54L870.02 2092.08L867.37 2111.62L864.52 2131.16L861.48 2150.7L858.25 2170.24L854.82 2189.78L851.2 2209.32L847.36 2228.86L843.33 2248.4L839.08 2267.94L834.62 2287.48L834.62 2287.48L498.68 2287.48L498.68 2287.48Z" id="cHYdv9zAu"></path><path d="M605.87 166.93C749.06 490.9 749.06 855.37 605.87 1179.34" id="a1JwquTp6J"></path><path d="M923.23 239.39C698.87 374.33 411.85 374.33 187.5 239.39" id="erujhQ0qd"></path><path d="M808.08 166.93C951.28 490.9 951.28 855.37 808.08 1179.34" id="c2519kY6j"></path><path d="M206.54 166.93C349.73 490.9 349.73 855.37 206.54 1179.34" id="h41Hs0qLW1"></path><path d="M408.75 166.93C551.95 490.9 551.95 855.37 408.75 1179.34" id="d2sGNOMta"></path><path d="M963.67 391.88C739.32 526.83 452.3 526.83 227.94 391.88" id="h75RFObDE"></path><path d="M923.23 976.46C698.87 1111.41 411.85 1111.41 187.5 976.46" id="dhd5fSnt5"></path><path d="M996.37 544.38C772.02 679.33 484.99 679.33 260.64 544.38" id="ajR437WAu"></path><path d="M1004.11 696.88C779.76 831.83 492.74 831.83 268.39 696.88" id="cpxBUsX5X"></path><path d="M963.67 823.96C739.32 958.91 452.3 958.91 227.94 823.96" id="e1agdIOBpm"></path><path d="M617.39 802.54L708.07 798.09L708.07 848.92L687.66 917.93L591.93 925.17L490.45 917.93L501.78 874.34L511.05 798.09L617.39 802.54Z" id="c1ccrHLtT7"></path><path d="M697.5 2752.38C697.5 2958.04 603.53 3125 487.8 3125C372.06 3125 278.09 2958.04 278.09 2752.38C278.09 2546.73 372.06 2379.77 487.8 2379.77C603.53 2379.77 697.5 2546.73 697.5 2752.38Z" id="aKJaDopFH"></path><path d="M663.26 2754.35C663.26 2926.43 584.64 3066.13 487.8 3066.13C390.95 3066.13 312.33 2926.43 312.33 2754.35C312.33 2582.28 390.95 2442.57 487.8 2442.57C584.64 2442.57 663.26 2582.28 663.26 2754.35Z" id="b24M6MW5Ca"></path><path d="M628.17 2752.38C628.17 2890.05 578.29 3001.81 516.86 3001.81C455.42 3001.81 405.54 2890.05 405.54 2752.38C405.54 2614.72 455.42 2502.96 516.86 2502.96C578.29 2502.96 628.17 2614.72 628.17 2752.38Z" id="bddDg1idH"></path><path d="M573.58 2863.08C564.16 2792.23 564.16 2712.53 573.58 2641.69" id="aYy0AfwDb"></path><path d="M477.87 1457.28C505.93 1515.73 499.55 1577.18 463.64 1594.42C427.72 1611.67 375.78 1578.21 347.72 1519.76C319.66 1461.3 326.04 1399.85 361.96 1382.61C397.87 1365.37 449.81 1398.82 477.87 1457.28Z" id="c3ju2HsMS"></path><path d="M467.52 1462.94C491 1511.84 485.66 1563.26 455.61 1577.69C425.55 1592.12 382.09 1564.12 358.61 1515.21C335.14 1466.31 340.47 1414.89 370.53 1400.46C400.58 1386.03 444.04 1414.03 467.52 1462.94Z" id="b3qiFJSFjw"></path><path d="M456.36 1467.6C475.14 1506.73 474.91 1545.93 455.85 1555.08C436.78 1564.23 406.06 1539.9 387.27 1500.77C368.49 1461.64 368.72 1422.44 387.78 1413.29C406.85 1404.14 437.58 1428.48 456.36 1467.6Z" id="a1USMhYxbQ"></path><path d="M452.33 1508.25C445.59 1486.71 434.71 1464.06 422.12 1445.33" id="d3opJiYVqt"></path><path d="M440.6 1710.99C427.03 1774.39 384.38 1819.09 345.42 1810.75C306.46 1802.41 285.85 1744.17 299.43 1680.76C313 1617.36 355.65 1572.66 394.61 1581C433.56 1589.34 454.17 1647.59 440.6 1710.99Z" id="bf5MfmRF"></path><path d="M428.95 1709.13C417.59 1762.18 381.9 1799.58 349.3 1792.6C316.71 1785.62 299.46 1736.89 310.82 1683.84C322.18 1630.79 357.86 1593.38 390.46 1600.36C423.06 1607.34 440.3 1656.08 428.95 1709.13Z" id="i1Ckqwc9L"></path><path d="M417.26 1705.99C408.18 1748.43 384.01 1779.29 363.33 1774.87C342.65 1770.44 333.24 1732.39 342.33 1689.95C351.41 1647.51 375.58 1616.65 396.26 1621.07C416.94 1625.5 426.35 1663.55 417.26 1705.99Z" id="aUvDpD0d3"></path><path d="M389.2 1735.68C397.05 1714.51 402.31 1689.94 403.82 1667.42" id="b1ysUFF3Cs"></path><path d="M472.46 1999.58C447.57 2058.39 400.63 2092.51 367.7 2075.72C334.77 2058.94 328.25 1997.57 353.14 1938.77C378.02 1879.96 424.96 1845.85 457.89 1862.63C490.82 1879.41 497.35 1940.78 472.46 1999.58Z" id="aRv8VWgGf"></path><path d="M462.48 1995.18C441.65 2044.39 402.38 2072.93 374.83 2058.89C347.27 2044.85 341.81 1993.5 362.64 1944.3C383.46 1895.09 422.74 1866.55 450.29 1880.59C477.84 1894.63 483.3 1945.98 462.48 1995.18Z" id="f1hEeRXDAY"></path><path d="M452.73 1989.53C436.07 2028.9 408.36 2053.62 390.88 2044.71C373.4 2035.81 372.74 1996.61 389.4 1957.25C406.06 1917.89 433.77 1893.16 451.25 1902.07C468.73 1910.98 469.39 1950.17 452.73 1989.53Z" id="h25YMtOYX9"></path><path d="M421.8 2012.24C433.05 1993.35 442.7 1970.56 448.59 1948.94" id="c51Ig2wUNa"></path><path d="M270.18 1821.21C330.62 1841.82 368.01 1886.19 353.63 1920.24C339.25 1954.28 278.51 1965.19 218.07 1944.58C157.64 1923.97 120.24 1879.59 134.62 1845.55C149 1811.5 209.75 1800.59 270.18 1821.21Z" id="a4RwQSpNRx"></path><path d="M266.51 1831.47C317.08 1848.72 348.37 1885.85 336.33 1914.34C324.3 1942.82 273.48 1951.95 222.91 1934.7C172.34 1917.46 141.05 1880.33 153.08 1851.84C165.11 1823.35 215.94 1814.23 266.51 1831.47Z" id="gFZzrXbdv"></path><path d="M261.57 1841.6C302.03 1855.4 328.67 1881.27 321.04 1899.34C313.41 1917.41 274.37 1920.88 233.91 1907.09C193.45 1893.29 166.81 1867.42 174.44 1849.34C182.07 1831.27 221.11 1827.8 261.57 1841.6Z" id="bqjYP5IUO"></path><path d="M286.44 1870.83C266.79 1860.96 243.37 1852.97 221.38 1848.64" id="c1Iz4YezVa"></path><path d="M377.21 2142.84C384.71 2202.67 361.48 2255.48 325.36 2260.7C289.24 2265.92 253.83 2221.59 246.32 2161.76C238.82 2101.94 262.05 2049.12 298.17 2043.9C334.29 2038.68 369.71 2083.01 377.21 2142.84Z" id="bOOHKFGb9"></path><path d="M366.6 2144.96C372.88 2195.02 353.44 2239.2 323.21 2243.57C292.99 2247.94 263.36 2210.85 257.08 2160.79C250.8 2110.73 270.24 2066.54 300.46 2062.17C330.68 2057.8 360.32 2094.9 366.6 2144.96Z" id="c2aOSMm36"></path><path d="M355.57 2145.97C360.6 2186.01 349.11 2220.78 329.94 2223.55C310.76 2226.32 291.12 2196.06 286.1 2156.01C281.07 2115.96 292.56 2081.2 311.73 2078.43C330.91 2075.66 350.55 2105.92 355.57 2145.97Z" id="i1rHGFWxYB"></path><path d="M340.37 2180.95C340.73 2159.92 337.82 2136.73 332.29 2116.55" id="a4GPi8Dx"></path><path d="M1121.57 1776.92C1109.59 1824.57 1069.68 1858.55 1032.51 1852.75C995.35 1846.95 974.9 1803.55 986.88 1755.91C998.86 1708.26 1038.77 1674.28 1075.94 1680.08C1113.11 1685.88 1133.56 1729.28 1121.57 1776.92Z" id="a2pM3wZgXz"></path><path d="M1110.46 1775.66C1100.44 1815.53 1067.05 1843.96 1035.94 1839.11C1004.84 1834.25 987.73 1797.95 997.76 1758.08C1007.79 1718.21 1041.18 1689.78 1072.28 1694.63C1103.38 1699.49 1120.49 1735.8 1110.46 1775.66Z" id="a2ScxbyncT"></path><path d="M1099.31 1773.45C1091.29 1805.34 1068.76 1828.74 1049.03 1825.66C1029.3 1822.58 1019.79 1794.19 1027.81 1762.29C1035.83 1730.4 1058.36 1707 1078.09 1710.08C1097.82 1713.16 1107.33 1741.55 1099.31 1773.45Z" id="b1YVMXwfGp"></path><path d="M1073.06 1796.01C1080.21 1780.06 1084.85 1761.6 1085.96 1744.71" id="a2Z5dh5IPe"></path><path d="M244.98 1640.72C254.46 1694.44 234.58 1742.12 200.63 1747.11C166.67 1752.11 131.4 1712.56 121.92 1658.83C112.44 1605.11 132.32 1557.44 166.27 1552.44C200.23 1547.44 235.5 1587 244.98 1640.72Z" id="k14f9Nrqqp"></path><path d="M235.02 1642.71C242.96 1687.66 226.33 1727.55 197.91 1731.74C169.5 1735.92 139.99 1702.82 132.06 1657.87C124.13 1612.92 140.75 1573.03 169.17 1568.84C197.58 1564.66 227.09 1597.76 235.02 1642.71Z" id="a6sRjkRNyb"></path><path d="M224.64 1643.71C230.98 1679.67 221.5 1711.02 203.47 1713.68C185.45 1716.33 165.66 1689.29 159.32 1653.33C152.97 1617.37 162.45 1586.02 180.48 1583.36C198.5 1580.71 218.29 1607.75 224.64 1643.71Z" id="jfeiwbq9v"></path><path d="M211.65 1675.29C211.15 1656.38 207.47 1635.56 201.44 1617.46" id="e5mhBrr6d"></path></defs><g><g><g><g><use xlink:href="#aLPuVxd6S" opacity="1" fill-opacity="0" stroke="#3a6d6e" stroke-width="20" stroke-opacity="1"></use></g></g><g><g><use xlink:href="#b3TREVYBez" opacity="1" fill-opacity="0" stroke="#3a6d6e" stroke-width="20" stroke-opacity="1"></use></g></g><g><g><use xlink:href="#dkMU2wQu6" opacity="1" fill-opacity="0" stroke="#3a6d6e" stroke-width="20" stroke-opacity="1"></use></g></g><g><g><use xlink:href="#aaFwzmRfNl" opacity="1" fill-opacity="0" stroke="#3a6d6e" stroke-width="20" stroke-opacity="1"></use></g></g><g><g><use xlink:href="#b747jcZWi" opacity="1" fill-opacity="0" stroke="#3a6d6e" stroke-width="20" stroke-opacity="1"></use></g></g><g><g><use xlink:href="#j1pnp2k6sg" opacity="1" fill-opacity="0" stroke="#3a6d6e" stroke-width="20" stroke-opacity="1"></use></g></g><g><g><use xlink:href="#dvRHcoolJ" opacity="1" fill-opacity="0" stroke="#3a6d6e" stroke-width="20" stroke-opacity="1"></use></g></g><g><g><use xlink:href="#a1nnCgAixj" opacity="1" fill-opacity="0" stroke="#3a6d6e" stroke-width="20" stroke-opacity="1"></use></g></g><g><g><use xlink:href="#l40TBlDwLn" opacity="1" fill-opacity="0" stroke="#3a6d6e" stroke-width="20" stroke-opacity="1"></use></g></g><g><g><use xlink:href="#e36E7SV0xU" opacity="1" fill-opacity="0" stroke="#3a6d6e" stroke-width="20" stroke-opacity="1"></use></g></g><g><g><use xlink:href="#blcwTSKjW" opacity="1" fill-opacity="0" stroke="#3a6d6e" stroke-width="20" stroke-opacity="1"></use></g></g><g><g><use xlink:href="#cHYdv9zAu" opacity="1" fill-opacity="0" stroke="#3a6d6e" stroke-width="20" stroke-opacity="1"></use></g></g><g><g><g><use xlink:href="#a1JwquTp6J" opacity="1" fill="#000000" fill-opacity="0"></use><g><use xlink:href="#a1JwquTp6J" opacity="1" fill-opacity="0" stroke="#282727" stroke-width="20" stroke-opacity="1"></use></g></g><g><use xlink:href="#erujhQ0qd" opacity="1" fill="#000000" fill-opacity="0"></use><g><use xlink:href="#erujhQ0qd" opacity="1" fill-opacity="0" stroke="#282727" stroke-width="20" stroke-opacity="1"></use></g></g><g><use xlink:href="#c2519kY6j" opacity="1" fill="#000000" fill-opacity="0"></use><g><use xlink:href="#c2519kY6j" opacity="1" fill-opacity="0" stroke="#282727" stroke-width="20" stroke-opacity="1"></use></g></g><g><use xlink:href="#h41Hs0qLW1" opacity="1" fill="#000000" fill-opacity="0"></use><g><use xlink:href="#h41Hs0qLW1" opacity="1" fill-opacity="0" stroke="#282727" stroke-width="20" stroke-opacity="1"></use></g></g><g><use xlink:href="#d2sGNOMta" opacity="1" fill="#000000" fill-opacity="0"></use><g><use xlink:href="#d2sGNOMta" opacity="1" fill-opacity="0" stroke="#282727" stroke-width="20" stroke-opacity="1"></use></g></g><g><use xlink:href="#h75RFObDE" opacity="1" fill="#000000" fill-opacity="0"></use><g><use xlink:href="#h75RFObDE" opacity="1" fill-opacity="0" stroke="#282727" stroke-width="20" stroke-opacity="1"></use></g></g><g><use xlink:href="#dhd5fSnt5" opacity="1" fill="#000000" fill-opacity="0"></use><g><use xlink:href="#dhd5fSnt5" opacity="1" fill-opacity="0" stroke="#282727" stroke-width="20" stroke-opacity="1"></use></g></g><g><use xlink:href="#ajR437WAu" opacity="1" fill="#000000" fill-opacity="0"></use><g><use xlink:href="#ajR437WAu" opacity="1" fill-opacity="0" stroke="#282727" stroke-width="20" stroke-opacity="1"></use></g></g><g><use xlink:href="#cpxBUsX5X" opacity="1" fill="#000000" fill-opacity="0"></use><g><use xlink:href="#cpxBUsX5X" opacity="1" fill-opacity="0" stroke="#282727" stroke-width="20" stroke-opacity="1"></use></g></g><g><use xlink:href="#e1agdIOBpm" opacity="1" fill="#000000" fill-opacity="0"></use><g><use xlink:href="#e1agdIOBpm" opacity="1" fill-opacity="0" stroke="#282727" stroke-width="20" stroke-opacity="1"></use></g></g></g><g><use xlink:href="#c1ccrHLtT7" opacity="1" fill="#000000" fill-opacity="1"></use></g></g><g><g><use xlink:href="#aKJaDopFH" opacity="1" fill="#cc0101" fill-opacity="1"></use></g><g><use xlink:href="#b24M6MW5Ca" opacity="1" fill="#d96060" fill-opacity="0.72"></use></g><g><use xlink:href="#bddDg1idH" opacity="1" fill="#900000" fill-opacity="0.88"></use></g><g><use xlink:href="#aYy0AfwDb" opacity="1" fill="#000000" fill-opacity="0"></use><g><use xlink:href="#aYy0AfwDb" opacity="1" fill-opacity="0" stroke="#ae2c2c" stroke-width="20" stroke-opacity="1"></use></g></g></g><g><g><use xlink:href="#c3ju2HsMS" opacity="1" fill="#cc0101" fill-opacity="1"></use></g><g><use xlink:href="#b3qiFJSFjw" opacity="1" fill="#d96060" fill-opacity="0.72"></use></g><g><use xlink:href="#a1USMhYxbQ" opacity="1" fill="#900000" fill-opacity="0.88"></use></g><g><use xlink:href="#d3opJiYVqt" opacity="1" fill="#000000" fill-opacity="0"></use><g><use xlink:href="#d3opJiYVqt" opacity="1" fill-opacity="0" stroke="#ae2c2c" stroke-width="20" stroke-opacity="1"></use></g></g></g><g><g><use xlink:href="#bf5MfmRF" opacity="1" fill="#cc0101" fill-opacity="1"></use></g><g><use xlink:href="#i1Ckqwc9L" opacity="1" fill="#d96060" fill-opacity="0.72"></use></g><g><use xlink:href="#aUvDpD0d3" opacity="1" fill="#900000" fill-opacity="0.88"></use></g><g><use xlink:href="#b1ysUFF3Cs" opacity="1" fill="#000000" fill-opacity="0"></use><g><use xlink:href="#b1ysUFF3Cs" opacity="1" fill-opacity="0" stroke="#ae2c2c" stroke-width="20" stroke-opacity="1"></use></g></g></g><g><g><use xlink:href="#aRv8VWgGf" opacity="1" fill="#cc0101" fill-opacity="1"></use></g><g><use xlink:href="#f1hEeRXDAY" opacity="1" fill="#d96060" fill-opacity="0.72"></use></g><g><use xlink:href="#h25YMtOYX9" opacity="1" fill="#900000" fill-opacity="0.88"></use></g><g><use xlink:href="#c51Ig2wUNa" opacity="1" fill="#000000" fill-opacity="0"></use><g><use xlink:href="#c51Ig2wUNa" opacity="1" fill-opacity="0" stroke="#ae2c2c" stroke-width="20" stroke-opacity="1"></use></g></g></g><g><g><use xlink:href="#a4RwQSpNRx" opacity="1" fill="#cc0101" fill-opacity="1"></use></g><g><use xlink:href="#gFZzrXbdv" opacity="1" fill="#d96060" fill-opacity="0.72"></use></g><g><use xlink:href="#bqjYP5IUO" opacity="1" fill="#900000" fill-opacity="0.88"></use></g><g><use xlink:href="#c1Iz4YezVa" opacity="1" fill="#000000" fill-opacity="0"></use><g><use xlink:href="#c1Iz4YezVa" opacity="1" fill-opacity="0" stroke="#ae2c2c" stroke-width="20" stroke-opacity="1"></use></g></g></g><g><g><use xlink:href="#bOOHKFGb9" opacity="1" fill="#cc0101" fill-opacity="1"></use></g><g><use xlink:href="#c2aOSMm36" opacity="1" fill="#d96060" fill-opacity="0.72"></use></g><g><use xlink:href="#i1rHGFWxYB" opacity="1" fill="#900000" fill-opacity="0.88"></use></g><g><use xlink:href="#a4GPi8Dx" opacity="1" fill="#000000" fill-opacity="0"></use><g><use xlink:href="#a4GPi8Dx" opacity="1" fill-opacity="0" stroke="#ae2c2c" stroke-width="20" stroke-opacity="1"></use></g></g></g><g><g><use xlink:href="#a2pM3wZgXz" opacity="1" fill="#cc0101" fill-opacity="1"></use></g><g><use xlink:href="#a2ScxbyncT" opacity="1" fill="#d96060" fill-opacity="0.72"></use></g><g><use xlink:href="#b1YVMXwfGp" opacity="1" fill="#900000" fill-opacity="0.88"></use></g><g><use xlink:href="#a2Z5dh5IPe" opacity="1" fill="#000000" fill-opacity="0"></use><g><use xlink:href="#a2Z5dh5IPe" opacity="1" fill-opacity="0" stroke="#ae2c2c" stroke-width="20" stroke-opacity="1"></use></g></g></g><g><g><use xlink:href="#k14f9Nrqqp" opacity="1" fill="#cc0101" fill-opacity="1"></use></g><g><use xlink:href="#a6sRjkRNyb" opacity="1" fill="#d96060" fill-opacity="0.72"></use></g><g><use xlink:href="#jfeiwbq9v" opacity="1" fill="#900000" fill-opacity="0.88"></use></g><g><use xlink:href="#e5mhBrr6d" opacity="1" fill="#000000" fill-opacity="0"></use><g><use xlink:href="#e5mhBrr6d" opacity="1" fill-opacity="0" stroke="#ae2c2c" stroke-width="20" stroke-opacity="1"></use></g></g></g></g></g></svg>