<?xml version="1.0" encoding="UTF-8" standalone="no"?>
<!DOCTYPE svg PUBLIC "-//W3C//DTD SVG 1.1//EN" "http://www.w3.org/Graphics/SVG/1.1/DTD/svg11.dtd">
<svg version="1.1" xmlns="http://www.w3.org/2000/svg" xmlns:xlink="http://www.w3.org/1999/xlink" preserveAspectRatio="xMidYMid meet" viewBox="0 0 1230 1230" width="1230" height="1230"><defs><path d="M558.75 53C558.75 73.71 541.96 90.5 521.25 90.5C500.54 90.5 483.75 73.71 483.75 53C483.75 32.29 500.54 15.5 521.25 15.5C541.96 15.5 558.75 32.29 558.75 53Z" id="a4WnD64Yv"></path><path d="M746.25 53C746.25 73.71 729.46 90.5 708.75 90.5C688.04 90.5 671.25 73.71 671.25 53C671.25 32.29 688.04 15.5 708.75 15.5C729.46 15.5 746.25 32.29 746.25 53Z" id="a1zqTNUFvW"></path><path d="M677.5 319.25C677.5 353.77 649.52 381.75 615 381.75C580.48 381.75 552.5 353.77 552.5 319.25C552.5 284.74 580.48 256.75 615 256.75C649.52 256.75 677.5 284.74 677.5 319.25Z" id="g28jsq2abP"></path><path d="M542.88 104.41C549.41 102.42 556.31 106.1 558.3 112.62C565.6 136.58 583.9 196.66 591.2 220.63C593.19 227.15 589.52 234.05 582.99 236.04C578.05 237.54 575.05 238.46 570.11 239.96C563.59 241.95 556.69 238.27 554.7 231.75C547.4 207.78 529.09 147.71 521.79 123.74C519.8 117.22 523.48 110.32 530 108.33C534.94 106.83 537.94 105.91 542.88 104.41Z" id="bpTpW4jhJ"></path><path d="M659.89 239.96C666.41 241.95 673.31 238.27 675.3 231.75C682.6 207.78 700.91 147.71 708.21 123.74C710.2 117.22 706.52 110.32 700 108.33C695.06 106.83 692.06 105.91 687.12 104.41C680.59 102.42 673.69 106.1 671.7 112.62C664.4 136.58 646.1 196.66 638.8 220.63C636.81 227.15 640.48 234.05 647.01 236.04C651.95 237.54 654.95 238.46 659.89 239.96Z" id="a1sEY8PPnh"></path><path d="M690 615.5C690 656.92 656.42 690.5 615 690.5C573.58 690.5 540 656.92 540 615.5C540 574.08 573.58 540.5 615 540.5C656.42 540.5 690 574.08 690 615.5Z" id="f127FaVJGX"></path><path d="M621.81 395.85C628.28 395.85 633.53 401.09 633.53 407.56C633.53 431.27 633.53 490.65 633.53 514.35C633.53 520.82 628.28 526.07 621.81 526.07C616.74 526.07 613.26 526.07 608.19 526.07C601.72 526.07 596.47 520.82 596.47 514.35C596.47 490.65 596.47 431.27 596.47 407.56C596.47 401.09 601.72 395.85 608.19 395.85C613.26 395.85 616.74 395.85 621.81 395.85Z" id="c1NzZnei5A"></path><path d="M558.75 1177C558.75 1156.29 541.96 1139.5 521.25 1139.5C500.54 1139.5 483.75 1156.29 483.75 1177C483.75 1197.71 500.54 1214.5 521.25 1214.5C541.96 1214.5 558.75 1197.71 558.75 1177Z" id="e2mTkXryma"></path><path d="M746.25 1177C746.25 1156.29 729.46 1139.5 708.75 1139.5C688.04 1139.5 671.25 1156.29 671.25 1177C671.25 1197.71 688.04 1214.5 708.75 1214.5C729.46 1214.5 746.25 1197.71 746.25 1177Z" id="n3o63SAklF"></path><path d="M677.5 910.75C677.5 876.23 649.52 848.25 615 848.25C580.48 848.25 552.5 876.23 552.5 910.75C552.5 945.26 580.48 973.25 615 973.25C649.52 973.25 677.5 945.26 677.5 910.75Z" id="b1tZkw3kiV"></path><path d="M542.88 1125.59C549.41 1127.58 556.31 1123.9 558.3 1117.38C565.6 1093.42 583.9 1033.34 591.2 1009.37C593.19 1002.85 589.52 995.95 582.99 993.96C578.05 992.46 575.05 991.54 570.11 990.04C563.59 988.05 556.69 991.73 554.7 998.25C547.4 1022.22 529.09 1082.29 521.79 1106.26C519.8 1112.78 523.48 1119.68 530 1121.67C534.94 1123.17 537.94 1124.09 542.88 1125.59Z" id="c11YktRwYH"></path><path d="M659.89 990.04C666.41 988.05 673.31 991.73 675.3 998.25C682.6 1022.22 700.91 1082.29 708.21 1106.26C710.2 1112.78 706.52 1119.68 700 1121.67C695.06 1123.17 692.06 1124.09 687.12 1125.59C680.59 1127.58 673.69 1123.9 671.7 1117.38C664.4 1093.42 646.1 1033.34 638.8 1009.37C636.81 1002.85 640.48 995.95 647.01 993.96C651.95 992.46 654.95 991.54 659.89 990.04Z" id="g2HeEspmUu"></path><path d="M690 614.5C690 573.08 656.42 539.5 615 539.5C573.58 539.5 540 573.08 540 614.5C540 655.92 573.58 689.5 615 689.5C656.42 689.5 690 655.92 690 614.5Z" id="fr0NXzdNW"></path><path d="M621.81 834.15C628.28 834.15 633.53 828.91 633.53 822.44C633.53 798.73 633.53 739.35 633.53 715.65C633.53 709.18 628.28 703.93 621.81 703.93C616.74 703.93 613.26 703.93 608.19 703.93C601.72 703.93 596.47 709.18 596.47 715.65C596.47 739.35 596.47 798.73 596.47 822.44C596.47 828.91 601.72 834.15 608.19 834.15C613.26 834.15 616.74 834.15 621.81 834.15Z" id="gtuOqzY8x"></path><path d="M1177.5 558.75C1156.79 558.75 1140 541.96 1140 521.25C1140 500.54 1156.79 483.75 1177.5 483.75C1198.21 483.75 1215 500.54 1215 521.25C1215 541.96 1198.21 558.75 1177.5 558.75Z" id="gWVQcrFsC"></path><path d="M1177.5 746.25C1156.79 746.25 1140 729.46 1140 708.75C1140 688.04 1156.79 671.25 1177.5 671.25C1198.21 671.25 1215 688.04 1215 708.75C1215 729.46 1198.21 746.25 1177.5 746.25Z" id="brB1U7oNO"></path><path d="M911.25 677.5C876.73 677.5 848.75 649.52 848.75 615C848.75 580.48 876.73 552.5 911.25 552.5C945.76 552.5 973.75 580.48 973.75 615C973.75 649.52 945.76 677.5 911.25 677.5Z" id="e2GIzJ8nWb"></path><path d="M1126.09 542.88C1128.08 549.41 1124.4 556.31 1117.88 558.3C1093.92 565.6 1033.84 583.9 1009.87 591.2C1003.35 593.19 996.45 589.52 994.46 582.99C992.96 578.05 992.04 575.05 990.54 570.11C988.55 563.59 992.23 556.69 998.75 554.7C1022.72 547.4 1082.79 529.09 1106.76 521.79C1113.28 519.8 1120.18 523.48 1122.17 530C1123.67 534.94 1124.59 537.94 1126.09 542.88Z" id="dbLjQj5Gl"></path><path d="M990.54 659.89C988.55 666.41 992.23 673.31 998.75 675.3C1022.72 682.6 1082.79 700.91 1106.76 708.21C1113.28 710.2 1120.18 706.52 1122.17 700C1123.67 695.06 1124.59 692.06 1126.09 687.12C1128.08 680.59 1124.4 673.69 1117.88 671.7C1093.92 664.4 1033.84 646.1 1009.87 638.8C1003.35 636.81 996.45 640.48 994.46 647.01C992.96 651.95 992.04 654.95 990.54 659.89Z" id="a4lpX8why"></path><path d="M615 690C573.58 690 540 656.42 540 615C540 573.58 573.58 540 615 540C656.42 540 690 573.58 690 615C690 656.42 656.42 690 615 690Z" id="b2JuzmLfuS"></path><path d="M834.65 621.81C834.65 628.28 829.41 633.53 822.94 633.53C799.23 633.53 739.85 633.53 716.15 633.53C709.68 633.53 704.43 628.28 704.43 621.81C704.43 616.74 704.43 613.26 704.43 608.19C704.43 601.72 709.68 596.47 716.15 596.47C739.85 596.47 799.23 596.47 822.94 596.47C829.41 596.47 834.65 601.72 834.65 608.19C834.65 613.26 834.65 616.74 834.65 621.81Z" id="d1Lcq1UMD0"></path><path d="M52.5 558.75C73.21 558.75 90 541.96 90 521.25C90 500.54 73.21 483.75 52.5 483.75C31.79 483.75 15 500.54 15 521.25C15 541.96 31.79 558.75 52.5 558.75Z" id="d2yg7BOcq"></path><path d="M52.5 746.25C73.21 746.25 90 729.46 90 708.75C90 688.04 73.21 671.25 52.5 671.25C31.79 671.25 15 688.04 15 708.75C15 729.46 31.79 746.25 52.5 746.25Z" id="crWHTUAov"></path><path d="M318.75 677.5C353.27 677.5 381.25 649.52 381.25 615C381.25 580.48 353.27 552.5 318.75 552.5C284.24 552.5 256.25 580.48 256.25 615C256.25 649.52 284.24 677.5 318.75 677.5Z" id="f57CChH46L"></path><path d="M103.91 542.88C101.92 549.41 105.6 556.31 112.12 558.3C136.08 565.6 196.16 583.9 220.13 591.2C226.65 593.19 233.55 589.52 235.54 582.99C237.04 578.05 237.96 575.05 239.46 570.11C241.45 563.59 237.77 556.69 231.25 554.7C207.28 547.4 147.21 529.09 123.24 521.79C116.72 519.8 109.82 523.48 107.83 530C106.33 534.94 105.41 537.94 103.91 542.88Z" id="b41ecORMoX"></path><path d="M239.46 659.89C241.45 666.41 237.77 673.31 231.25 675.3C207.28 682.6 147.21 700.91 123.24 708.21C116.72 710.2 109.82 706.52 107.83 700C106.33 695.06 105.41 692.06 103.91 687.12C101.92 680.59 105.6 673.69 112.12 671.7C136.08 664.4 196.16 646.1 220.13 638.8C226.65 636.81 233.55 640.48 235.54 647.01C237.04 651.95 237.96 654.95 239.46 659.89Z" id="bFQ8yL0rs"></path><path d="M615 690C656.42 690 690 656.42 690 615C690 573.58 656.42 540 615 540C573.58 540 540 573.58 540 615C540 656.42 573.58 690 615 690Z" id="b1H4GX09xg"></path><path d="M395.35 621.81C395.35 628.28 400.59 633.53 407.06 633.53C430.77 633.53 490.15 633.53 513.85 633.53C520.32 633.53 525.57 628.28 525.57 621.81C525.57 616.74 525.57 613.26 525.57 608.19C525.57 601.72 520.32 596.47 513.85 596.47C490.15 596.47 430.77 596.47 407.06 596.47C400.59 596.47 395.35 601.72 395.35 608.19C395.35 613.26 395.35 616.74 395.35 621.81Z" id="d2tw7fAmHd"></path><path d="M847.28 101.46C836.93 119.4 814 125.54 796.06 115.19C778.12 104.83 771.98 81.9 782.33 63.96C792.69 46.03 815.62 39.88 833.56 50.24C851.49 60.59 857.64 83.53 847.28 101.46Z" id="a5y7L4bT5"></path><path d="M1009.66 195.21C999.31 213.15 976.38 219.29 958.44 208.94C940.5 198.58 934.36 175.65 944.71 157.71C955.07 139.78 978 133.63 995.94 143.99C1013.87 154.34 1020.02 177.28 1009.66 195.21Z" id="b1rsYaXHeG"></path><path d="M817 391.42C799.74 421.31 761.52 431.55 731.63 414.29C701.73 397.03 691.49 358.81 708.75 328.92C726.01 299.03 764.23 288.79 794.12 306.04C824.02 323.3 834.26 361.52 817 391.42Z" id="aiHjCGllW"></path><path d="M807.84 138.05C814.49 139.59 818.62 146.22 817.08 152.87C811.42 177.27 797.24 238.45 791.58 262.86C790.04 269.5 783.4 273.64 776.76 272.1C771.73 270.93 768.67 270.22 763.64 269.06C757 267.52 752.86 260.88 754.4 254.24C760.06 229.83 774.25 168.65 779.91 144.25C781.45 137.6 788.08 133.47 794.73 135.01C799.75 136.17 802.81 136.88 807.84 138.05Z" id="a5ZV0PG0eV"></path><path d="M841.39 313.95C846.05 318.93 853.86 319.19 858.85 314.54C877.15 297.44 923.05 254.56 941.35 237.46C946.33 232.8 946.6 224.99 941.94 220C938.42 216.23 936.28 213.94 932.75 210.16C928.1 205.18 920.28 204.92 915.3 209.57C896.99 226.67 851.1 269.55 832.79 286.65C827.81 291.31 827.55 299.12 832.2 304.11C835.73 307.88 837.87 310.17 841.39 313.95Z" id="c1IUPN3lcB"></path><path d="M679.7 654.23C658.99 690.1 613.12 702.39 577.25 681.68C541.38 660.97 529.09 615.1 549.8 579.23C570.51 543.36 616.38 531.07 652.25 551.78C688.12 572.49 700.41 618.36 679.7 654.23Z" id="aYQcFAagb"></path><path d="M730.47 429.9C736.08 433.14 738 440.31 734.76 445.91C722.91 466.44 693.22 517.87 681.37 538.39C678.13 544 670.97 545.92 665.36 542.68C660.97 540.15 657.96 538.41 653.57 535.87C647.96 532.64 646.04 525.47 649.28 519.86C661.13 499.34 690.82 447.91 702.67 427.38C705.91 421.78 713.08 419.86 718.68 423.1C723.07 425.63 726.09 427.37 730.47 429.9Z" id="b3JAGLM5gX"></path><path d="M285.29 1074.87C295.64 1056.94 289.5 1034 271.56 1023.65C253.62 1013.29 230.69 1019.44 220.34 1037.37C209.98 1055.31 216.13 1078.24 234.06 1088.6C252 1098.95 274.93 1092.81 285.29 1074.87Z" id="dkgeWwxEt"></path><path d="M447.67 1168.62C458.02 1150.69 451.88 1127.75 433.94 1117.4C416 1107.04 393.07 1113.19 382.72 1131.12C372.36 1149.06 378.51 1171.99 396.44 1182.35C414.38 1192.7 437.31 1186.56 447.67 1168.62Z" id="b32wAVru"></path><path d="M521.25 903.67C538.51 873.78 528.27 835.55 498.37 818.29C468.48 801.04 430.26 811.28 413 841.17C395.74 871.06 405.98 909.29 435.88 926.54C465.77 943.8 503.99 933.56 521.25 903.67Z" id="e16Ur2GxQU"></path><path d="M297.25 1022.42C301.9 1027.41 309.72 1027.67 314.7 1023.02C333.01 1005.91 378.9 963.04 397.21 945.93C402.19 941.28 402.45 933.46 397.8 928.48C394.27 924.71 392.13 922.41 388.61 918.64C383.95 913.66 376.14 913.39 371.15 918.05C352.85 935.15 306.95 978.03 288.65 995.13C283.67 999.79 283.4 1007.6 288.06 1012.58C291.58 1016.36 293.72 1018.65 297.25 1022.42Z" id="aHTmG1Kd9"></path><path d="M466.36 963.53C473 965.07 477.14 971.71 475.6 978.35C469.94 1002.75 455.75 1063.94 450.09 1088.34C448.55 1094.98 441.92 1099.12 435.27 1097.58C430.25 1096.41 427.19 1095.71 422.16 1094.54C415.51 1093 411.38 1086.36 412.92 1079.72C418.58 1055.32 432.76 994.13 438.42 969.73C439.96 963.09 446.6 958.95 453.24 960.49C458.27 961.66 461.33 962.36 466.36 963.53Z" id="b3mWdjvQF"></path><path d="M680.2 653.36C700.91 617.49 688.62 571.62 652.75 550.91C616.88 530.2 571.01 542.49 550.3 578.36C529.59 614.23 541.88 660.1 577.75 680.81C613.62 701.52 659.49 689.23 680.2 653.36Z" id="d10f9TYuX4"></path><path d="M511.32 809.49C516.92 812.73 524.09 810.81 527.33 805.2C539.18 784.68 568.87 733.25 580.72 712.72C583.96 707.12 582.04 699.95 576.43 696.71C572.04 694.18 569.03 692.44 564.64 689.91C559.03 686.67 551.87 688.59 548.63 694.19C536.78 714.72 507.09 766.15 495.24 786.67C492 792.28 493.92 799.45 499.53 802.68C503.91 805.22 506.93 806.96 511.32 809.49Z" id="b211KRbLLr"></path><path d="M1130.26 848.83C1112.33 838.47 1106.18 815.54 1116.54 797.6C1126.89 779.67 1149.83 773.52 1167.76 783.88C1185.7 794.23 1191.84 817.17 1181.49 835.1C1171.13 853.04 1148.2 859.18 1130.26 848.83Z" id="b8nE2uv3Oh"></path><path d="M1036.51 1011.21C1018.58 1000.85 1012.43 977.92 1022.79 959.98C1033.14 942.05 1056.08 935.9 1074.01 946.26C1091.95 956.61 1098.09 979.55 1087.74 997.48C1077.38 1015.42 1054.45 1021.56 1036.51 1011.21Z" id="bGjobLCHR"></path><path d="M840.31 818.54C810.42 801.28 800.18 763.06 817.43 733.17C834.69 703.28 872.92 693.03 902.81 710.29C932.7 727.55 942.94 765.77 925.68 795.67C908.42 825.56 870.2 835.8 840.31 818.54Z" id="ayeRVAShY"></path><path d="M1093.68 809.39C1092.14 816.03 1085.5 820.17 1078.86 818.63C1054.46 812.97 993.27 798.78 968.87 793.12C962.23 791.58 958.09 784.95 959.63 778.3C960.79 773.27 961.5 770.22 962.67 765.19C964.21 758.54 970.85 754.41 977.49 755.95C1001.89 761.6 1063.08 775.79 1087.48 781.45C1094.12 782.99 1098.26 789.62 1096.72 796.27C1095.55 801.3 1094.85 804.36 1093.68 809.39Z" id="a1HTB0qeKc"></path><path d="M917.78 842.94C912.8 847.59 912.53 855.41 917.19 860.39C934.29 878.7 977.17 924.59 994.27 942.89C998.93 947.88 1006.74 948.14 1011.72 943.49C1015.5 939.96 1017.79 937.82 1021.56 934.3C1026.55 929.64 1026.81 921.82 1022.16 916.84C1005.05 898.54 962.18 852.64 945.07 834.34C940.42 829.35 932.6 829.09 927.62 833.75C923.85 837.27 921.55 839.41 917.78 842.94Z" id="d1ymWNKg0t"></path><path d="M577.5 681.24C541.63 660.53 529.34 614.66 550.05 578.79C570.76 542.92 616.63 530.63 652.5 551.34C688.37 572.05 700.66 617.92 679.95 653.79C659.24 689.66 613.37 701.95 577.5 681.24Z" id="a5a9psnFru"></path><path d="M801.82 732.02C798.59 737.62 791.42 739.54 785.81 736.31C765.29 724.46 713.86 694.76 693.33 682.91C687.73 679.68 685.81 672.51 689.04 666.91C691.58 662.52 693.32 659.5 695.85 655.11C699.09 649.51 706.26 647.59 711.86 650.82C732.39 662.67 783.82 692.37 804.34 704.22C809.95 707.45 811.87 714.62 808.63 720.22C806.1 724.61 804.36 727.63 801.82 732.02Z" id="a2aMge4rJ7"></path><path d="M155.99 286.33C173.92 296.68 196.86 290.54 207.21 272.6C217.57 254.67 211.42 231.73 193.49 221.38C175.55 211.02 152.62 217.17 142.26 235.11C131.91 253.04 138.05 275.97 155.99 286.33Z" id="c1mO898j6"></path><path d="M62.24 448.71C80.17 459.06 103.11 452.92 113.46 434.98C123.82 417.05 117.67 394.11 99.74 383.76C81.8 373.4 58.87 379.55 48.51 397.48C38.16 415.42 44.3 438.35 62.24 448.71Z" id="a784T8iNHA"></path><path d="M327.19 522.29C357.08 539.55 395.31 529.31 412.57 499.42C429.82 469.53 419.58 431.3 389.69 414.04C359.8 396.79 321.58 407.03 304.32 436.92C287.06 466.81 297.3 505.04 327.19 522.29Z" id="h3b5Bwoxwt"></path><path d="M208.44 298.29C203.45 302.95 203.19 310.76 207.84 315.75C224.95 334.05 267.82 379.94 284.93 398.25C289.58 403.23 297.4 403.5 302.38 398.84C306.15 395.32 308.45 393.17 312.22 389.65C317.2 384.99 317.47 377.18 312.81 372.2C295.71 353.89 252.83 308 235.73 289.69C231.07 284.71 223.26 284.44 218.28 289.1C214.5 292.62 212.21 294.77 208.44 298.29Z" id="d3hwublhdi"></path><path d="M267.33 467.4C265.79 474.04 259.15 478.18 252.51 476.64C228.11 470.98 166.92 456.8 142.52 451.14C135.88 449.6 131.74 442.96 133.28 436.32C134.45 431.29 135.15 428.23 136.32 423.2C137.86 416.56 144.5 412.42 151.14 413.96C175.54 419.62 236.73 433.8 261.13 439.46C267.77 441 271.91 447.64 270.37 454.28C269.21 459.31 268.5 462.37 267.33 467.4Z" id="a5Wtbabi5"></path><path d="M577.5 681.24C613.37 701.95 659.24 689.66 679.95 653.79C700.66 617.92 688.37 572.05 652.5 551.34C616.63 530.63 570.76 542.93 550.05 578.8C529.34 614.67 541.63 660.53 577.5 681.24Z" id="bfGTliYRw"></path><path d="M421.37 512.36C418.13 517.97 420.05 525.14 425.66 528.37C446.18 540.22 497.61 569.91 518.14 581.76C523.74 585 530.91 583.08 534.15 577.48C536.68 573.09 538.42 570.07 540.96 565.68C544.19 560.08 542.27 552.91 536.67 549.67C516.14 537.82 464.71 508.13 444.19 496.28C438.58 493.04 431.41 494.96 428.18 500.57C425.64 504.96 423.9 507.97 421.37 512.36Z" id="d1pE08BlyA"></path><path d="M1073.58 286.15C1055.64 296.5 1032.71 290.36 1022.36 272.42C1012 254.49 1018.15 231.55 1036.08 221.2C1054.02 210.84 1076.95 216.99 1087.3 234.92C1097.66 252.86 1091.51 275.79 1073.58 286.15Z" id="e3HuKfllNg"></path><path d="M1167.33 448.53C1149.39 458.88 1126.46 452.74 1116.11 434.8C1105.75 416.87 1111.9 393.93 1129.83 383.58C1147.77 373.22 1170.7 379.37 1181.05 397.3C1191.41 415.24 1185.26 438.17 1167.33 448.53Z" id="aiVTngEtp"></path><path d="M902.37 522.11C872.48 539.37 834.26 529.13 817 499.24C799.74 469.34 809.98 431.12 839.88 413.86C869.77 396.6 907.99 406.85 925.25 436.74C942.51 466.63 932.27 504.85 902.37 522.11Z" id="b5AfvCA8hU"></path><path d="M1021.13 298.11C1026.11 302.76 1026.38 310.58 1021.72 315.56C1004.62 333.87 961.74 379.76 944.64 398.07C939.98 403.05 932.17 403.31 927.19 398.66C923.41 395.13 921.12 392.99 917.35 389.47C912.36 384.81 912.1 377 916.75 372.01C933.86 353.71 976.73 307.81 993.84 289.51C998.49 284.53 1006.31 284.26 1011.29 288.92C1015.06 292.44 1017.36 294.58 1021.13 298.11Z" id="a9aT4akxE"></path><path d="M962.24 467.22C963.78 473.86 970.41 478 977.06 476.46C1001.46 470.8 1062.64 456.61 1087.05 450.95C1093.69 449.41 1097.83 442.78 1096.29 436.14C1095.12 431.11 1094.41 428.05 1093.25 423.02C1091.71 416.37 1085.07 412.24 1078.43 413.78C1054.02 419.44 992.84 433.62 968.44 439.28C961.79 440.82 957.65 447.46 959.2 454.1C960.36 459.13 961.07 462.19 962.24 467.22Z" id="faSNIyPuT"></path><path d="M652.06 681.06C616.19 701.77 570.33 689.48 549.62 653.61C528.91 617.74 541.2 571.87 577.07 551.16C612.94 530.45 658.81 542.74 679.51 578.61C700.22 614.48 687.93 660.35 652.06 681.06Z" id="c2gB428Tv2"></path><path d="M808.2 512.18C811.43 517.79 809.51 524.95 803.91 528.19C783.38 540.04 731.95 569.73 711.43 581.58C705.82 584.82 698.66 582.9 695.42 577.29C692.89 572.9 691.15 569.89 688.61 565.5C685.38 559.89 687.3 552.73 692.9 549.49C713.43 537.64 764.86 507.95 785.38 496.1C790.99 492.86 798.15 494.78 801.39 500.39C803.92 504.77 805.66 507.79 808.2 512.18Z" id="czTPF63ql"></path><path d="M100.17 848.14C118.1 837.79 124.25 814.86 113.89 796.92C103.54 778.99 80.61 772.84 62.67 783.19C44.74 793.55 38.59 816.48 48.95 834.42C59.3 852.35 82.23 858.5 100.17 848.14Z" id="a2U9gzEbRJ"></path><path d="M193.92 1010.52C211.85 1000.17 218 977.24 207.64 959.3C197.29 941.36 174.36 935.22 156.42 945.57C138.49 955.93 132.34 978.86 142.7 996.8C153.05 1014.73 175.98 1020.88 193.92 1010.52Z" id="a6nu7f5jj"></path><path d="M390.12 817.86C420.02 800.6 430.26 762.38 413 732.49C395.74 702.59 357.52 692.35 327.63 709.61C297.73 726.87 287.49 765.09 304.75 794.98C322.01 824.88 360.23 835.12 390.12 817.86Z" id="ejOjzBUY"></path><path d="M136.75 808.7C138.29 815.35 144.93 819.48 151.57 817.94C175.98 812.28 237.16 798.1 261.56 792.44C268.21 790.9 272.35 784.27 270.8 777.62C269.64 772.59 268.93 769.53 267.76 764.5C266.22 757.86 259.59 753.72 252.94 755.26C228.54 760.92 167.36 775.11 142.95 780.77C136.31 782.31 132.17 788.94 133.71 795.59C134.88 800.62 135.59 803.67 136.75 808.7Z" id="a67OHA36Ye"></path><path d="M312.65 842.25C317.64 846.91 317.9 854.73 313.25 859.71C296.14 878.01 253.27 923.91 236.16 942.21C231.51 947.2 223.69 947.46 218.71 942.8C214.94 939.28 212.64 937.14 208.87 933.61C203.89 928.96 203.62 921.14 208.28 916.16C225.38 897.85 268.26 851.96 285.36 833.66C290.02 828.67 297.83 828.41 302.81 833.06C306.59 836.59 308.88 838.73 312.65 842.25Z" id="eHiK6AofQ"></path><path d="M652.93 680.56C688.8 659.85 701.09 613.98 680.38 578.11C659.67 542.24 613.81 529.95 577.94 550.66C542.07 571.37 529.78 617.24 550.49 653.11C571.19 688.98 617.06 701.27 652.93 680.56Z" id="e8M6gnB5L"></path><path d="M428.61 731.33C431.85 736.94 439.01 738.86 444.62 735.62C465.14 723.77 516.57 694.08 537.1 682.23C542.7 678.99 544.62 671.83 541.39 666.22C538.85 661.83 537.11 658.82 534.58 654.43C531.34 648.82 524.18 646.9 518.57 650.14C498.05 661.99 446.62 691.68 426.09 703.53C420.49 706.77 418.57 713.94 421.8 719.54C424.34 723.93 426.08 726.95 428.61 731.33Z" id="c2CLvORqmn"></path><path d="M944.96 1074.87C934.61 1056.94 940.75 1034 958.69 1023.65C976.63 1013.29 999.56 1019.44 1009.91 1037.37C1020.27 1055.31 1014.12 1078.24 996.19 1088.6C978.25 1098.95 955.32 1092.81 944.96 1074.87Z" id="b5m8OaBrFJ"></path><path d="M782.58 1168.62C772.23 1150.69 778.37 1127.75 796.31 1117.4C814.25 1107.04 837.18 1113.19 847.53 1131.12C857.89 1149.06 851.74 1171.99 833.81 1182.35C815.87 1192.7 792.94 1186.56 782.58 1168.62Z" id="aFmcMMbcg"></path><path d="M709 903.67C691.74 873.78 701.98 835.55 731.88 818.29C761.77 801.04 799.99 811.28 817.25 841.17C834.51 871.06 824.27 909.29 794.37 926.54C764.48 943.8 726.26 933.56 709 903.67Z" id="lG4Zwi1fD"></path><path d="M933 1022.42C928.35 1027.41 920.53 1027.67 915.55 1023.02C897.24 1005.91 851.35 963.04 833.04 945.93C828.06 941.28 827.8 933.46 832.45 928.48C835.98 924.71 838.12 922.41 841.64 918.64C846.3 913.66 854.11 913.39 859.1 918.05C877.4 935.15 923.3 978.03 941.6 995.13C946.58 999.79 946.85 1007.6 942.19 1012.58C938.67 1016.36 936.53 1018.65 933 1022.42Z" id="cgbpJyFBf"></path><path d="M763.89 963.53C757.25 965.07 753.11 971.71 754.65 978.35C760.31 1002.75 774.5 1063.94 780.16 1088.34C781.7 1094.98 788.33 1099.12 794.98 1097.58C800 1096.41 803.06 1095.71 808.09 1094.54C814.74 1093 818.87 1086.36 817.33 1079.72C811.67 1055.32 797.49 994.13 791.83 969.73C790.29 963.09 783.65 958.95 777.01 960.49C771.98 961.66 768.92 962.36 763.89 963.53Z" id="cDA3C95T"></path><path d="M550.05 653.36C529.34 617.49 541.63 571.62 577.5 550.91C613.37 530.2 659.24 542.49 679.95 578.36C700.66 614.23 688.37 660.1 652.5 680.81C616.63 701.52 570.76 689.23 550.05 653.36Z" id="cBR8B9gdA"></path><path d="M718.93 809.49C713.33 812.73 706.16 810.81 702.92 805.2C691.07 784.68 661.38 733.25 649.53 712.72C646.29 707.12 648.21 699.95 653.82 696.71C658.21 694.18 661.22 692.44 665.61 689.91C671.22 686.67 678.38 688.59 681.62 694.19C693.47 714.72 723.16 766.15 735.01 786.67C738.25 792.28 736.33 799.45 730.72 802.68C726.34 805.22 723.32 806.96 718.93 809.49Z" id="b3AzSynbp4"></path><path d="M382.47 100.6C392.82 118.53 415.75 124.68 433.69 114.32C451.63 103.97 457.77 81.03 447.42 63.1C437.06 45.16 414.13 39.02 396.19 49.37C378.26 59.73 372.11 82.66 382.47 100.6Z" id="b4EJl9x0m0"></path><path d="M220.09 194.35C230.44 212.28 253.37 218.43 271.31 208.07C289.25 197.72 295.39 174.78 285.04 156.85C274.68 138.91 251.75 132.77 233.81 143.12C215.88 153.48 209.73 176.41 220.09 194.35Z" id="a1ZJPDD1C1"></path><path d="M412.75 390.55C430.01 420.44 468.23 430.68 498.12 413.43C528.02 396.17 538.26 357.95 521 328.05C503.74 298.16 465.52 287.92 435.63 305.18C405.73 322.44 395.49 360.66 412.75 390.55Z" id="awo1uqY6V"></path><path d="M421.91 137.18C415.26 138.72 411.13 145.36 412.67 152C418.33 176.41 432.51 237.59 438.17 261.99C439.71 268.64 446.35 272.77 452.99 271.23C458.02 270.07 461.08 269.36 466.11 268.19C472.75 266.65 476.89 260.02 475.35 253.37C469.69 228.97 455.5 167.79 449.84 143.38C448.3 136.74 441.67 132.6 435.02 134.14C430 135.31 426.94 136.02 421.91 137.18Z" id="dP9ih1iGV"></path><path d="M388.36 313.08C383.7 318.06 375.89 318.33 370.9 313.67C352.6 296.57 306.7 253.69 288.4 236.59C283.42 231.94 283.15 224.12 287.81 219.14C291.33 215.36 293.47 213.07 297 209.3C301.65 204.31 309.47 204.05 314.45 208.71C332.76 225.81 378.65 268.68 396.96 285.79C401.94 290.44 402.2 298.26 397.55 303.24C394.02 307.01 391.88 309.31 388.36 313.08Z" id="c1f57KsbxV"></path><path d="M550.05 653.36C570.76 689.23 616.63 701.52 652.5 680.81C688.37 660.1 700.66 614.23 679.95 578.36C659.24 542.49 613.37 530.2 577.5 550.91C541.63 571.62 529.34 617.49 550.05 653.36Z" id="b59eVILWTq"></path><path d="M499.28 429.04C493.67 432.27 491.75 439.44 494.99 445.05C506.84 465.57 536.53 517 548.38 537.53C551.62 543.13 558.78 545.05 564.39 541.82C568.78 539.28 571.79 537.54 576.18 535.01C581.79 531.77 583.71 524.6 580.47 519C568.62 498.47 538.93 447.04 527.08 426.52C523.84 420.91 516.67 418.99 511.07 422.23C506.68 424.76 503.66 426.5 499.28 429.04Z" id="abvMdDk7E"></path></defs><g><g><g><g><g><g><g><use xlink:href="#a4WnD64Yv" opacity="1" fill="#0070c0" fill-opacity="1"></use><g><use xlink:href="#a4WnD64Yv" opacity="1" fill-opacity="0" stroke="#282727" stroke-width="2" stroke-opacity="0"></use></g></g><g><use xlink:href="#a1zqTNUFvW" opacity="1" fill="#0070c0" fill-opacity="1"></use><g><use xlink:href="#a1zqTNUFvW" opacity="1" fill-opacity="0" stroke="#282727" stroke-width="2" stroke-opacity="0"></use></g></g><g><use xlink:href="#g28jsq2abP" opacity="1" fill="#0070c0" fill-opacity="1"></use><g><use xlink:href="#g28jsq2abP" opacity="1" fill-opacity="0" stroke="#282727" stroke-width="2" stroke-opacity="0"></use></g></g><g><use xlink:href="#bpTpW4jhJ" opacity="1" fill="#81d509" fill-opacity="1"></use></g><g><use xlink:href="#a1sEY8PPnh" opacity="1" fill="#81d509" fill-opacity="1"></use></g><g><use xlink:href="#f127FaVJGX" opacity="1" fill="#0070c0" fill-opacity="1"></use><g><use xlink:href="#f127FaVJGX" opacity="1" fill-opacity="0" stroke="#282727" stroke-width="2" stroke-opacity="0"></use></g></g><g><use xlink:href="#c1NzZnei5A" opacity="1" fill="#09f2d7" fill-opacity="1"></use></g></g><g><g><use xlink:href="#e2mTkXryma" opacity="1" fill="#0070c0" fill-opacity="1"></use><g><use xlink:href="#e2mTkXryma" opacity="1" fill-opacity="0" stroke="#282727" stroke-width="2" stroke-opacity="0"></use></g></g><g><use xlink:href="#n3o63SAklF" opacity="1" fill="#0070c0" fill-opacity="1"></use><g><use xlink:href="#n3o63SAklF" opacity="1" fill-opacity="0" stroke="#282727" stroke-width="2" stroke-opacity="0"></use></g></g><g><use xlink:href="#b1tZkw3kiV" opacity="1" fill="#0070c0" fill-opacity="1"></use><g><use xlink:href="#b1tZkw3kiV" opacity="1" fill-opacity="0" stroke="#282727" stroke-width="2" stroke-opacity="0"></use></g></g><g><use xlink:href="#c11YktRwYH" opacity="1" fill="#81d509" fill-opacity="1"></use></g><g><use xlink:href="#g2HeEspmUu" opacity="1" fill="#81d509" fill-opacity="1"></use></g><g><use xlink:href="#fr0NXzdNW" opacity="1" fill="#0070c0" fill-opacity="1"></use><g><use xlink:href="#fr0NXzdNW" opacity="1" fill-opacity="0" stroke="#282727" stroke-width="2" stroke-opacity="0"></use></g></g><g><use xlink:href="#gtuOqzY8x" opacity="1" fill="#09f2d7" fill-opacity="1"></use></g></g></g><g><g><g><use xlink:href="#gWVQcrFsC" opacity="1" fill="#0070c0" fill-opacity="1"></use><g><use xlink:href="#gWVQcrFsC" opacity="1" fill-opacity="0" stroke="#282727" stroke-width="2" stroke-opacity="0"></use></g></g><g><use xlink:href="#brB1U7oNO" opacity="1" fill="#0070c0" fill-opacity="1"></use><g><use xlink:href="#brB1U7oNO" opacity="1" fill-opacity="0" stroke="#282727" stroke-width="2" stroke-opacity="0"></use></g></g><g><use xlink:href="#e2GIzJ8nWb" opacity="1" fill="#0070c0" fill-opacity="1"></use><g><use xlink:href="#e2GIzJ8nWb" opacity="1" fill-opacity="0" stroke="#282727" stroke-width="2" stroke-opacity="0"></use></g></g><g><use xlink:href="#dbLjQj5Gl" opacity="1" fill="#81d509" fill-opacity="1"></use></g><g><use xlink:href="#a4lpX8why" opacity="1" fill="#81d509" fill-opacity="1"></use></g><g><use xlink:href="#b2JuzmLfuS" opacity="1" fill="#0070c0" fill-opacity="1"></use><g><use xlink:href="#b2JuzmLfuS" opacity="1" fill-opacity="0" stroke="#282727" stroke-width="2" stroke-opacity="0"></use></g></g><g><use xlink:href="#d1Lcq1UMD0" opacity="1" fill="#09f2d7" fill-opacity="1"></use></g></g><g><g><use xlink:href="#d2yg7BOcq" opacity="1" fill="#0070c0" fill-opacity="1"></use><g><use xlink:href="#d2yg7BOcq" opacity="1" fill-opacity="0" stroke="#282727" stroke-width="2" stroke-opacity="0"></use></g></g><g><use xlink:href="#crWHTUAov" opacity="1" fill="#0070c0" fill-opacity="1"></use><g><use xlink:href="#crWHTUAov" opacity="1" fill-opacity="0" stroke="#282727" stroke-width="2" stroke-opacity="0"></use></g></g><g><use xlink:href="#f57CChH46L" opacity="1" fill="#0070c0" fill-opacity="1"></use><g><use xlink:href="#f57CChH46L" opacity="1" fill-opacity="0" stroke="#282727" stroke-width="2" stroke-opacity="0"></use></g></g><g><use xlink:href="#b41ecORMoX" opacity="1" fill="#81d509" fill-opacity="1"></use></g><g><use xlink:href="#bFQ8yL0rs" opacity="1" fill="#81d509" fill-opacity="1"></use></g><g><use xlink:href="#b1H4GX09xg" opacity="1" fill="#0070c0" fill-opacity="1"></use><g><use xlink:href="#b1H4GX09xg" opacity="1" fill-opacity="0" stroke="#282727" stroke-width="2" stroke-opacity="0"></use></g></g><g><use xlink:href="#d2tw7fAmHd" opacity="1" fill="#09f2d7" fill-opacity="1"></use></g></g></g></g><g><g><g><g><use xlink:href="#a5y7L4bT5" opacity="1" fill="#0070c0" fill-opacity="1"></use><g><use xlink:href="#a5y7L4bT5" opacity="1" fill-opacity="0" stroke="#282727" stroke-width="2" stroke-opacity="0"></use></g></g><g><use xlink:href="#b1rsYaXHeG" opacity="1" fill="#0070c0" fill-opacity="1"></use><g><use xlink:href="#b1rsYaXHeG" opacity="1" fill-opacity="0" stroke="#282727" stroke-width="2" stroke-opacity="0"></use></g></g><g><use xlink:href="#aiHjCGllW" opacity="1" fill="#0070c0" fill-opacity="1"></use><g><use xlink:href="#aiHjCGllW" opacity="1" fill-opacity="0" stroke="#282727" stroke-width="2" stroke-opacity="0"></use></g></g><g><use xlink:href="#a5ZV0PG0eV" opacity="1" fill="#81d509" fill-opacity="1"></use></g><g><use xlink:href="#c1IUPN3lcB" opacity="1" fill="#81d509" fill-opacity="1"></use></g><g><use xlink:href="#aYQcFAagb" opacity="1" fill="#0070c0" fill-opacity="1"></use><g><use xlink:href="#aYQcFAagb" opacity="1" fill-opacity="0" stroke="#282727" stroke-width="2" stroke-opacity="0"></use></g></g><g><use xlink:href="#b3JAGLM5gX" opacity="1" fill="#09f2d7" fill-opacity="1"></use></g></g><g><g><use xlink:href="#dkgeWwxEt" opacity="1" fill="#0070c0" fill-opacity="1"></use><g><use xlink:href="#dkgeWwxEt" opacity="1" fill-opacity="0" stroke="#282727" stroke-width="2" stroke-opacity="0"></use></g></g><g><use xlink:href="#b32wAVru" opacity="1" fill="#0070c0" fill-opacity="1"></use><g><use xlink:href="#b32wAVru" opacity="1" fill-opacity="0" stroke="#282727" stroke-width="2" stroke-opacity="0"></use></g></g><g><use xlink:href="#e16Ur2GxQU" opacity="1" fill="#0070c0" fill-opacity="1"></use><g><use xlink:href="#e16Ur2GxQU" opacity="1" fill-opacity="0" stroke="#282727" stroke-width="2" stroke-opacity="0"></use></g></g><g><use xlink:href="#aHTmG1Kd9" opacity="1" fill="#81d509" fill-opacity="1"></use></g><g><use xlink:href="#b3mWdjvQF" opacity="1" fill="#81d509" fill-opacity="1"></use></g><g><use xlink:href="#d10f9TYuX4" opacity="1" fill="#0070c0" fill-opacity="1"></use><g><use xlink:href="#d10f9TYuX4" opacity="1" fill-opacity="0" stroke="#282727" stroke-width="2" stroke-opacity="0"></use></g></g><g><use xlink:href="#b211KRbLLr" opacity="1" fill="#09f2d7" fill-opacity="1"></use></g></g></g><g><g><g><use xlink:href="#b8nE2uv3Oh" opacity="1" fill="#0070c0" fill-opacity="1"></use><g><use xlink:href="#b8nE2uv3Oh" opacity="1" fill-opacity="0" stroke="#282727" stroke-width="2" stroke-opacity="0"></use></g></g><g><use xlink:href="#bGjobLCHR" opacity="1" fill="#0070c0" fill-opacity="1"></use><g><use xlink:href="#bGjobLCHR" opacity="1" fill-opacity="0" stroke="#282727" stroke-width="2" stroke-opacity="0"></use></g></g><g><use xlink:href="#ayeRVAShY" opacity="1" fill="#0070c0" fill-opacity="1"></use><g><use xlink:href="#ayeRVAShY" opacity="1" fill-opacity="0" stroke="#282727" stroke-width="2" stroke-opacity="0"></use></g></g><g><use xlink:href="#a1HTB0qeKc" opacity="1" fill="#81d509" fill-opacity="1"></use></g><g><use xlink:href="#d1ymWNKg0t" opacity="1" fill="#81d509" fill-opacity="1"></use></g><g><use xlink:href="#a5a9psnFru" opacity="1" fill="#0070c0" fill-opacity="1"></use><g><use xlink:href="#a5a9psnFru" opacity="1" fill-opacity="0" stroke="#282727" stroke-width="2" stroke-opacity="0"></use></g></g><g><use xlink:href="#a2aMge4rJ7" opacity="1" fill="#09f2d7" fill-opacity="1"></use></g></g><g><g><use xlink:href="#c1mO898j6" opacity="1" fill="#0070c0" fill-opacity="1"></use><g><use xlink:href="#c1mO898j6" opacity="1" fill-opacity="0" stroke="#282727" stroke-width="2" stroke-opacity="0"></use></g></g><g><use xlink:href="#a784T8iNHA" opacity="1" fill="#0070c0" fill-opacity="1"></use><g><use xlink:href="#a784T8iNHA" opacity="1" fill-opacity="0" stroke="#282727" stroke-width="2" stroke-opacity="0"></use></g></g><g><use xlink:href="#h3b5Bwoxwt" opacity="1" fill="#0070c0" fill-opacity="1"></use><g><use xlink:href="#h3b5Bwoxwt" opacity="1" fill-opacity="0" stroke="#282727" stroke-width="2" stroke-opacity="0"></use></g></g><g><use xlink:href="#d3hwublhdi" opacity="1" fill="#81d509" fill-opacity="1"></use></g><g><use xlink:href="#a5Wtbabi5" opacity="1" fill="#81d509" fill-opacity="1"></use></g><g><use xlink:href="#bfGTliYRw" opacity="1" fill="#0070c0" fill-opacity="1"></use><g><use xlink:href="#bfGTliYRw" opacity="1" fill-opacity="0" stroke="#282727" stroke-width="2" stroke-opacity="0"></use></g></g><g><use xlink:href="#d1pE08BlyA" opacity="1" fill="#09f2d7" fill-opacity="1"></use></g></g></g></g><g><g><g><g><use xlink:href="#e3HuKfllNg" opacity="1" fill="#0070c0" fill-opacity="1"></use><g><use xlink:href="#e3HuKfllNg" opacity="1" fill-opacity="0" stroke="#282727" stroke-width="2" stroke-opacity="0"></use></g></g><g><use xlink:href="#aiVTngEtp" opacity="1" fill="#0070c0" fill-opacity="1"></use><g><use xlink:href="#aiVTngEtp" opacity="1" fill-opacity="0" stroke="#282727" stroke-width="2" stroke-opacity="0"></use></g></g><g><use xlink:href="#b5AfvCA8hU" opacity="1" fill="#0070c0" fill-opacity="1"></use><g><use xlink:href="#b5AfvCA8hU" opacity="1" fill-opacity="0" stroke="#282727" stroke-width="2" stroke-opacity="0"></use></g></g><g><use xlink:href="#a9aT4akxE" opacity="1" fill="#81d509" fill-opacity="1"></use></g><g><use xlink:href="#faSNIyPuT" opacity="1" fill="#81d509" fill-opacity="1"></use></g><g><use xlink:href="#c2gB428Tv2" opacity="1" fill="#0070c0" fill-opacity="1"></use><g><use xlink:href="#c2gB428Tv2" opacity="1" fill-opacity="0" stroke="#282727" stroke-width="2" stroke-opacity="0"></use></g></g><g><use xlink:href="#czTPF63ql" opacity="1" fill="#09f2d7" fill-opacity="1"></use></g></g><g><g><use xlink:href="#a2U9gzEbRJ" opacity="1" fill="#0070c0" fill-opacity="1"></use><g><use xlink:href="#a2U9gzEbRJ" opacity="1" fill-opacity="0" stroke="#282727" stroke-width="2" stroke-opacity="0"></use></g></g><g><use xlink:href="#a6nu7f5jj" opacity="1" fill="#0070c0" fill-opacity="1"></use><g><use xlink:href="#a6nu7f5jj" opacity="1" fill-opacity="0" stroke="#282727" stroke-width="2" stroke-opacity="0"></use></g></g><g><use xlink:href="#ejOjzBUY" opacity="1" fill="#0070c0" fill-opacity="1"></use><g><use xlink:href="#ejOjzBUY" opacity="1" fill-opacity="0" stroke="#282727" stroke-width="2" stroke-opacity="0"></use></g></g><g><use xlink:href="#a67OHA36Ye" opacity="1" fill="#81d509" fill-opacity="1"></use></g><g><use xlink:href="#eHiK6AofQ" opacity="1" fill="#81d509" fill-opacity="1"></use></g><g><use xlink:href="#e8M6gnB5L" opacity="1" fill="#0070c0" fill-opacity="1"></use><g><use xlink:href="#e8M6gnB5L" opacity="1" fill-opacity="0" stroke="#282727" stroke-width="2" stroke-opacity="0"></use></g></g><g><use xlink:href="#c2CLvORqmn" opacity="1" fill="#09f2d7" fill-opacity="1"></use></g></g></g><g><g><g><use xlink:href="#b5m8OaBrFJ" opacity="1" fill="#0070c0" fill-opacity="1"></use><g><use xlink:href="#b5m8OaBrFJ" opacity="1" fill-opacity="0" stroke="#282727" stroke-width="2" stroke-opacity="0"></use></g></g><g><use xlink:href="#aFmcMMbcg" opacity="1" fill="#0070c0" fill-opacity="1"></use><g><use xlink:href="#aFmcMMbcg" opacity="1" fill-opacity="0" stroke="#282727" stroke-width="2" stroke-opacity="0"></use></g></g><g><use xlink:href="#lG4Zwi1fD" opacity="1" fill="#0070c0" fill-opacity="1"></use><g><use xlink:href="#lG4Zwi1fD" opacity="1" fill-opacity="0" stroke="#282727" stroke-width="2" stroke-opacity="0"></use></g></g><g><use xlink:href="#cgbpJyFBf" opacity="1" fill="#81d509" fill-opacity="1"></use></g><g><use xlink:href="#cDA3C95T" opacity="1" fill="#81d509" fill-opacity="1"></use></g><g><use xlink:href="#cBR8B9gdA" opacity="1" fill="#0070c0" fill-opacity="1"></use><g><use xlink:href="#cBR8B9gdA" opacity="1" fill-opacity="0" stroke="#282727" stroke-width="2" stroke-opacity="0"></use></g></g><g><use xlink:href="#b3AzSynbp4" opacity="1" fill="#09f2d7" fill-opacity="1"></use></g></g><g><g><use xlink:href="#b4EJl9x0m0" opacity="1" fill="#0070c0" fill-opacity="1"></use><g><use xlink:href="#b4EJl9x0m0" opacity="1" fill-opacity="0" stroke="#282727" stroke-width="2" stroke-opacity="0"></use></g></g><g><use xlink:href="#a1ZJPDD1C1" opacity="1" fill="#0070c0" fill-opacity="1"></use><g><use xlink:href="#a1ZJPDD1C1" opacity="1" fill-opacity="0" stroke="#282727" stroke-width="2" stroke-opacity="0"></use></g></g><g><use xlink:href="#awo1uqY6V" opacity="1" fill="#0070c0" fill-opacity="1"></use><g><use xlink:href="#awo1uqY6V" opacity="1" fill-opacity="0" stroke="#282727" stroke-width="2" stroke-opacity="0"></use></g></g><g><use xlink:href="#dP9ih1iGV" opacity="1" fill="#81d509" fill-opacity="1"></use></g><g><use xlink:href="#c1f57KsbxV" opacity="1" fill="#81d509" fill-opacity="1"></use></g><g><use xlink:href="#b59eVILWTq" opacity="1" fill="#0070c0" fill-opacity="1"></use><g><use xlink:href="#b59eVILWTq" opacity="1" fill-opacity="0" stroke="#282727" stroke-width="2" stroke-opacity="0"></use></g></g><g><use xlink:href="#abvMdDk7E" opacity="1" fill="#09f2d7" fill-opacity="1"></use></g></g></g></g></g></g></g></svg>