<?xml version="1.0" encoding="UTF-8" standalone="no"?>
<!DOCTYPE svg PUBLIC "-//W3C//DTD SVG 1.1//EN" "http://www.w3.org/Graphics/SVG/1.1/DTD/svg11.dtd">
<svg version="1.1" xmlns="http://www.w3.org/2000/svg" xmlns:xlink="http://www.w3.org/1999/xlink" preserveAspectRatio="xMidYMid meet" viewBox="0 0 250 250" width="250" height="250"><defs><path d="" id="b4n1RtLRw"></path><path d="M46.58 220.08C45.01 211.21 54.78 202.07 68.36 199.67C81.95 197.27 94.25 202.53 95.82 211.4C97.38 220.26 87.62 229.41 74.03 231.8C60.44 234.2 48.14 228.95 46.58 220.08Z" id="ddek0wlz"></path><path d="M196.25 220.08C197.81 211.21 188.05 202.07 174.46 199.67C160.87 197.27 148.57 202.53 147.01 211.4C145.44 220.26 155.21 229.41 168.79 231.8C182.38 234.2 194.68 228.95 196.25 220.08Z" id="e1ixrPsadb"></path><path d="M222.77 120.85C222.77 178.68 177.35 225.63 121.41 225.63C65.47 225.63 20.06 178.68 20.06 120.85C20.06 63.02 65.47 16.07 121.41 16.07C177.35 16.07 222.77 63.02 222.77 120.85Z" id="e2lk4GvmHw"></path><path d="M69.65 136.17C66.12 176.59 49.69 208.22 32.99 206.75C16.29 205.29 5.59 171.29 9.12 130.87C12.65 90.45 29.08 58.82 45.78 60.29C62.49 61.75 73.18 95.75 69.65 136.17Z" id="diuraLSbD"></path><path d="M173.17 136.17C176.7 176.59 193.13 208.22 209.83 206.75C226.54 205.29 237.23 171.29 233.7 130.87C230.17 90.45 213.74 58.82 197.04 60.29C180.34 61.75 169.64 95.75 173.17 136.17Z" id="cowJ9hxiB"></path><path d="M104.48 112.91C104.48 104.22 112.06 97.18 121.41 97.18C130.77 97.18 138.35 104.22 138.35 112.91C138.35 121.59 130.77 128.63 121.41 141.88C112.06 128.63 104.48 121.59 104.48 112.91Z" id="cySuLLfvI"></path><path d="M121.41 95.63L121.11 95.59L120.82 95.56L120.52 95.51L120.23 95.47L119.94 95.41L119.65 95.35L119.37 95.28L119.09 95.21L118.81 95.13L118.53 95.05L118.25 94.96L117.98 94.86L117.7 94.76L117.43 94.65L117.17 94.54L116.9 94.43L116.64 94.3L116.37 94.18L116.11 94.05L115.86 93.91L115.6 93.76L115.35 93.62L115.09 93.46L114.84 93.31L114.59 93.14L114.35 92.97L114.1 92.8L113.86 92.62L113.62 92.44L113.38 92.25L113.14 92.06L112.91 91.86L112.68 91.65L112.45 91.44L112.22 91.23L111.99 91.01L111.77 90.78L111.54 90.55L111.32 90.31L111.11 90.07L110.89 89.82L110.68 89.57L110.46 89.31L110.25 89.04L110.05 88.77L109.84 88.49L109.64 88.21L109.44 87.92L109.24 87.63L109.24 87.63L109.24 87.63L108.42 86.1L107.58 84.63L106.72 83.2L105.85 81.82L104.97 80.48L104.07 79.18L103.15 77.92L102.23 76.69L101.29 75.51L100.34 74.37L99.37 73.26L98.4 72.18L97.41 71.14L96.41 70.14L95.4 69.16L94.38 68.23L93.35 67.32L92.31 66.45L91.25 65.6L90.19 64.79L89.11 64.02L88.03 63.27L86.93 62.55L85.82 61.87L84.71 61.22L83.58 60.6L82.44 60L81.29 59.45L80.13 58.92L78.96 58.42L77.78 57.96L76.58 57.52L75.38 57.12L74.17 56.76L72.94 56.42L71.7 56.12L70.46 55.86L69.19 55.62L67.92 55.43L66.64 55.27L65.34 55.15L64.03 55.06L62.71 55.01L61.37 55.01L60.02 55.04L58.66 55.12L57.28 55.24L55.88 55.41L54.47 55.63L54.47 55.63L54.47 55.63L53.46 55.5L52.46 55.34L51.48 55.15L50.51 54.94L49.55 54.71L48.61 54.45L47.68 54.16L46.76 53.85L45.85 53.53L44.95 53.17L44.06 52.8L43.19 52.4L42.32 51.99L41.47 51.55L40.62 51.09L39.79 50.62L38.96 50.12L38.15 49.6L37.35 49.07L36.55 48.51L35.77 47.93L34.99 47.34L34.23 46.72L33.47 46.09L32.73 45.44L31.99 44.76L31.27 44.07L30.55 43.36L29.84 42.63L29.15 41.88L28.46 41.11L27.79 40.32L27.12 39.52L26.46 38.69L25.82 37.84L25.18 36.97L24.56 36.08L23.94 35.17L23.34 34.24L22.75 33.28L22.17 32.31L21.6 31.31L21.04 30.28L20.49 29.24L19.96 28.17L19.44 27.07L18.93 25.95L18.44 24.8L17.95 23.63L17.95 23.63L17.95 23.63L18.64 24.28L19.33 24.9L20.02 25.5L20.71 26.08L21.4 26.63L22.1 27.16L22.8 27.67L23.51 28.16L24.21 28.62L24.92 29.07L25.64 29.49L26.35 29.9L27.07 30.29L27.79 30.65L28.51 31L29.23 31.33L29.96 31.64L30.69 31.93L31.42 32.2L32.15 32.46L32.89 32.69L33.63 32.91L34.37 33.11L35.11 33.29L35.86 33.45L36.6 33.6L37.35 33.72L38.11 33.83L38.86 33.92L39.62 34L40.38 34.05L41.14 34.09L41.9 34.1L42.67 34.1L43.44 34.08L44.21 34.04L44.98 33.98L45.76 33.9L46.53 33.8L47.32 33.68L48.1 33.54L48.89 33.38L49.67 33.2L50.47 33L51.26 32.77L52.06 32.52L52.86 32.25L53.66 31.95L54.47 31.63L54.47 31.63L54.47 31.63L55.79 30.97L57.11 30.33L58.44 29.7L59.76 29.08L61.09 28.48L62.42 27.89L63.75 27.32L65.09 26.76L66.42 26.22L67.76 25.69L69.1 25.17L70.44 24.66L71.79 24.17L73.13 23.7L74.48 23.24L75.83 22.79L77.18 22.35L78.53 21.93L79.89 21.52L81.24 21.13L82.6 20.75L83.96 20.38L85.33 20.02L86.69 19.68L88.06 19.36L89.42 19.05L90.79 18.75L92.17 18.46L93.54 18.19L94.91 17.93L96.29 17.68L97.67 17.45L99.05 17.24L100.44 17.03L101.82 16.84L103.21 16.66L104.6 16.5L105.99 16.35L107.38 16.22L108.77 16.09L110.17 15.99L111.57 15.89L112.97 15.81L114.37 15.75L115.78 15.7L117.18 15.66L118.59 15.63L120 15.63L121.41 15.63L121.41 15.63L121.41 15.63L122.82 15.63L124.23 15.63L125.64 15.66L127.05 15.7L128.45 15.75L129.85 15.81L131.26 15.89L132.65 15.99L134.05 16.09L135.44 16.22L136.84 16.35L138.23 16.5L139.62 16.66L141 16.84L142.39 17.03L143.77 17.24L145.15 17.45L146.53 17.68L147.91 17.93L149.29 18.19L150.66 18.46L152.03 18.75L153.4 19.05L154.77 19.36L156.14 19.68L157.5 20.02L158.86 20.38L160.22 20.75L161.58 21.13L162.94 21.52L164.29 21.93L165.65 22.35L167 22.79L168.35 23.24L169.69 23.7L171.04 24.17L172.38 24.66L173.72 25.17L175.06 25.69L176.4 26.22L177.74 26.76L179.07 27.32L180.4 27.89L181.73 28.48L183.06 29.08L184.39 29.7L185.71 30.33L187.04 30.97L188.36 31.63L188.36 31.63L188.36 31.63L189.16 31.95L189.97 32.25L190.77 32.52L191.56 32.77L192.36 33L193.15 33.2L193.94 33.38L194.73 33.54L195.51 33.68L196.29 33.8L197.07 33.9L197.84 33.98L198.62 34.04L199.39 34.08L200.16 34.1L200.92 34.1L201.69 34.09L202.45 34.05L203.21 34L203.96 33.92L204.72 33.83L205.47 33.72L206.22 33.6L206.97 33.45L207.71 33.29L208.46 33.11L209.2 32.91L209.93 32.69L210.67 32.46L211.4 32.2L212.14 31.93L212.86 31.64L213.59 31.33L214.32 31L215.04 30.65L215.76 30.29L216.47 29.9L217.19 29.49L217.9 29.07L218.61 28.62L219.32 28.16L220.02 27.67L220.72 27.16L221.42 26.63L222.12 26.08L222.81 25.5L223.5 24.9L224.19 24.28L224.87 23.63L224.87 23.63L224.87 23.63L224.39 24.8L223.9 25.95L223.39 27.07L222.87 28.17L222.33 29.24L221.79 30.28L221.23 31.31L220.66 32.31L220.08 33.28L219.49 34.24L218.88 35.17L218.27 36.08L217.64 36.97L217.01 37.84L216.36 38.69L215.7 39.52L215.04 40.32L214.36 41.11L213.68 41.88L212.98 42.63L212.27 43.36L211.56 44.07L210.83 44.76L210.1 45.44L209.35 46.09L208.6 46.72L207.83 47.34L207.06 47.93L206.27 48.51L205.48 49.07L204.67 49.6L203.86 50.12L203.04 50.62L202.2 51.09L201.36 51.55L200.5 51.99L199.64 52.4L198.76 52.8L197.87 53.17L196.98 53.53L196.07 53.85L195.15 54.16L194.21 54.45L193.27 54.71L192.31 54.94L191.34 55.15L190.36 55.34L189.37 55.5L188.36 55.63L188.36 55.63L188.36 55.63L186.94 55.41L185.55 55.24L184.17 55.12L182.8 55.04L181.45 55.01L180.12 55.01L178.79 55.06L177.48 55.15L176.19 55.27L174.9 55.43L173.63 55.62L172.37 55.86L171.12 56.12L169.88 56.42L168.66 56.76L167.44 57.12L166.24 57.52L165.05 57.96L163.87 58.42L162.7 58.92L161.54 59.45L160.39 60L159.25 60.6L158.12 61.22L157 61.87L155.89 62.55L154.8 63.27L153.71 64.02L152.64 64.79L151.57 65.6L150.52 66.45L149.47 67.32L148.44 68.23L147.42 69.16L146.41 70.14L145.41 71.14L144.43 72.18L143.45 73.26L142.49 74.37L141.54 75.51L140.6 76.69L139.67 77.92L138.76 79.18L137.86 80.48L136.97 81.82L136.1 83.2L135.25 84.63L134.41 86.1L133.58 87.63L133.58 87.63L133.58 87.63L133.39 87.92L133.19 88.21L132.98 88.49L132.78 88.77L132.57 89.04L132.36 89.31L132.15 89.57L131.94 89.82L131.72 90.07L131.5 90.31L131.28 90.55L131.06 90.78L130.83 91.01L130.61 91.23L130.38 91.44L130.15 91.65L129.91 91.86L129.68 92.06L129.44 92.25L129.2 92.44L128.96 92.62L128.72 92.8L128.48 92.97L128.23 93.14L127.98 93.31L127.73 93.46L127.48 93.62L127.23 93.76L126.97 93.91L126.71 94.05L126.45 94.18L126.19 94.3L125.92 94.43L125.66 94.54L125.39 94.65L125.12 94.76L124.85 94.86L124.57 94.96L124.3 95.05L124.02 95.13L123.74 95.21L123.46 95.28L123.17 95.35L122.88 95.41L122.59 95.47L122.3 95.51L122.01 95.56L121.71 95.59L121.41 95.63L121.41 95.63L121.41 95.63Z" id="c1CDPdfKi3"></path><path d="M121.73 87.11C121.73 101.72 109.82 113.59 95.15 113.59C80.48 113.59 68.57 101.72 68.57 87.11C68.57 72.49 80.48 60.62 95.15 60.62C109.82 60.62 121.73 72.49 121.73 87.11Z" id="b3iD9rugf"></path><path d="M109.98 84.33C109.98 90.43 104.81 95.39 98.43 95.39C92.06 95.39 86.88 90.43 86.88 84.33C86.88 78.24 92.06 73.28 98.43 73.28C104.81 73.28 109.98 78.24 109.98 84.33Z" id="beAMSTT0C"></path><path d="M174.25 87.11C174.25 101.72 162.34 113.59 147.67 113.59C133 113.59 121.1 101.72 121.1 87.11C121.1 72.49 133 60.62 147.67 60.62C162.34 60.62 174.25 72.49 174.25 87.11Z" id="c34GczyMP"></path><path d="M162.51 84.33C162.51 90.43 157.33 95.39 150.96 95.39C144.58 95.39 139.41 90.43 139.41 84.33C139.41 78.24 144.58 73.28 150.96 73.28C157.33 73.28 162.51 78.24 162.51 84.33Z" id="cr8gvRIHB"></path></defs><g><g><g><g><g><use xlink:href="#b4n1RtLRw" opacity="1" fill-opacity="0" stroke="#000000" stroke-width="1" stroke-opacity="1"></use></g></g><g><use xlink:href="#ddek0wlz" opacity="1" fill="#f8d549" fill-opacity="1"></use></g><g><use xlink:href="#e1ixrPsadb" opacity="1" fill="#f8d549" fill-opacity="1"></use></g><g><use xlink:href="#e2lk4GvmHw" opacity="1" fill="#895bda" fill-opacity="1"></use></g><g><g><use xlink:href="#diuraLSbD" opacity="1" fill="#52bed4" fill-opacity="1"></use></g><g><use xlink:href="#cowJ9hxiB" opacity="1" fill="#52bed4" fill-opacity="1"></use></g></g><g><use xlink:href="#cySuLLfvI" opacity="1" fill="#ea9f41" fill-opacity="1"></use></g><g><use xlink:href="#c1CDPdfKi3" opacity="1" fill="#f8d549" fill-opacity="1"></use><g><use xlink:href="#c1CDPdfKi3" opacity="1" fill-opacity="0" stroke="#ffffff" stroke-width="3" stroke-opacity="0"></use></g></g><g><g><use xlink:href="#b3iD9rugf" opacity="1" fill="#d8e4d3" fill-opacity="1"></use></g><g><use xlink:href="#beAMSTT0C" opacity="1" fill="#272a25" fill-opacity="1"></use></g><g><use xlink:href="#c34GczyMP" opacity="1" fill="#d8e4d3" fill-opacity="1"></use></g><g><use xlink:href="#cr8gvRIHB" opacity="1" fill="#272a25" fill-opacity="1"></use></g></g></g></g></g></svg>