<?xml version="1.0" encoding="UTF-8" standalone="no"?>
<!DOCTYPE svg PUBLIC "-//W3C//DTD SVG 1.1//EN" "http://www.w3.org/Graphics/SVG/1.1/DTD/svg11.dtd">
<svg version="1.1" xmlns="http://www.w3.org/2000/svg" xmlns:xlink="http://www.w3.org/1999/xlink" preserveAspectRatio="xMidYMid meet" viewBox="0 0 3000 1400" width="3000" height="1400"><defs><path d="M1713.99 641.99L1539.52 719.88L1746.3 942.47L1688.14 1016.79L1668.76 1065.25L1969.24 1336.65L2095.24 1344.88L2206.11 1282.38L2350.49 1094.88L2214.79 932.78L2143.14 793.85L2206.11 587.07L2318.18 469.88L2395.02 407.38L2369.88 380.29L2206.11 254.28L2098.47 407.38L1788.3 435.21L1765.33 441.67L1555.67 469.88L1713.99 641.99Z" id="c3FTbiAyak"></path><path d="M609.4 425.11L694.86 460.26L830.82 484.86L851.91 621.93L553.17 562.18L493.42 532.38L486.39 477.83L505.95 432.14L556.68 379.42L609.4 425.11Z" id="dabTvpmCU"></path><path d="M921.37 438.63L883.77 469.88L820.8 494.71L842.83 612.52L1030.11 657.38L1208.32 802.82L1332.17 844.88L1380.5 672.93L1230.09 588.35L1230.09 532.38L1223.43 494.71L1208.32 407.38L957.61 376.13L921.37 438.63Z" id="e1i2f2X5TN"></path><path d="M343.88 469.88L442.98 514.39L496.99 541.18L496.99 506.73L505.95 453.14L523.78 422.52L596.51 376.59L451.06 384.25L254.08 407.38L83.6 388.07" id="bj51MM6D"></path><path d="M2680.05 483.68L2276.18 448.14L2218.02 448.14L2185.71 469.88L2206.11 509.52L2121.09 512.75L1954.23 603.22L2117.86 719.88L2043.55 782.38L2121.09 884.32L2024.16 890.78L2017.2 926.32L2114.63 1032.38L2206.11 1062.02L2143.14 1171.87L2124.32 1326.96L2206.11 1282.38L2332.05 1113.71L2520.95 1246.18L2646.89 1219.88L2772.83 1013.55L2709.86 978.01L2583.92 990.94L2450.65 942.47L2520.95 929.55L2440.96 855.24L2332.05 844.88L2214.79 884.32L2176.02 871.39L2153.4 844.88L2153.4 806.77L2159.86 782.38L2176.02 755.08L2206.11 745.38L2379.57 764.77L2676.82 868.16L2722.05 874.62L2886.83 800.31L2747.9 719.88L2709.86 729.23L2618.66 703.38L2431.26 657.38L2276.18 622.61L2240.64 606.45L2230.94 577.37L2253.56 532.38L2298.79 532.38L2531.42 564.45L2646.89 580.61L2741.44 603.22L2772.83 606.45L2915.91 594.88L2935.29 386.75L2809.29 338.28L2660.66 373.82L2680.05 483.68Z" id="aYnKkKLYj"></path><path d="M1793.83 1173.73L1828.3 1131.55L2134.75 1032.38L1891.27 782.38L1688.39 1019.09L1677.85 1068.29L1793.83 1173.73Z" id="d3dtIxtsxV"></path><path d="M1765.33 336.99L2332.05 120.52L2117.21 421L1828.3 469.88L1794.12 459.77L1606.72 344.88L1765.33 336.99Z" id="b1Bqmv7Y0G"></path><path d="M1972.47 1336.65L2092.01 1344.88L2127.55 1323.73L2143.14 1181.56L2221.25 1055.56L2114.63 1020.02L1828.3 1113.71L1785.07 1168.64L1972.47 1336.65Z" id="dJzxmZOD9"></path><path d="M2206.11 282.38L2346.61 395.15L2566.32 256.22L2618.01 246.52L2614.78 157.38L2566.32 94.88L2408 84.98L2332.05 114.05L2206.11 282.38Z" id="b1heKMRxA6"></path><path d="M1425.59 350.98L1600.1 344.88L1765.33 443.14L1553.04 478.44L1723.63 643.14L1544.94 715.69L1756.97 949.02L1696.18 1013.73L1678.53 1074.51L1488.34 896.08L1333.44 850.98L1380.49 676.48L1223.63 590.2L1230.09 545.1L1198.61 407.38L1425.59 350.98Z" id="a32O0YnGgz"></path><path d="M841.37 358.33L964.38 375.91L953.84 407.38L918.69 456.74L894.09 477.83L858.94 495.4L820.8 498.92L792.16 495.4L757.83 488.38L725.38 481.35L694.86 469.88L662.12 460.26L631.89 449.71L602.37 439.17L577.77 418.08L556.68 372.39L841.37 358.33Z" id="dlyeDXXSv"></path><path d="M288.24 450.76L364.71 478.96L429.14 509.58L505.88 549.16L1025.01 650.76L1194.12 803.7L1488.24 900.17L1970.59 1338.99L2094.12 1344.88L2194.12 1291.93L2329.41 1110.78L2514.7 1251.19L2635.29 1233.11L2776.47 1021.35L2713.32 991.93L2729.41 874.29L2900 803.7L2752.94 727.23L2770.59 603.7L2911.95 597.82L2935.29 386.05L2812.64 338.55L2688.24 368.4L2682.35 268.35L2614.01 250.76L2614.01 156.64L2564.71 91.93L2415.39 86.05L1764.71 338.55L1422.26 350.76L1211.76 408.75L988.24 380.17L826.39 356.64L588.24 374.29L264.71 408.75L64.71 386.05L288.24 450.76Z" id="e4bQGptpqY"></path><path d="M2167.97 750.71L2143.14 773.29L2135.71 805.55L2143.14 837.81L2161.52 866.84L2193.78 882.97L2583.92 1005.55L2772.83 986.2L2784.1 895.87L2387.32 750.71L2206.11 734.58L2167.97 750.71Z" id="ec0nNjAOP"></path><path d="M2219.58 524.91L2216.36 550.71L2213.13 579.74L2229.26 608.78L2261.52 624.91L2387.32 657.38L2567.97 712L2732.49 744.26L2816.36 692.65L2822.81 631.36L2626.03 560.39L2438.94 532.38L2251.84 515.23L2219.58 524.91Z" id="a6LdezfKI"></path><path d="M2845.47 663.53C2845.47 682.16 2833.91 697.29 2819.67 697.29C2805.43 697.29 2793.86 682.16 2793.86 663.53C2793.86 644.89 2805.43 629.76 2819.67 629.76C2833.91 629.76 2845.47 644.89 2845.47 663.53Z" id="c1hllM0kYx"></path><path d="M2819.6 941.03C2819.6 969.52 2802.26 992.65 2780.89 992.65C2759.53 992.65 2742.18 969.52 2742.18 941.03C2742.18 912.55 2759.53 889.42 2780.89 889.42C2802.26 889.42 2819.6 912.55 2819.6 941.03Z" id="mxJ4xF5Bm"></path><path d="M2507.11 286.38L2236.77 473.88L2709.86 510.29L2684.8 384.29L2681.33 271.2L2574.69 242.12L2507.11 286.38Z" id="f1dnFiNR1G"></path><path d="M2179.25 894.01L2332.05 835.85L2444.19 844.88L2537.89 939.24L2440.96 955.4L2279.41 942.47L2108.17 919.86L2179.25 894.01Z" id="buS6jHbmV"></path></defs><g><g><g><g><use xlink:href="#c3FTbiAyak" opacity="1" fill="#e4ecef" fill-opacity="1"></use></g><g><use xlink:href="#dabTvpmCU" opacity="1" fill="#2f4cab" fill-opacity="1"></use></g><g><use xlink:href="#e1i2f2X5TN" opacity="1" fill="#45405f" fill-opacity="1"></use></g><g><use xlink:href="#bj51MM6D" opacity="1" fill="#e3e1ed" fill-opacity="1"></use></g><g><use xlink:href="#aYnKkKLYj" opacity="1" fill="#aea2b0" fill-opacity="1"></use></g><g><use xlink:href="#d3dtIxtsxV" opacity="1" fill="#94999b" fill-opacity="1"></use></g><g><use xlink:href="#b1Bqmv7Y0G" opacity="1" fill="#94999b" fill-opacity="1"></use></g><g><use xlink:href="#dJzxmZOD9" opacity="1" fill="#827984" fill-opacity="1"></use></g><g><use xlink:href="#b1heKMRxA6" opacity="1" fill="#827984" fill-opacity="1"></use></g><g><use xlink:href="#a32O0YnGgz" opacity="1" fill="#6e8686" fill-opacity="1"></use><g><use xlink:href="#a32O0YnGgz" opacity="1" fill-opacity="0" stroke="#000000" stroke-width="15" stroke-opacity="1"></use></g></g><g><use xlink:href="#dlyeDXXSv" opacity="1" fill="#000000" fill-opacity="1"></use></g><g><g><use xlink:href="#e4bQGptpqY" opacity="1" fill-opacity="0" stroke="#000000" stroke-width="20" stroke-opacity="1"></use></g></g><g><use xlink:href="#ec0nNjAOP" opacity="1" fill="#a48155" fill-opacity="1"></use><g><use xlink:href="#ec0nNjAOP" opacity="1" fill-opacity="0" stroke="#000000" stroke-width="15" stroke-opacity="1"></use></g></g><g><use xlink:href="#a6LdezfKI" opacity="1" fill="#a58358" fill-opacity="1"></use><g><use xlink:href="#a6LdezfKI" opacity="1" fill-opacity="0" stroke="#000000" stroke-width="15" stroke-opacity="1"></use></g></g><g><use xlink:href="#c1hllM0kYx" opacity="1" fill="#000000" fill-opacity="1"></use><g><use xlink:href="#c1hllM0kYx" opacity="1" fill-opacity="0" stroke="#000000" stroke-width="15" stroke-opacity="1"></use></g></g><g><use xlink:href="#mxJ4xF5Bm" opacity="1" fill="#000000" fill-opacity="1"></use></g><g><use xlink:href="#f1dnFiNR1G" opacity="1" fill="#4d7164" fill-opacity="1"></use><g><use xlink:href="#f1dnFiNR1G" opacity="1" fill-opacity="0" stroke="#000000" stroke-width="15" stroke-opacity="1"></use></g></g><g><use xlink:href="#buS6jHbmV" opacity="1" fill="#4d7164" fill-opacity="1"></use><g><use xlink:href="#buS6jHbmV" opacity="1" fill-opacity="0" stroke="#000000" stroke-width="15" stroke-opacity="1"></use></g></g></g></g></g></svg>