<?xml version="1.0" encoding="UTF-8" standalone="no"?>
<!DOCTYPE svg PUBLIC "-//W3C//DTD SVG 1.1//EN" "http://www.w3.org/Graphics/SVG/1.1/DTD/svg11.dtd">
<svg version="1.1" xmlns="http://www.w3.org/2000/svg" xmlns:xlink="http://www.w3.org/1999/xlink" preserveAspectRatio="xMidYMid meet" viewBox="0 0 750 1450" width="750" height="1450"><defs><path d="M416.24 336.01C335.6 355.88 254.12 306.62 234.26 225.98C214.39 145.34 263.65 63.86 344.29 43.99C424.93 24.12 506.41 73.38 526.28 154.02C546.15 234.66 496.88 316.14 416.24 336.01Z" id="bl0bLBe9T"></path><path d="M416.24 336.01C335.6 355.88 254.12 306.62 234.26 225.98C214.39 145.34 263.65 63.86 344.29 43.99C424.93 24.12 506.41 73.38 526.28 154.02C546.15 234.66 496.88 316.14 416.24 336.01Z" id="e5pULuh9T1"></path><path d="M230.83 160.24C116.58 188.38 32.02 243.89 41.96 284.21C51.89 324.53 212.48 319.63 400.64 273.27C400.64 273.27 400.64 273.27 400.65 273.27" id="j1zfyCggxg"></path><path d="M230.83 160.24C116.58 188.38 32.02 243.89 41.96 284.21C51.89 324.53 212.48 319.63 400.64 273.27C400.64 273.27 400.64 273.27 400.65 273.27" id="d2GWkUcyUh"></path><path d="M233.02 156.59L234.46 162.44L228.62 163.88L227.18 158.03L233.02 156.59Z" id="eSwYsdWJ4"></path><path d="M233.02 156.59L234.46 162.44L228.62 163.88L227.18 158.03L233.02 156.59Z" id="a1HCgOkMMw"></path><path d="M400.65 273.27C588.8 226.91 733.29 156.64 723.35 116.32C713.42 76 612.75 66.13 498.51 94.28" id="hqpU5RkT9"></path><path d="M400.65 273.27C588.8 226.91 733.29 156.64 723.35 116.32C713.42 76 612.75 66.13 498.51 94.28" id="b1VCOYwuu6"></path><path d="M402.84 269.63L404.28 275.47L398.44 276.91L397 271.07L402.84 269.63Z" id="cb5yS2FPa"></path><path d="M402.84 269.63L404.28 275.47L398.44 276.91L397 271.07L402.84 269.63Z" id="d1JU04cTrH"></path><path d="M541.39 248.4C531.31 250.88 521.12 244.73 518.64 234.65C516.16 224.57 522.31 214.38 532.4 211.9C542.48 209.42 552.66 215.57 555.14 225.65C557.63 235.73 551.47 245.91 541.39 248.4Z" id="ch8OdjzGm"></path><path d="M541.39 248.4C531.31 250.88 521.12 244.73 518.64 234.65C516.16 224.57 522.31 214.38 532.4 211.9C542.48 209.42 552.66 215.57 555.14 225.65C557.63 235.73 551.47 245.91 541.39 248.4Z" id="cRf2OKGii"></path><path d="M144.39 1022.84C224.32 925.86 367.74 912.03 464.72 991.96C561.71 1071.88 575.53 1215.3 495.61 1312.28C415.68 1409.27 272.26 1423.09 175.28 1343.17C78.3 1263.24 64.47 1119.82 144.39 1022.84Z" id="asq6C0A39"></path><path d="M144.39 1022.84C224.32 925.86 367.74 912.03 464.72 991.96C561.71 1071.88 575.53 1215.3 495.61 1312.28C415.68 1409.27 272.26 1423.09 175.28 1343.17C78.3 1263.24 64.47 1119.82 144.39 1022.84Z" id="a8N86AiCG"></path><path d="M232.2 1095.2C272.16 1046.71 343.87 1039.79 392.36 1079.76C440.85 1119.72 447.76 1191.43 407.8 1239.92C367.84 1288.42 296.13 1295.33 247.64 1255.37C199.15 1215.4 192.23 1143.69 232.2 1095.2Z" id="a1QPnJ7U9"></path><radialGradient id="gradienta6CEz0Jg1" gradientUnits="userSpaceOnUse" cx="315.2" cy="1166.03" r="0"><stop style="stop-color: #e69623;stop-opacity: 1" offset="0%"></stop><stop style="stop-color: #ea1e1e;stop-opacity: 1" offset="100%"></stop></radialGradient><path d="M232.2 1095.2C272.16 1046.71 343.87 1039.79 392.36 1079.76C440.85 1119.72 447.76 1191.43 407.8 1239.92C367.84 1288.42 296.13 1295.33 247.64 1255.37C199.15 1215.4 192.23 1143.69 232.2 1095.2Z" id="c8oWfS8wz"></path><path d="M474.25 1294.68C482.23 1284.99 496.56 1283.61 506.24 1291.6C515.93 1299.58 517.31 1313.9 509.33 1323.59C501.34 1333.28 487.02 1334.65 477.33 1326.67C467.65 1318.69 466.26 1304.37 474.25 1294.68Z" id="fE4HNe86t"></path><path d="M474.25 1294.68C482.23 1284.99 496.56 1283.61 506.24 1291.6C515.93 1299.58 517.31 1313.9 509.33 1323.59C501.34 1333.28 487.02 1334.65 477.33 1326.67C467.65 1318.69 466.26 1304.37 474.25 1294.68Z" id="gSNRSv04i"></path><linearGradient id="gradientawb28nuFb" gradientUnits="userSpaceOnUse" x1="485.18" y1="1330.88" x2="497.75" y2="1287.55"><stop style="stop-color: #10cba8;stop-opacity: 1" offset="0%"></stop><stop style="stop-color: #0b8870;stop-opacity: 1" offset="49.43916583437525%"></stop><stop style="stop-color: #1843d2;stop-opacity: 1" offset="100%"></stop></linearGradient><path d="M160.93 488.36C244.11 394.15 387.91 385.21 482.13 468.39C576.33 551.57 585.28 695.37 502.1 789.58C418.92 883.79 275.11 892.73 180.91 809.56C86.69 726.38 77.76 582.57 160.93 488.36Z" id="ddOzNjXSD"></path><path d="M160.93 488.36C244.11 394.15 387.91 385.21 482.13 468.39C576.33 551.57 585.28 695.37 502.1 789.58C418.92 883.79 275.11 892.73 180.91 809.56C86.69 726.38 77.76 582.57 160.93 488.36Z" id="ag081PfN4"></path><path d="M481.35 771.26C489.66 761.86 504.02 760.96 513.43 769.27C522.84 777.58 523.73 791.94 515.42 801.35C507.12 810.76 492.75 811.65 483.35 803.34C473.94 795.04 473.04 780.67 481.35 771.26Z" id="b2fYOmcJxR"></path><path d="M246.22 563.67C287.82 516.56 359.71 512.09 406.82 553.68C453.93 595.27 458.4 667.17 416.81 714.28C375.22 761.38 303.32 765.85 256.21 724.26C209.1 682.67 204.64 610.77 246.22 563.67Z" id="c1kOZECOfm"></path></defs><g><g><g><use xlink:href="#bl0bLBe9T" opacity="1" fill="#ffc000" fill-opacity="1"></use><g><use xlink:href="#bl0bLBe9T" opacity="1" fill-opacity="0" stroke="#000000" stroke-width="1" stroke-opacity="0"></use></g></g><g><use xlink:href="#e5pULuh9T1" opacity="1" fill="#000000" fill-opacity="0"></use><g><use xlink:href="#e5pULuh9T1" opacity="1" fill-opacity="0" stroke="#ffc000" stroke-width="8" stroke-opacity="1"></use></g></g><g><use xlink:href="#j1zfyCggxg" opacity="1" fill="#000000" fill-opacity="0"></use><g><use xlink:href="#j1zfyCggxg" opacity="1" fill-opacity="0" stroke="#000000" stroke-width="1" stroke-opacity="0"></use></g></g><g><use xlink:href="#d2GWkUcyUh" opacity="1" fill="#000000" fill-opacity="0"></use><g><use xlink:href="#d2GWkUcyUh" opacity="1" fill-opacity="0" stroke="#000000" stroke-width="6" stroke-opacity="1"></use></g></g><g><use xlink:href="#eSwYsdWJ4" opacity="1" fill="#000000" fill-opacity="0"></use><g><use xlink:href="#eSwYsdWJ4" opacity="1" fill-opacity="0" stroke="#000000" stroke-width="1" stroke-opacity="0"></use></g></g><g><use xlink:href="#a1HCgOkMMw" opacity="1" fill="#000000" fill-opacity="0"></use><g><use xlink:href="#a1HCgOkMMw" opacity="1" fill-opacity="0" stroke="#000000" stroke-width="0" stroke-opacity="1"></use></g></g><g><use xlink:href="#hqpU5RkT9" opacity="1" fill="#000000" fill-opacity="0"></use><g><use xlink:href="#hqpU5RkT9" opacity="1" fill-opacity="0" stroke="#000000" stroke-width="1" stroke-opacity="0"></use></g></g><g><use xlink:href="#b1VCOYwuu6" opacity="1" fill="#000000" fill-opacity="0"></use><g><use xlink:href="#b1VCOYwuu6" opacity="1" fill-opacity="0" stroke="#000000" stroke-width="6" stroke-opacity="1"></use></g></g><g><use xlink:href="#cb5yS2FPa" opacity="1" fill="#000000" fill-opacity="0"></use><g><use xlink:href="#cb5yS2FPa" opacity="1" fill-opacity="0" stroke="#000000" stroke-width="1" stroke-opacity="0"></use></g></g><g><use xlink:href="#d1JU04cTrH" opacity="1" fill="#000000" fill-opacity="0"></use><g><use xlink:href="#d1JU04cTrH" opacity="1" fill-opacity="0" stroke="#000000" stroke-width="0" stroke-opacity="1"></use></g></g><g><use xlink:href="#ch8OdjzGm" opacity="1" fill="#000000" fill-opacity="1"></use><g><use xlink:href="#ch8OdjzGm" opacity="1" fill-opacity="0" stroke="#000000" stroke-width="1" stroke-opacity="0"></use></g></g><g><use xlink:href="#cRf2OKGii" opacity="1" fill="#000000" fill-opacity="0"></use><g><use xlink:href="#cRf2OKGii" opacity="1" fill-opacity="0" stroke="#000000" stroke-width="8" stroke-opacity="1"></use></g></g><g><use xlink:href="#asq6C0A39" opacity="1" fill="#000000" fill-opacity="0"></use><g><use xlink:href="#asq6C0A39" opacity="1" fill-opacity="0" stroke="#000000" stroke-width="1" stroke-opacity="0"></use></g></g><g><use xlink:href="#a8N86AiCG" opacity="1" fill="#000000" fill-opacity="0"></use><g><use xlink:href="#a8N86AiCG" opacity="1" fill-opacity="0" stroke="#000000" stroke-width="5" stroke-opacity="1"></use></g></g><g><use xlink:href="#a1QPnJ7U9" opacity="1" fill="url(#gradienta6CEz0Jg1)"></use><g><use xlink:href="#a1QPnJ7U9" opacity="1" fill-opacity="0" stroke="#000000" stroke-width="1" stroke-opacity="0"></use></g></g><g><use xlink:href="#c8oWfS8wz" opacity="1" fill="#000000" fill-opacity="0"></use><g><use xlink:href="#c8oWfS8wz" opacity="1" fill-opacity="0" stroke="#ffc000" stroke-width="8" stroke-opacity="0"></use></g></g><g><use xlink:href="#fE4HNe86t" opacity="1" fill="#00ff51" fill-opacity="1"></use><g><use xlink:href="#fE4HNe86t" opacity="1" fill-opacity="0" stroke="#000000" stroke-width="1" stroke-opacity="0"></use></g></g><g><use xlink:href="#gSNRSv04i" opacity="1" fill="url(#gradientawb28nuFb)"></use><g><use xlink:href="#gSNRSv04i" opacity="1" fill-opacity="0" stroke="#000000" stroke-width="1" stroke-opacity="0"></use></g></g><g><use xlink:href="#ddOzNjXSD" opacity="1" fill="#000000" fill-opacity="0"></use><g><use xlink:href="#ddOzNjXSD" opacity="1" fill-opacity="0" stroke="#000000" stroke-width="1" stroke-opacity="0"></use></g></g><g><use xlink:href="#ag081PfN4" opacity="1" fill="#000000" fill-opacity="0"></use><g><use xlink:href="#ag081PfN4" opacity="1" fill-opacity="0" stroke="#000000" stroke-width="5" stroke-opacity="1"></use></g></g><g><use xlink:href="#b2fYOmcJxR" opacity="1" fill="#000000" fill-opacity="1"></use><g><use xlink:href="#b2fYOmcJxR" opacity="1" fill-opacity="0" stroke="#000000" stroke-width="1" stroke-opacity="0"></use></g></g><g><use xlink:href="#c1kOZECOfm" opacity="1" fill="#ffc000" fill-opacity="1"></use><g><use xlink:href="#c1kOZECOfm" opacity="1" fill-opacity="0" stroke="#000000" stroke-width="1" stroke-opacity="0"></use></g></g></g></g></svg>