<?xml version="1.0" encoding="UTF-8" standalone="no"?>
<!DOCTYPE svg PUBLIC "-//W3C//DTD SVG 1.1//EN" "http://www.w3.org/Graphics/SVG/1.1/DTD/svg11.dtd">
<svg version="1.1" xmlns="http://www.w3.org/2000/svg" xmlns:xlink="http://www.w3.org/1999/xlink" preserveAspectRatio="xMidYMid meet" viewBox="0 0 750 800" width="750" height="800"><defs><path d="M289.34 511.19L272.15 518.6L257.84 527.85L244.47 540.81L232.06 559.32L223.47 579.69L215.84 601.9L210.11 627.82L203.43 655.58L200.56 681.5L199.61 709.27L200.56 735.19L205.34 759.25L218.7 762.95L225.38 738.89L229.2 712.97L233.97 687.05L240.65 661.14L248.29 637.07L256.88 614.86L267.38 596.35L280.74 585.24L294.11 581.54" id="d1VrtuEeQP"></path><path d="M460.66 511.19L477.85 518.6L492.16 527.85L505.53 540.81L517.94 559.32L526.53 579.69L534.16 601.9L539.89 627.82L546.57 655.58L549.44 681.5L550.39 709.27L549.44 735.19L544.66 759.25L531.3 762.95L524.62 738.89L520.8 712.97L516.03 687.05L509.35 661.14L501.71 637.07L493.12 614.86L482.62 596.35L469.26 585.24L455.89 581.54" id="b3YZ6yaSDa"></path><path d="M467.13 462.05L487.72 462.05L512.43 459.91L535.76 458.84L554.98 457.77L578.32 458.84L603.02 459.91L622.24 463.12L642.83 467.39L663.42 473.81L681.26 481.29L696.36 491.98L711.46 504.81L718.32 519.77L722.44 534.74L725.19 551.84L723.81 566.81L718.32 581.77L697.73 584.98L679.89 574.29L668.91 561.46L662.05 547.57L653.81 533.67L641.46 521.91L626.36 512.29L607.14 505.88L587.92 503.74L567.33 502.67L548.12 502.67L527.53 503.74L508.31 503.74L487.72 503.74" id="b3zEty3fNc"></path><path d="M282.87 462.05L262.28 462.05L237.57 459.91L214.24 458.84L195.02 457.77L171.68 458.84L146.98 459.91L127.76 463.12L107.17 467.39L86.58 473.81L68.74 481.29L53.64 491.98L38.54 504.81L31.68 519.77L27.56 534.74L24.81 551.84L26.19 566.81L31.68 581.77L52.27 584.98L70.11 574.29L81.09 561.46L87.95 547.57L96.19 533.67L108.54 521.91L123.64 512.29L142.86 505.88L162.08 503.74L182.67 502.67L201.88 502.67L222.47 503.74L241.69 503.74L262.28 503.74" id="dvg3yOKxP"></path><path d="M296.26 341.65L274.77 342.72L253.27 342.72L230.24 342.72L207.21 341.65L182.64 336.3L162.68 330.96L142.72 324.54L124.29 315.99L110.47 303.16L98.19 288.2L88.97 273.23L81.3 257.2L75.16 242.23L69.01 226.2L56.73 213.37L38.3 205.89L18.34 211.23L9.13 225.13L10.67 240.09L16.81 255.06L21.41 270.03L30.63 283.92L38.3 297.82L47.52 312.79L56.73 327.75L69.01 340.58L82.83 352.34L99.72 361.96L121.22 369.44L141.18 374.79L240.99 386.55L265.55 387.62L287.05 387.62" id="eaSMsZCXc"></path><path d="M453.74 341.65L475.23 342.72L496.73 342.72L519.76 342.72L542.79 341.65L567.36 336.3L587.32 330.96L607.28 324.54L625.71 315.99L639.53 303.16L651.81 288.2L661.03 273.23L668.7 257.2L674.84 242.23L680.99 226.2L693.27 213.37L711.7 205.89L731.66 211.23L740.87 225.13L739.33 240.09L733.19 255.06L728.59 270.03L719.37 283.92L711.7 297.82L702.48 312.79L693.27 327.75L680.99 340.58L667.17 352.34L650.28 361.96L628.78 369.44L608.82 374.79L509.01 386.55L484.45 387.62L462.95 387.62" id="f1liX0R1gh"></path><path d="M289.34 219.28L275.22 224.53L263.12 200.92L255.05 169.44L251.02 130.09L246.99 90.74L243.96 54.02L236.9 22.54L222.79 12.05L210.69 33.03L207.66 69.76L209.68 106.48L213.71 145.83L216.74 182.56L220.77 219.28L228.84 250.76L238.92 277L251.02 295.36L265.14 303.23L279.26 308.47L293.37 303.23" id="b6WG2ytQO3"></path><path d="M460.59 219.28L474.71 224.53L486.81 200.92L494.88 169.44L498.91 130.09L502.94 90.74L505.97 54.02L513.03 22.54L527.15 12.05L539.25 33.03L542.27 69.76L540.25 106.48L536.22 145.83L533.2 182.56L529.16 219.28L521.09 250.76L511.01 277L498.91 295.36L484.79 303.23L470.67 308.47L456.56 303.23" id="a4btpehXi"></path><path d="M483.6 273.44C483.6 338.19 434.94 390.75 375 390.75C315.06 390.75 266.4 338.19 266.4 273.44C266.4 208.7 315.06 156.14 375 156.14C434.94 156.14 483.6 208.7 483.6 273.44Z" id="b2suoyAAag"></path><path d="M375.4 326.55L371.89 321.04L366.89 316.03L361.88 312.03L355.87 310.02L349.36 308.52L342.85 308.52L333.83 310.52L327.82 312.53L320.81 316.53L314.8 320.54L309.29 325.05L305.29 330.56L299.78 333.56L292.27 335.06L285.76 337.07L279.75 339.57L273.24 342.07L267.73 345.08L262.22 348.08L257.71 352.59L252.7 358.6L249.7 365.11L248.7 372.12L249.2 379.63L249.2 386.15L243.69 389.65L235.68 393.16L230.67 397.16L225.16 403.17L222.15 409.18L219.15 416.19L216.14 423.71L214.64 430.72L214.14 438.23L216.14 444.74L219.65 451.25L218.65 458.76L213.64 464.77L210.64 470.78L208.13 479.29L207.63 488.31L209.63 497.82L211.64 504.33L214.64 511.85L218.15 519.36L222.66 524.87L227.16 529.37L233.17 533.38L239.18 535.88L239.18 542.9L238.68 549.91L238.68 556.92L240.68 563.43L244.19 569.94L248.7 576.45L254.21 580.96L262.22 585.46L269.23 586.97L277.74 587.47L285.76 585.46L292.27 583.96L298.28 587.97L302.78 592.47L308.29 596.48L313.8 600.99L319.81 604.49L327.82 608L335.34 610L342.35 610.5L348.86 610L354.87 608L360.38 604.99L366.89 599.99L371.39 594.48L374.4 588.97L376.9 582.96L377.4 576.45" id="a1Mps3y1Y"></path><path d="M306.73 328.89L302.38 336.71L301.51 347.15L301.51 356.71L304.12 365.41L309.34 374.97L318.9 379.32L327.6 381.93L338.9 381.93L347.6 377.58L351.08 366.28L349.34 357.58L343.25 349.75" id="bNYQzrFvt"></path><path d="M249.34 381.06L252.82 391.49L256.29 401.06L259.77 409.75L265.86 416.71L273.69 421.06L284.12 422.8L293.69 420.19L300.64 412.36L301.51 401.06L297.16 393.23L289.34 385.41" id="dcjNsJNS3"></path><path d="M218.03 448.89L223.25 456.71L227.6 465.41L232.82 473.23L241.51 480.19L250.21 481.93L259.77 480.19L268.47 475.84L275.42 468.89L275.42 459.32L269.34 450.62L259.77 447.15L251.95 452.36" id="a25jwW2y8"></path><path d="M237.16 535.84L251.08 537.58L261.51 536.71L271.08 532.36L276.29 524.54L278.9 514.97L273.69 503.67L265.86 497.58L258.03 501.93" id="c23qYANXGz"></path><path d="M289.34 585.41L298.03 581.06L305.86 574.97L310.21 566.28L311.95 555.84L309.34 547.15L302.38 538.45L291.95 539.32L288.47 548.02" id="a16sayl3i"></path><path d="M376.29 528.89L374.56 517.58L371.08 507.15L366.73 496.71L358.03 488.02L350.21 482.8L341.51 480.19L332.82 478.45L322.38 481.93L318.03 489.75L316.29 500.19L318.9 508.89L323.25 517.58L331.08 524.54L341.51 522.8L344.99 513.23" id="a4V1zFycs"></path><path d="M340.64 479.32L331.95 471.49L327.6 463.67L324.12 454.1L323.25 442.8L326.73 430.62L331.95 421.93L339.77 414.1L348.47 411.49L358.03 414.97L364.12 421.93L365.86 430.62L362.38 441.06L354.56 445.41" id="abNlfegPg"></path><path d="M374.6 326.55L378.11 321.04L383.11 316.03L388.12 312.03L394.13 310.02L400.64 308.52L407.15 308.52L416.17 310.52L422.18 312.53L429.19 316.53L435.2 320.54L440.71 325.05L444.71 330.56L450.22 333.56L457.73 335.06L464.24 337.07L470.25 339.57L476.76 342.07L482.27 345.08L487.78 348.08L492.29 352.59L497.3 358.6L500.3 365.11L501.3 372.12L500.8 379.63L500.8 386.15L506.31 389.65L514.32 393.16L519.33 397.16L524.84 403.17L527.85 409.18L530.85 416.19L533.86 423.71L535.36 430.72L535.86 438.23L533.86 444.74L530.35 451.25L531.35 458.76L536.36 464.77L539.36 470.78L541.87 479.29L542.37 488.31L540.37 497.82L538.36 504.33L535.36 511.85L531.85 519.36L527.34 524.87L522.84 529.37L516.83 533.38L510.82 535.88L510.82 542.9L511.32 549.91L511.32 556.92L509.32 563.43L505.81 569.94L501.3 576.45L495.79 580.96L487.78 585.46L480.77 586.97L472.26 587.47L464.24 585.46L457.73 583.96L451.72 587.97L447.22 592.47L441.71 596.48L436.2 600.99L430.19 604.49L422.18 608L414.66 610L407.65 610.5L401.14 610L395.13 608L389.62 604.99L383.11 599.99L378.61 594.48L375.6 588.97L373.1 582.96L372.6 576.45" id="a19XR2ywTH"></path><path d="M443.27 328.89L447.62 336.71L448.49 347.15L448.49 356.71L445.88 365.41L440.66 374.97L431.1 379.32L422.4 381.93L411.1 381.93L402.4 377.58L398.92 366.28L400.66 357.58L406.75 349.75" id="e10oP1m22A"></path><path d="M500.66 381.06L497.18 391.49L493.71 401.06L490.23 409.75L484.14 416.71L476.31 421.06L465.88 422.8L456.31 420.19L449.36 412.36L448.49 401.06L452.84 393.23L460.66 385.41" id="fcvuHg6wH"></path><path d="M531.97 448.89L526.75 456.71L522.4 465.41L517.18 473.23L508.49 480.19L499.79 481.93L490.23 480.19L481.53 475.84L474.58 468.89L474.58 459.32L480.66 450.62L490.23 447.15L498.05 452.36" id="bcJko0X39"></path><path d="M512.84 535.84L498.92 537.58L488.49 536.71L478.92 532.36L473.71 524.54L471.1 514.97L476.31 503.67L484.14 497.58L491.97 501.93" id="a487PTaMvd"></path><path d="M460.66 585.41L451.97 581.06L444.14 574.97L439.79 566.28L438.05 555.84L440.66 547.15L447.62 538.45L458.05 539.32L461.53 548.02" id="bBc1yFCgO"></path><path d="M373.71 528.89L375.44 517.58L378.92 507.15L383.27 496.71L391.97 488.02L399.79 482.8L408.49 480.19L417.18 478.45L427.62 481.93L431.97 489.75L433.71 500.19L431.1 508.89L426.75 517.58L418.92 524.54L408.49 522.8L405.01 513.23" id="g1eUv8EBkN"></path><path d="M409.36 479.32L418.05 471.49L422.4 463.67L425.88 454.1L426.75 442.8L423.27 430.62L418.05 421.93L410.23 414.1L401.53 411.49L391.97 414.97L385.88 421.93L384.14 430.62L387.62 441.06L395.44 445.41" id="b3vaBrRjVT"></path><path d="M370 321.08L380 321.08L380 589.15L370 589.15L370 321.08Z" id="b4LfSSvPI"></path><path d="M345.86 238.85C345.86 248.26 338.5 255.9 329.43 255.9C320.37 255.9 313.01 248.26 313.01 238.85C313.01 229.43 320.37 221.79 329.43 221.79C338.5 221.79 345.86 229.43 345.86 238.85Z" id="dnDB9wWIT"></path><path d="M436.99 238.85C436.99 248.26 429.63 255.9 420.57 255.9C411.5 255.9 404.14 248.26 404.14 238.85C404.14 229.43 411.5 221.79 420.57 221.79C429.63 221.79 436.99 229.43 436.99 238.85Z" id="c6f1ZfMLAO"></path></defs><g><g><g></g><g><g><g><use xlink:href="#d1VrtuEeQP" opacity="1" fill="#000000" fill-opacity="1"></use><g><use xlink:href="#d1VrtuEeQP" opacity="1" fill-opacity="0" stroke="#000000" stroke-width="1" stroke-opacity="1"></use></g></g><g><use xlink:href="#b3YZ6yaSDa" opacity="1" fill="#000000" fill-opacity="1"></use><g><use xlink:href="#b3YZ6yaSDa" opacity="1" fill-opacity="0" stroke="#000000" stroke-width="1" stroke-opacity="1"></use></g></g></g><g><g><g><use xlink:href="#b3zEty3fNc" opacity="1" fill="#000000" fill-opacity="1"></use><g><use xlink:href="#b3zEty3fNc" opacity="1" fill-opacity="0" stroke="#000000" stroke-width="1" stroke-opacity="1"></use></g></g><g><use xlink:href="#dvg3yOKxP" opacity="1" fill="#000000" fill-opacity="1"></use><g><use xlink:href="#dvg3yOKxP" opacity="1" fill-opacity="0" stroke="#000000" stroke-width="1" stroke-opacity="1"></use></g></g></g><g><g><g><use xlink:href="#eaSMsZCXc" opacity="1" fill="#000000" fill-opacity="1"></use></g><g><use xlink:href="#f1liX0R1gh" opacity="1" fill="#000000" fill-opacity="1"></use></g></g><g><g><use xlink:href="#b6WG2ytQO3" opacity="1" fill="#000000" fill-opacity="1"></use><g><use xlink:href="#b6WG2ytQO3" opacity="1" fill-opacity="0" stroke="#000000" stroke-width="7" stroke-opacity="1"></use></g></g><g><use xlink:href="#a4btpehXi" opacity="1" fill="#000000" fill-opacity="1"></use><g><use xlink:href="#a4btpehXi" opacity="1" fill-opacity="0" stroke="#000000" stroke-width="7" stroke-opacity="1"></use></g></g><g><use xlink:href="#b2suoyAAag" opacity="1" fill="#ca1a79" fill-opacity="1"></use><g><use xlink:href="#b2suoyAAag" opacity="1" fill-opacity="0" stroke="#000000" stroke-width="6" stroke-opacity="1"></use></g></g><g><g><g><use xlink:href="#a1Mps3y1Y" opacity="1" fill="#844fcf" fill-opacity="1"></use><g><use xlink:href="#a1Mps3y1Y" opacity="1" fill-opacity="0" stroke="#000000" stroke-width="7" stroke-opacity="1"></use></g></g><g><g><use xlink:href="#bNYQzrFvt" opacity="1" fill-opacity="0" stroke="#000000" stroke-width="7" stroke-opacity="1"></use></g></g><g><g><use xlink:href="#dcjNsJNS3" opacity="1" fill-opacity="0" stroke="#000000" stroke-width="7" stroke-opacity="1"></use></g></g><g><g><use xlink:href="#a25jwW2y8" opacity="1" fill-opacity="0" stroke="#000000" stroke-width="7" stroke-opacity="1"></use></g></g><g><g><use xlink:href="#c23qYANXGz" opacity="1" fill-opacity="0" stroke="#000000" stroke-width="7" stroke-opacity="1"></use></g></g><g><g><use xlink:href="#a16sayl3i" opacity="1" fill-opacity="0" stroke="#000000" stroke-width="7" stroke-opacity="1"></use></g></g><g><g><use xlink:href="#a4V1zFycs" opacity="1" fill-opacity="0" stroke="#000000" stroke-width="7" stroke-opacity="1"></use></g></g><g><g><use xlink:href="#abNlfegPg" opacity="1" fill-opacity="0" stroke="#000000" stroke-width="7" stroke-opacity="1"></use></g></g></g><g><g><use xlink:href="#a19XR2ywTH" opacity="1" fill="#844fcf" fill-opacity="1"></use><g><use xlink:href="#a19XR2ywTH" opacity="1" fill-opacity="0" stroke="#000000" stroke-width="7" stroke-opacity="1"></use></g></g><g><g><use xlink:href="#e10oP1m22A" opacity="1" fill-opacity="0" stroke="#000000" stroke-width="7" stroke-opacity="1"></use></g></g><g><g><use xlink:href="#fcvuHg6wH" opacity="1" fill-opacity="0" stroke="#000000" stroke-width="7" stroke-opacity="1"></use></g></g><g><g><use xlink:href="#bcJko0X39" opacity="1" fill-opacity="0" stroke="#000000" stroke-width="7" stroke-opacity="1"></use></g></g><g><g><use xlink:href="#a487PTaMvd" opacity="1" fill-opacity="0" stroke="#000000" stroke-width="7" stroke-opacity="1"></use></g></g><g><g><use xlink:href="#bBc1yFCgO" opacity="1" fill-opacity="0" stroke="#000000" stroke-width="7" stroke-opacity="1"></use></g></g><g><g><use xlink:href="#g1eUv8EBkN" opacity="1" fill-opacity="0" stroke="#000000" stroke-width="7" stroke-opacity="1"></use></g></g><g><g><use xlink:href="#b3vaBrRjVT" opacity="1" fill-opacity="0" stroke="#000000" stroke-width="7" stroke-opacity="1"></use></g></g></g></g><g><use xlink:href="#b4LfSSvPI" opacity="1" fill="#000000" fill-opacity="1"></use></g><g><use xlink:href="#dnDB9wWIT" opacity="1" fill="#0e0e0f" fill-opacity="1"></use></g><g><use xlink:href="#c6f1ZfMLAO" opacity="1" fill="#0e0e0f" fill-opacity="1"></use></g></g></g></g></g></g></g></svg>